<?xml version="1.0" encoding="UTF-8"?>
<svg width="48px" height="48px" viewBox="0 0 48 48" version="1.1" xmlns="http://www.w3.org/2000/svg" xmlns:xlink="http://www.w3.org/1999/xlink">
    <!-- Generator: Sketch 61.2 (89653) - https://sketch.com -->
    <title>ic-new-process-deliver</title>
    <desc>Created with Sketch.</desc>
    <g id="Page-1" stroke="none" stroke-width="1" fill="none" fill-rule="evenodd">
        <g id="Home-page-6" transform="translate(-1257.000000, -2298.000000)" fill="#007AFE" fill-rule="nonzero">
            <path d="M1281,2298 C1281.43323,2298 1281.83972,2298.19958 1282.10522,2298.5365 C1282.12866,2298.5625 1282.16089,2298.59692 1282.20154,2298.64014 C1285.05139,2301.69727 1286.95349,2305.43152 1287.68921,2309.4375 L1287.68921,2309.4375 L1297.96875,2309.4375 C1300.29492,2309.4375 1302.1875,2311.33008 1302.1875,2313.65625 L1302.1875,2313.65625 L1302.1875,2337.5625 L1303.59375,2337.5625 C1304.37048,2337.5625 1305,2338.19202 1305,2338.96875 C1305,2342.84583 1301.84583,2346 1297.96875,2346 L1297.96875,2346 L1264.03125,2346 C1260.15417,2346 1257,2342.84583 1257,2338.96875 C1257,2338.19202 1257.62952,2337.5625 1258.40625,2337.5625 L1258.40625,2337.5625 L1259.8125,2337.5625 L1259.8125,2313.65625 C1259.8125,2311.33008 1261.70508,2309.4375 1264.03125,2309.4375 L1264.03125,2309.4375 L1274.30786,2309.4375 C1275.05676,2305.33118 1277.00391,2301.61304 1279.80615,2298.63098 C1279.8446,2298.5896 1279.8761,2298.55664 1279.8988,2298.53174 C1280.16394,2298.19739 1280.5686,2298 1281,2298 Z M1301.94653,2340.3739 L1260.05347,2340.3739 C1260.63391,2342.01086 1262.19763,2343.1875 1264.03125,2343.1875 L1264.03125,2343.1875 L1297.96875,2343.1875 C1299.80237,2343.1875 1301.36609,2342.01086 1301.94653,2340.3739 L1301.94653,2340.3739 Z M1297.96875,2312.25 L1288.00964,2312.25 C1288.02356,2312.55725 1288.03125,2312.86523 1288.03125,2313.17358 C1288.03125,2316.66284 1287.35815,2319.4303 1286.64111,2321.52759 L1286.64111,2321.52759 L1289.02551,2323.91199 C1289.57483,2324.4613 1289.57483,2325.35156 1289.02551,2325.90051 C1288.47656,2326.44983 1287.58594,2326.44983 1287.03699,2325.90051 L1287.03699,2325.90051 L1285.52344,2324.38733 C1285.40332,2324.67517 1285.29749,2324.93262 1285.21875,2325.14539 L1285.21875,2325.14539 L1285.21875,2329.125 C1287.2688,2329.125 1289.12183,2330.25256 1290.10107,2331.98804 C1290.34717,2331.95435 1290.59509,2331.9375 1290.84375,2331.9375 C1292.34412,2331.9375 1293.76794,2332.51721 1294.85303,2333.57007 C1295.95532,2334.63977 1296.5625,2336.05737 1296.5625,2337.5625 L1296.5625,2337.5625 L1299.375,2337.5625 L1299.375,2313.65625 C1299.375,2312.88098 1298.74402,2312.25 1297.96875,2312.25 L1297.96875,2312.25 Z M1282.40625,2326.3125 L1279.59375,2326.3125 L1279.59375,2329.125 C1279.59375,2330.6759 1278.33215,2331.9375 1276.78125,2331.9375 C1275.52405,2331.9375 1274.41406,2332.7937 1274.08228,2334.01978 C1273.86255,2334.8324 1272.98181,2335.27112 1272.20105,2334.95728 C1271.85828,2334.81958 1271.50671,2334.75 1271.15625,2334.75 C1269.60535,2334.75 1268.34375,2336.0116 1268.34375,2337.5625 L1268.34375,2337.5625 L1293.75,2337.5625 C1293.75,2336.03796 1292.41919,2334.75 1290.84375,2334.75 C1290.49329,2334.75 1290.14172,2334.81958 1289.79895,2334.95728 C1289.01782,2335.27112 1288.13745,2334.83167 1287.91772,2334.01978 C1287.58594,2332.7937 1286.47595,2331.9375 1285.21875,2331.9375 C1283.66785,2331.9375 1282.40625,2330.6759 1282.40625,2329.125 L1282.40625,2329.125 L1282.40625,2326.3125 Z M1273.98999,2312.2489 L1264.03125,2312.2489 C1263.25598,2312.2489 1262.625,2312.88098 1262.625,2313.65625 L1262.625,2313.65625 L1262.625,2337.5625 L1265.53125,2337.5625 C1265.53125,2334.46069 1268.05444,2331.9375 1271.15625,2331.9375 C1271.40491,2331.9375 1271.65283,2331.95435 1271.89893,2331.98804 C1272.87817,2330.25256 1274.7312,2329.125 1276.78125,2329.125 L1276.78125,2329.125 L1276.78125,2325.14575 C1276.70288,2324.93555 1276.59668,2324.67737 1276.47546,2324.38806 L1276.47546,2324.38806 L1274.96301,2325.90051 C1274.41406,2326.44983 1273.52344,2326.44983 1272.97449,2325.90051 C1272.42517,2325.3512 1272.42517,2324.46094 1272.97449,2323.91199 L1272.97449,2323.91199 L1275.36255,2321.52356 C1274.43567,2318.7854 1273.96875,2316.02893 1273.96875,2313.17358 C1273.96875,2312.86523 1273.97644,2312.55615 1273.98999,2312.2489 L1273.98999,2312.2489 Z M1283.95276,2320.6864 L1278.04761,2320.6864 C1278.37756,2321.6499 1278.71851,2322.46399 1278.99646,2323.12646 C1279.05029,2323.25537 1279.10266,2323.37988 1279.15247,2323.5 L1279.15247,2323.5 L1282.84644,2323.5 C1282.901,2323.36816 1282.9585,2323.2312 1283.01782,2323.08911 C1283.29175,2322.43616 1283.6272,2321.63489 1283.95276,2320.6864 L1283.95276,2320.6864 Z M1284.82214,2309.4375 L1277.17456,2309.4375 C1276.91528,2310.65918 1276.78125,2311.91016 1276.78125,2313.17358 C1276.78125,2314.93433 1276.97827,2316.50061 1277.26794,2317.875 L1277.26794,2317.875 L1284.73279,2317.875 C1285.02209,2316.50281 1285.21875,2314.93726 1285.21875,2313.17358 C1285.21875,2311.91199 1285.08362,2310.66101 1284.82214,2309.4375 L1284.82214,2309.4375 Z M1281,2312.25 C1281.77673,2312.25 1282.40625,2312.87952 1282.40625,2313.65625 C1282.40625,2314.43298 1281.77673,2315.0625 1281,2315.0625 C1280.22327,2315.0625 1279.59375,2314.43298 1279.59375,2313.65625 C1279.59375,2312.87952 1280.22327,2312.25 1281,2312.25 Z M1280.9967,2301.53467 C1279.72375,2303.08667 1278.7207,2304.8042 1278.01318,2306.625 L1278.01318,2306.625 L1283.97839,2306.625 C1283.27014,2304.80969 1282.26782,2303.0918 1280.9967,2301.53467 Z" id="ic-new-process-deliver"></path>
        </g>
    </g>
</svg>