<?xml version="1.0" encoding="UTF-8"?>
<svg width="48px" height="48px" viewBox="0 0 48 48" version="1.1" xmlns="http://www.w3.org/2000/svg" xmlns:xlink="http://www.w3.org/1999/xlink">
    <!-- Generator: Sketch 61.2 (89653) - https://sketch.com -->
    <title>ic-new-process-design</title>
    <desc>Created with Sketch.</desc>
    <g id="Page-1" stroke="none" stroke-width="1" fill="none" fill-rule="evenodd">
        <g id="Home-page-6" transform="translate(-672.000000, -2298.000000)" fill="#FF9400" fill-rule="nonzero">
            <path d="M694.896973,2309.87353 C695.457642,2309.10221 696.607178,2309.1011 697.168945,2309.87353 L697.168945,2309.87353 L708.455566,2325.40294 C708.752563,2325.81176 708.809326,2326.34816 708.603882,2326.81029 L708.603882,2326.81029 L703.84314,2337.52941 L704.4375,2337.52941 C705.214233,2337.52941 705.84375,2338.1614 705.84375,2338.94118 L705.84375,2338.94118 L705.84375,2344.58824 C705.84375,2345.36801 705.214233,2346 704.4375,2346 L704.4375,2346 L687.5625,2346 C686.785767,2346 686.15625,2345.36801 686.15625,2344.58824 L686.15625,2344.58824 L686.15625,2338.94118 C686.15625,2338.1614 686.785767,2337.52941 687.5625,2337.52941 L687.5625,2337.52941 L688.222778,2337.52941 L683.46167,2326.81029 C683.256592,2326.34816 683.313354,2325.81176 683.610352,2325.40294 L683.610352,2325.40294 Z M703.03125,2340.35294 L688.96875,2340.35294 L688.96875,2343.17647 L703.03125,2343.17647 L703.03125,2340.35294 Z M697.40625,2314.99081 L697.40625,2323.65441 C699.043213,2324.2375 700.21875,2325.80662 700.21875,2327.64706 C700.21875,2329.98235 698.326172,2331.88235 696,2331.88235 C693.673828,2331.88235 691.78125,2329.98235 691.78125,2327.64706 C691.78125,2325.80662 692.956787,2324.2375 694.59375,2323.65441 L694.59375,2323.65441 L694.59375,2315.08125 L686.36206,2326.40699 L691.302246,2337.52941 L700.763672,2337.52941 L705.703491,2326.40699 L697.40625,2314.99081 Z M696,2326.23529 C695.224731,2326.23529 694.59375,2326.86875 694.59375,2327.64706 C694.59375,2328.42537 695.224731,2329.05882 696,2329.05882 C696.775269,2329.05882 697.40625,2328.42537 697.40625,2327.64706 C697.40625,2326.86875 696.775269,2326.23529 696,2326.23529 Z M698.8125,2298 C699.589233,2298 700.21875,2298.63199 700.21875,2299.41176 L700.21875,2299.41176 L700.21875,2300.82353 L711.804199,2300.82353 C712.38501,2299.18015 713.947998,2298 715.78125,2298 C718.107422,2298 720,2299.9 720,2302.23529 C720,2304.57059 718.107422,2306.47059 715.78125,2306.47059 C713.947998,2306.47059 712.38501,2305.29044 711.804199,2303.64706 L711.804199,2303.64706 L706.540283,2303.64706 C711.728027,2306.6489 715.503296,2311.79596 716.696045,2317.88787 C718.536621,2318.34301 719.90625,2320.0136 719.90625,2322 C719.90625,2324.33529 718.013672,2326.23529 715.6875,2326.23529 C713.361328,2326.23529 711.46875,2324.33529 711.46875,2322 C711.46875,2320.3125 712.457153,2318.85294 713.883179,2318.17279 C712.421265,2311.24007 707.0896,2305.7636 700.21875,2304.13824 L700.21875,2304.13824 L700.21875,2305.05882 C700.21875,2305.8386 699.589233,2306.47059 698.8125,2306.47059 L698.8125,2306.47059 L693.1875,2306.47059 C692.410767,2306.47059 691.78125,2305.8386 691.78125,2305.05882 L691.78125,2305.05882 L691.78125,2304.13824 C684.891724,2305.76765 679.556763,2311.25993 678.108032,2318.21507 C679.487915,2318.91213 680.4375,2320.34632 680.4375,2322 C680.4375,2324.33529 678.544922,2326.23529 676.21875,2326.23529 C673.892578,2326.23529 672,2324.33529 672,2322 C672,2319.97831 673.418701,2318.28382 675.308716,2317.86507 C676.526001,2311.67574 680.393188,2306.5875 685.460449,2303.64706 L685.460449,2303.64706 L680.195801,2303.64706 C679.61499,2305.29044 678.052002,2306.47059 676.21875,2306.47059 C673.892578,2306.47059 672,2304.57059 672,2302.23529 C672,2299.9 673.892578,2298 676.21875,2298 C678.052002,2298 679.61499,2299.18015 680.195801,2300.82353 L680.195801,2300.82353 L691.78125,2300.82353 L691.78125,2299.41176 C691.78125,2298.63199 692.410767,2298 693.1875,2298 L693.1875,2298 Z M676.21875,2320.58824 C675.443481,2320.58824 674.8125,2321.22169 674.8125,2322 C674.8125,2322.77831 675.443481,2323.41176 676.21875,2323.41176 C676.994019,2323.41176 677.625,2322.77831 677.625,2322 C677.625,2321.22169 676.994019,2320.58824 676.21875,2320.58824 Z M715.6875,2320.58824 C714.912231,2320.58824 714.28125,2321.22169 714.28125,2322 C714.28125,2322.77831 714.912231,2323.41176 715.6875,2323.41176 C716.462769,2323.41176 717.09375,2322.77831 717.09375,2322 C717.09375,2321.22169 716.462769,2320.58824 715.6875,2320.58824 Z M715.78125,2300.82353 C715.005981,2300.82353 714.375,2301.45699 714.375,2302.23529 C714.375,2303.0136 715.005981,2303.64706 715.78125,2303.64706 C716.556519,2303.64706 717.1875,2303.0136 717.1875,2302.23529 C717.1875,2301.45699 716.556519,2300.82353 715.78125,2300.82353 Z M676.21875,2300.82353 C675.443481,2300.82353 674.8125,2301.45699 674.8125,2302.23529 C674.8125,2303.0136 675.443481,2303.64706 676.21875,2303.64706 C676.994019,2303.64706 677.625,2303.0136 677.625,2302.23529 C677.625,2301.45699 676.994019,2300.82353 676.21875,2300.82353 Z M697.40625,2300.82353 L694.59375,2300.82353 L694.59375,2303.64706 L697.40625,2303.64706 L697.40625,2300.82353 Z" id="ic-new-process-design"></path>
        </g>
    </g>
</svg>