<?xml version="1.0" encoding="UTF-8"?>
<svg width="48px" height="41px" viewBox="0 0 48 41" version="1.1" xmlns="http://www.w3.org/2000/svg" xmlns:xlink="http://www.w3.org/1999/xlink">
    <!-- Generator: Sketch 61.2 (89653) - https://sketch.com -->
    <title>ic-new-process-build</title>
    <desc>Created with Sketch.</desc>
    <g id="Page-1" stroke="none" stroke-width="1" fill="none" fill-rule="evenodd">
        <g id="Home-page-6" transform="translate(-965.000000, -2302.000000)" fill="#4BD965" fill-rule="nonzero">
            <path d="M1011.24731,2302 C1012.21375,2302 1013,2302.78306 1013,2303.74557 L1013,2303.74557 L1013,2341.25443 C1013,2342.21694 1012.21375,2343 1011.24731,2343 L1011.24731,2343 L966.752685,2343 C965.786255,2343 965,2342.21694 965,2341.25443 L965,2341.25443 L965,2303.74557 C965,2302.78306 965.786255,2302 966.752685,2302 L966.752685,2302 Z M1010.18787,2309.69347 L994.176025,2309.7325 L991.861938,2311.88327 C991.539673,2312.18307 991.119263,2312.34793 990.678345,2312.34793 L990.678345,2312.34793 L967.8125,2312.34793 L967.8125,2340.19893 L1010.18787,2340.19893 L1010.18787,2309.69347 Z M981.150269,2319.52021 C981.715332,2318.98954 982.605225,2319.0158 983.138062,2319.5782 C983.670898,2320.14097 983.644897,2321.02761 983.079468,2321.55828 L983.079468,2321.55828 L978.187988,2326.15161 L983.079468,2330.74493 C983.644531,2331.27561 983.670898,2332.16225 983.138062,2332.72465 C982.861206,2333.01679 982.488403,2333.16451 982.114502,2333.16451 C981.768433,2333.16451 981.421997,2333.03795 981.150269,2332.78301 L981.150269,2332.78301 L975.223877,2327.2177 C974.930542,2326.94233 974.762085,2326.5539 974.761719,2326.15234 C974.761719,2325.75078 974.92981,2325.36198 975.222778,2325.08625 L975.222778,2325.08625 Z M990.166016,2319.96955 C990.482056,2319.26272 991.312988,2318.94504 992.022705,2319.2598 C992.732056,2319.57455 993.051392,2320.40211 992.735352,2321.10895 L992.735352,2321.10895 L987.716431,2332.33367 C987.483154,2332.85522 986.96936,2333.16487 986.43103,2333.16487 C986.239868,2333.16487 986.04541,2333.12585 985.859741,2333.04342 C985.150024,2332.72866 984.831055,2331.90111 985.147095,2331.19427 L985.147095,2331.19427 Z M994.861938,2319.5782 C995.394775,2319.0158 996.284668,2318.98954 996.849731,2319.52021 L996.849731,2319.52021 L1002.77612,2325.08552 C1003.07019,2325.36198 1003.23828,2325.75041 1003.23828,2326.15234 C1003.23792,2326.5539 1003.06946,2326.94233 1002.77612,2327.2177 L1002.77612,2327.2177 L996.849731,2332.78301 C996.578003,2333.03795 996.231201,2333.16451 995.885498,2333.16451 C995.511597,2333.16451 995.138794,2333.01679 994.861938,2332.72465 C994.329102,2332.16188 994.355469,2331.27561 994.920532,2330.74493 L994.920532,2330.74493 L999.812012,2326.15161 L994.920532,2321.55792 C994.355469,2321.02761 994.329102,2320.14097 994.861938,2319.5782 Z M1010.1875,2304.80107 L967.8125,2304.80107 L967.8125,2309.54722 L990.253174,2309.54722 L992.566162,2307.39717 C992.888062,2307.09847 993.307007,2306.93361 993.746094,2306.93252 L993.746094,2306.93252 L1010.1875,2306.89276 L1010.1875,2304.80107 Z M975.489929,2305.8078 L975.628174,2305.81464 C975.673218,2305.81938 975.718994,2305.82595 975.764038,2305.83507 C975.809082,2305.84382 975.854126,2305.85476 975.898071,2305.86898 C975.941284,2305.88175 975.985596,2305.8978 976.027344,2305.91457 C976.069824,2305.93245 976.111938,2305.95178 976.152222,2305.9733 C976.192505,2305.99481 976.232056,2306.01816 976.270508,2306.04332 C976.308594,2306.06849 976.346313,2306.09657 976.381104,2306.12575 C976.417725,2306.15456 976.451416,2306.1852 976.484009,2306.21802 C976.516968,2306.24976 976.547729,2306.2844 976.577026,2306.31978 C976.605957,2306.35516 976.633057,2306.39273 976.659424,2306.43102 C976.68396,2306.46822 976.70813,2306.50834 976.729736,2306.54846 C976.751343,2306.58858 976.771118,2306.6298 976.787964,2306.67283 C976.805542,2306.71478 976.821655,2306.75781 976.834839,2306.80158 C976.847656,2306.84462 976.859009,2306.88948 976.86853,2306.93398 C976.878052,2306.97884 976.884277,2307.02479 976.889038,2307.07038 C976.893799,2307.11634 976.89563,2307.16193 976.89563,2307.20788 C976.89563,2307.25347 976.893799,2307.30016 976.889038,2307.34575 C976.884277,2307.39061 976.878052,2307.43656 976.86853,2307.48143 C976.859009,2307.52592 976.848022,2307.57078 976.834839,2307.61491 C976.821655,2307.65759 976.805542,2307.70172 976.787964,2307.74366 C976.771118,2307.78561 976.751343,2307.82755 976.729736,2307.86767 C976.70813,2307.90779 976.68396,2307.94718 976.659424,2307.98547 C976.633057,2308.02377 976.605957,2308.06097 976.577026,2308.09562 C976.548096,2308.131 976.516968,2308.16565 976.484009,2308.19847 C976.451416,2308.23093 976.417725,2308.26193 976.381104,2308.29075 C976.346313,2308.31956 976.308594,2308.34691 976.270508,2308.37208 C976.232056,2308.39725 976.192505,2308.42132 976.152222,2308.44284 C976.111938,2308.46435 976.069824,2308.48405 976.027344,2308.50083 C975.985596,2308.5187 975.941284,2308.53438 975.898071,2308.54751 C975.854126,2308.56064 975.809082,2308.57195 975.764038,2308.58107 C975.718994,2308.59055 975.673218,2308.59711 975.628174,2308.60149 C975.582031,2308.60623 975.535156,2308.60806 975.48938,2308.60806 C975.444336,2308.60806 975.397461,2308.60623 975.351685,2308.60149 C975.305908,2308.59711 975.259766,2308.59055 975.214722,2308.58107 C975.170776,2308.57195 975.125732,2308.56064 975.081787,2308.54751 C975.037476,2308.53438 974.994263,2308.5187 974.952148,2308.50083 C974.910034,2308.48405 974.86792,2308.46435 974.827637,2308.44284 C974.787354,2308.42132 974.74707,2308.39725 974.709351,2308.37208 C974.670898,2308.34691 974.633545,2308.31956 974.598022,2308.29075 C974.562134,2308.26193 974.52771,2308.23093 974.49585,2308.19847 C974.462891,2308.16565 974.432129,2308.131 974.402832,2308.09562 C974.373901,2308.06097 974.345703,2308.02377 974.320435,2307.98547 C974.295166,2307.94718 974.271729,2307.90779 974.250122,2307.86767 C974.228516,2307.82755 974.20874,2307.78561 974.191162,2307.74366 C974.174316,2307.70172 974.158203,2307.65759 974.14502,2307.61491 C974.131104,2307.57078 974.119751,2307.52592 974.111328,2307.48143 C974.102173,2307.43656 974.095581,2307.39097 974.09082,2307.34575 C974.08606,2307.30016 974.08313,2307.25347 974.08313,2307.20788 C974.08313,2307.16193 974.08606,2307.11634 974.09082,2307.07038 C974.095581,2307.02479 974.101807,2306.97884 974.111328,2306.93398 C974.119751,2306.88948 974.131104,2306.84462 974.14502,2306.80158 C974.158203,2306.75781 974.174316,2306.71478 974.191162,2306.67283 C974.209106,2306.6298 974.228516,2306.58858 974.250122,2306.54846 C974.271729,2306.50834 974.295166,2306.46822 974.320435,2306.43102 C974.345703,2306.39273 974.373901,2306.35516 974.402832,2306.31978 C974.432129,2306.2844 974.462891,2306.24976 974.49585,2306.21802 C974.52771,2306.1852 974.562134,2306.15456 974.598022,2306.12575 C974.633545,2306.09657 974.670898,2306.06849 974.709351,2306.04332 C974.74707,2306.01816 974.787354,2305.99481 974.827637,2305.9733 C974.86792,2305.95178 974.910034,2305.93245 974.952148,2305.91457 C974.994263,2305.8978 975.037476,2305.88175 975.081787,2305.86898 C975.125732,2305.85476 975.170776,2305.84382 975.214722,2305.83507 C975.259766,2305.82595 975.305908,2305.81938 975.351685,2305.81464 C975.443604,2305.80552 975.536255,2305.80552 975.628174,2305.81464 Z M970.990158,2305.8078 L971.12854,2305.81464 C971.173584,2305.81938 971.21936,2305.82595 971.264404,2305.83543 C971.309448,2305.84382 971.354492,2305.85512 971.398438,2305.86898 C971.44165,2305.88211 971.485596,2305.8978 971.52771,2305.91457 C971.569824,2305.93245 971.612305,2305.95214 971.652588,2305.97366 C971.692871,2305.99481 971.732422,2306.01816 971.770874,2306.04369 C971.80896,2306.06885 971.84668,2306.09694 971.88147,2306.12466 C971.916992,2306.15456 971.951782,2306.18556 971.984375,2306.21802 C972.017334,2306.24976 972.048096,2306.2844 972.077393,2306.31978 C972.106323,2306.35553 972.133423,2306.39273 972.158691,2306.43102 C972.18396,2306.46822 972.208496,2306.50834 972.230103,2306.54883 C972.251709,2306.58895 972.271118,2306.6298 972.28833,2306.67283 C972.305908,2306.71478 972.322021,2306.75781 972.335205,2306.80158 C972.348022,2306.84571 972.359375,2306.88948 972.368896,2306.93434 C972.378052,2306.9792 972.384644,2307.02479 972.389404,2307.07038 C972.394165,2307.11634 972.395996,2307.16193 972.395996,2307.20788 C972.395996,2307.25347 972.394165,2307.30016 972.389404,2307.34611 C972.384644,2307.39097 972.378052,2307.43656 972.368896,2307.48143 C972.359375,2307.52629 972.348022,2307.57115 972.335205,2307.61491 C972.322021,2307.65795 972.305908,2307.70172 972.28833,2307.74366 C972.271118,2307.78561 972.251709,2307.82791 972.230103,2307.86803 C972.208496,2307.90815 972.18396,2307.94718 972.158691,2307.98547 C972.133423,2308.02377 972.106323,2308.06134 972.077393,2308.09562 C972.048096,2308.13136 972.017334,2308.16565 971.984375,2308.19847 C971.951782,2308.23093 971.916992,2308.26193 971.88147,2308.29075 C971.84668,2308.31992 971.80896,2308.34691 971.770874,2308.37208 C971.732422,2308.39725 971.692871,2308.42168 971.652588,2308.4432 C971.612305,2308.46435 971.569824,2308.48405 971.52771,2308.50083 C971.485596,2308.5187 971.44165,2308.53438 971.398438,2308.54751 C971.354492,2308.56064 971.309448,2308.57195 971.264404,2308.58107 C971.21936,2308.59055 971.173584,2308.59711 971.12854,2308.60186 C971.082397,2308.60623 971.035522,2308.60842 970.989746,2308.60842 C970.943604,2308.60842 970.897827,2308.60623 970.852051,2308.60186 C970.805908,2308.59711 970.760132,2308.59055 970.715088,2308.58107 C970.670044,2308.57195 970.626099,2308.56064 970.581787,2308.54751 C970.537842,2308.53438 970.494629,2308.5187 970.452515,2308.50083 C970.4104,2308.48405 970.368286,2308.46435 970.328003,2308.4432 C970.28772,2308.42168 970.24707,2308.39725 970.209717,2308.37208 C970.171265,2308.34691 970.133911,2308.31992 970.098022,2308.29075 C970.0625,2308.26193 970.02771,2308.23093 969.99585,2308.19847 C969.733643,2307.93697 969.583496,2307.57662 969.583496,2307.20788 C969.583496,2307.16193 969.586426,2307.11634 969.591187,2307.07038 C969.595947,2307.02479 969.602173,2306.9792 969.611694,2306.93434 C969.620117,2306.88948 969.63147,2306.84571 969.645386,2306.80158 C969.658569,2306.75781 969.674316,2306.71478 969.691162,2306.67283 C969.709106,2306.6298 969.728882,2306.58895 969.750488,2306.54883 C969.772095,2306.50834 969.795532,2306.46822 969.820801,2306.43102 C969.846069,2306.39273 969.874268,2306.35553 969.903198,2306.31978 C969.932129,2306.2844 969.963257,2306.24976 969.99585,2306.21802 C970.02771,2306.18556 970.0625,2306.15456 970.098022,2306.12466 C970.133911,2306.09694 970.171265,2306.06885 970.209717,2306.04369 C970.247437,2306.01816 970.28772,2305.99481 970.328003,2305.97366 C970.368286,2305.95214 970.4104,2305.93245 970.452515,2305.91457 C970.494629,2305.8978 970.537842,2305.88211 970.581787,2305.86898 C970.626099,2305.85512 970.670044,2305.84382 970.715088,2305.83543 C970.760132,2305.82595 970.805908,2305.81938 970.852051,2305.81464 C970.943604,2305.80552 971.036621,2305.80552 971.12854,2305.81464 Z M980.08345,2305.8078 L980.221558,2305.81464 C980.2677,2305.81938 980.312744,2305.82595 980.358521,2305.83507 C980.402832,2305.84382 980.44751,2305.85585 980.491821,2305.86898 C980.535767,2305.88175 980.578979,2305.8978 980.621094,2305.91457 C980.663208,2305.93245 980.705322,2305.95178 980.745605,2305.9733 C980.786255,2305.99481 980.826538,2306.01816 980.863892,2306.04332 C980.902344,2306.06849 980.939697,2306.09657 980.975586,2306.12575 C981.011108,2306.15456 981.045898,2306.1852 981.077759,2306.21802 C981.110352,2306.24976 981.141479,2306.2844 981.17041,2306.31978 C981.199707,2306.35516 981.226807,2306.39273 981.252808,2306.43102 C981.277344,2306.46822 981.30188,2306.50834 981.32312,2306.54846 C981.344727,2306.58858 981.364502,2306.63089 981.381348,2306.67283 C981.399292,2306.71478 981.415039,2306.75781 981.428223,2306.80158 C981.441406,2306.84535 981.452393,2306.88948 981.461914,2306.93398 C981.471435,2306.97884 981.478027,2307.02479 981.482422,2307.07038 C981.487183,2307.11634 981.489014,2307.16193 981.489014,2307.20788 C981.489014,2307.25347 981.487183,2307.30016 981.482422,2307.34575 C981.478027,2307.39061 981.471435,2307.43656 981.461914,2307.48143 C981.452393,2307.52592 981.441406,2307.57078 981.428223,2307.61491 C981.415039,2307.65759 981.399292,2307.70172 981.381348,2307.74366 C981.364502,2307.78561 981.344727,2307.82755 981.32312,2307.86767 C981.30188,2307.90779 981.277344,2307.94718 981.252808,2307.98547 C981.226807,2308.02377 981.199707,2308.06097 981.17041,2308.09562 C981.141479,2308.131 981.110352,2308.16565 981.077759,2308.19847 C981.045898,2308.23093 981.011108,2308.26193 980.975586,2308.29075 C980.939697,2308.31956 980.902344,2308.34691 980.863892,2308.37208 C980.826172,2308.39725 980.786255,2308.42132 980.745605,2308.44284 C980.705322,2308.46435 980.663208,2308.48405 980.621094,2308.50083 C980.578979,2308.5187 980.535767,2308.53438 980.491821,2308.54751 C980.44751,2308.56064 980.402832,2308.57195 980.358521,2308.58107 C980.312744,2308.59055 980.2677,2308.59711 980.221558,2308.60149 C980.175781,2308.60623 980.128906,2308.60806 980.08313,2308.60806 C980.038086,2308.60806 979.991211,2308.60623 979.945068,2308.60149 C979.899292,2308.59711 979.853149,2308.59055 979.808105,2308.58107 C979.76416,2308.57195 979.719482,2308.56064 979.675171,2308.54751 C979.631226,2308.53438 979.588013,2308.5187 979.545898,2308.50083 C979.503418,2308.48405 979.46167,2308.46435 979.421021,2308.44284 C979.380737,2308.42132 979.340454,2308.39725 979.303101,2308.37208 C979.264648,2308.34691 979.227295,2308.31956 979.191406,2308.29075 C979.155884,2308.26193 979.121094,2308.23093 979.089233,2308.19847 C979.056641,2308.16565 979.025513,2308.131 978.996582,2308.09562 C978.967285,2308.06097 978.939453,2308.02377 978.913818,2307.98547 C978.88855,2307.94718 978.865112,2307.90779 978.843506,2307.86767 C978.821899,2307.82755 978.80249,2307.78561 978.784546,2307.74366 C978.7677,2307.70172 978.751953,2307.65759 978.73877,2307.61491 C978.724487,2307.57078 978.713501,2307.52592 978.705078,2307.48143 C978.695557,2307.43656 978.688965,2307.39097 978.684204,2307.34575 C978.679443,2307.30016 978.67688,2307.25347 978.67688,2307.20788 C978.67688,2307.16193 978.679443,2307.11634 978.684204,2307.07038 C978.688965,2307.02479 978.695557,2306.97884 978.705078,2306.93398 C978.713501,2306.88948 978.724487,2306.84535 978.73877,2306.80158 C978.751587,2306.75781 978.7677,2306.71478 978.784546,2306.67283 C978.80249,2306.63089 978.822266,2306.58858 978.843506,2306.54846 C978.865112,2306.50834 978.88855,2306.46822 978.913818,2306.43102 C978.939453,2306.39273 978.967285,2306.35516 978.996582,2306.31978 C979.025513,2306.2844 979.056274,2306.24976 979.089233,2306.21802 C979.121094,2306.1852 979.155884,2306.15456 979.191406,2306.12575 C979.226929,2306.09657 979.264648,2306.06849 979.303101,2306.04332 C979.340454,2306.01816 979.380737,2305.99481 979.421021,2305.9733 C979.46167,2305.95178 979.503418,2305.93245 979.545898,2305.91457 C979.588013,2305.8978 979.631226,2305.88175 979.675171,2305.86898 C979.719482,2305.85585 979.76416,2305.84382 979.808105,2305.83507 C979.853516,2305.82595 979.899292,2305.81938 979.945068,2305.81464 C980.036987,2305.80552 980.130005,2305.80552 980.221558,2305.81464 Z" id="ic-new-process-build"></path>
        </g>
    </g>
</svg>