<?xml version="1.0" encoding="UTF-8"?>
<svg width="300px" height="219px" viewBox="0 0 300 219" version="1.1" xmlns="http://www.w3.org/2000/svg" xmlns:xlink="http://www.w3.org/1999/xlink">
    <!-- Generator: Sketch 61.2 (89653) - https://sketch.com -->
    <title>landing-page-graphics-feature-9</title>
    <desc>Created with Sketch.</desc>
    <defs>
        <linearGradient x1="50.0005818%" y1="100%" x2="50.0005818%" y2="1.14327069e-15%" id="linearGradient-1">
            <stop stop-color="#808080" stop-opacity="0.25" offset="0%"></stop>
            <stop stop-color="#808080" stop-opacity="0.12" offset="54%"></stop>
            <stop stop-color="#808080" stop-opacity="0.1" offset="100%"></stop>
        </linearGradient>
        <linearGradient x1="50.0880863%" y1="99.9897113%" x2="50.0880863%" y2="-0.0330662392%" id="linearGradient-2">
            <stop stop-color="#808080" stop-opacity="0.25" offset="0%"></stop>
            <stop stop-color="#808080" stop-opacity="0.12" offset="54%"></stop>
            <stop stop-color="#808080" stop-opacity="0.1" offset="100%"></stop>
        </linearGradient>
        <linearGradient x1="49.9531835%" y1="100.017068%" x2="49.9531835%" y2="-0.034135518%" id="linearGradient-3">
            <stop stop-color="#808080" stop-opacity="0.25" offset="0%"></stop>
            <stop stop-color="#808080" stop-opacity="0.12" offset="54%"></stop>
            <stop stop-color="#808080" stop-opacity="0.1" offset="100%"></stop>
        </linearGradient>
        <linearGradient x1="50.0000117%" y1="99.9998312%" x2="50.0000117%" y2="-0.00256358421%" id="linearGradient-4">
            <stop stop-color="#808080" stop-opacity="0.25" offset="0%"></stop>
            <stop stop-color="#808080" stop-opacity="0.12" offset="54%"></stop>
            <stop stop-color="#808080" stop-opacity="0.1" offset="100%"></stop>
        </linearGradient>
    </defs>
    <g id="Page-1" stroke="none" stroke-width="1" fill="none" fill-rule="evenodd">
        <g id="Tech" transform="translate(-1419.000000, -598.000000)">
            <g id="landing-page-graphics-feature-9" transform="translate(1419.000000, 598.000000)">
                <g id="Group" opacity="0.1" transform="translate(0.000000, 17.011649)" fill="#F13C31" fill-rule="nonzero">
                    <path d="M18.4575342,15.7412631 C21.2520548,20.6115336 19.7041096,26.933282 16.6684932,31.6553865 C13.6328767,36.3774911 9.31506849,40.1255415 5.95068493,44.6308848 C-0.736986301,53.6196207 -2.46575342,67.8133725 5.96712329,75.1997208 C7.78356164,76.7911331 10.030137,78.0505439 11.1369863,80.1962068 C12.6657534,83.1567825 11.5342466,86.7237412 10.3808219,89.8599211 L10.2849315,90.1178396 C5.9260274,101.951911 12.3479452,115.067344 24.3835616,118.779725 C31.0438356,120.834842 37.0547945,124.165832 41.5041096,129.55194 C45.3917808,134.260325 47.6383562,140.06898 50.2027397,145.611486 C54.8383562,155.623664 60.8219178,165.196833 69.090411,172.487147 C77.3589041,179.777462 88.1479452,184.609319 99.1616438,184.211466 C124.317808,183.303264 142.841096,156.773322 167.972603,155.376721 C169.783562,155.2752 171.712329,155.343795 173.227397,156.342544 C175.364384,157.752864 176.019178,160.521373 176.917808,162.927698 C181.676712,175.667228 196.005479,181.538991 208.835616,186.000433 L232.945205,194.391018 C246.041096,198.945749 259.794521,203.569077 273.493151,201.459083 C287.191781,199.34909 300.567123,188.082988 299.972603,174.210263 C299.484932,162.815202 290.054795,152.78656 291.290411,141.446375 C292.145205,133.610041 298.005479,127.027631 298.986301,119.205016 C300.008219,111.064119 295.564384,103.246991 290.449315,96.837441 C275.731507,78.3880331 254.756164,66.2274478 234.284932,54.4976413 C219.865753,46.2332724 205.372603,37.9359777 189.849315,31.9983633 C151.580822,17.398527 109.520548,18.0268605 68.7534247,14.042842 C61.7424658,13.3568884 54.4136986,12.550207 47.9890411,9.44695292 C43.0575342,7.06532204 39.2027397,1.55848657 33.7917808,0.392365457 C29.6684932,-0.496630403 23.569863,1.33898142 19.969863,3.34470973 C13.4082192,7.02690864 15.2164384,10.0917493 18.4575342,15.7412631 Z" id="Shape"></path>
                </g>
                <path d="M270.923288,0 L50.7342466,0 C48.6982723,0.0087093455 46.7492663,0.827632174 45.3165561,2.27637591 C43.8838459,3.72511964 43.0849647,5.6848358 43.0957798,7.72383749 L43.0957798,162.804226 C43.0849647,164.843228 43.8838459,166.802944 45.3165561,168.251688 C46.7492663,169.700432 48.6982723,170.519355 50.7342466,170.528064 L270.923288,170.528064 C272.959262,170.519355 274.908268,169.700432 276.340978,168.251688 C277.773688,166.802944 278.57257,164.843228 278.561754,162.804226 L278.561754,7.72383749 C278.57257,5.6848358 277.773688,3.72511964 276.340978,2.27637591 C274.908268,0.827632174 272.959262,0.0087093455 270.923288,0 Z" id="Shape" fill="url(#linearGradient-1)" fill-rule="nonzero"></path>
                <path d="M277.567123,16.4299605 L277.567123,160.954896 C277.567123,165.143369 274.176754,168.538798 269.994521,168.538798 L51.7506849,168.538798 C47.5684519,168.538798 44.1780822,165.143369 44.1780822,160.954896 L44.1780822,16.4299605 L277.567123,16.4299605 Z" id="Shape" fill="#F6F7F9" fill-rule="nonzero"></path>
                <path d="M101.189041,90.9217772 L101.189041,168.536055 L51.7506849,168.536055 C47.569863,168.536055 44.1780822,165.073361 44.1780822,160.803986 L44.1780822,90.9217772 L101.189041,90.9217772 Z" id="Shape" fill="#DDE1EC" fill-rule="nonzero"></path>
                <polygon id="Rectangle-path" fill="#DDE1EC" fill-rule="nonzero" points="118.115068 34.1248195 213.134247 34.1248195 213.134247 36.8000385 118.115068 36.8000385"></polygon>
                <rect id="Rectangle-path" fill="#DDE1EC" fill-rule="nonzero" x="118.115068" y="53.155916" width="57.3068493" height="2.67521902"></rect>
                <polygon id="Rectangle-path" fill="#DDE1EC" fill-rule="nonzero" points="188.191781 53.155916 207.493151 53.155916 207.493151 55.8311351 188.191781 55.8311351"></polygon>
                <g id="Group" opacity="0.1" transform="translate(61.643836, 119.904689)" fill="#F13C31" fill-rule="nonzero">
                    <polygon id="Rectangle-path" points="0.0520547945 0.0109752575 19.3534247 0.0109752575 19.3534247 2.68619428 0.0520547945 2.68619428"></polygon>
                </g>
                <polygon id="Rectangle-path" fill="#DDE1EC" fill-rule="nonzero" points="188.191781 78.1356022 207.493151 78.1356022 207.493151 80.8108212 188.191781 80.8108212"></polygon>
                <polygon id="Rectangle-path" fill="#DDE1EC" fill-rule="nonzero" points="188.191781 103.115288 207.493151 103.115288 207.493151 105.790507 188.191781 105.790507"></polygon>
                <polygon id="Rectangle-path" fill="#DDE1EC" fill-rule="nonzero" points="188.191781 61.4833927 207.493151 61.4833927 207.493151 64.1586117 188.191781 64.1586117"></polygon>
                <polygon id="Rectangle-path" fill="#DDE1EC" fill-rule="nonzero" points="221.446575 61.4833927 240.747945 61.4833927 240.747945 64.1586117 221.446575 64.1586117"></polygon>
                <polygon id="Rectangle-path" fill="#DDE1EC" fill-rule="nonzero" points="188.191781 69.8081255 207.493151 69.8081255 207.493151 72.4833446 188.191781 72.4833446"></polygon>
                <polygon id="Rectangle-path" fill="#DDE1EC" fill-rule="nonzero" points="221.446575 69.8081255 240.747945 69.8081255 240.747945 72.4833446 221.446575 72.4833446"></polygon>
                <polygon id="Rectangle-path" fill="#DDE1EC" fill-rule="nonzero" points="221.446575 85.2722634 240.747945 85.2722634 240.747945 87.9474824 221.446575 87.9474824"></polygon>
                <polygon id="Rectangle-path" fill="#DDE1EC" fill-rule="nonzero" points="221.446575 93.5997401 240.747945 93.5997401 240.747945 96.2749591 221.446575 96.2749591"></polygon>
                <polygon id="Rectangle-path" fill="#DDE1EC" fill-rule="nonzero" points="221.446575 111.442765 240.747945 111.442765 240.747945 114.117984 221.446575 114.117984"></polygon>
                <rect id="Rectangle-path" fill="#DDE1EC" fill-rule="nonzero" x="118.115068" y="61.4833927" width="57.3068493" height="2.67521902"></rect>
                <rect id="Rectangle-path" fill="#DDE1EC" fill-rule="nonzero" x="118.115068" y="69.8081255" width="57.3068493" height="2.67521902"></rect>
                <rect id="Rectangle-path" fill="#DDE1EC" fill-rule="nonzero" x="118.115068" y="78.1356022" width="57.3068493" height="2.67521902"></rect>
                <rect id="Rectangle-path" fill="#DDE1EC" fill-rule="nonzero" x="118.115068" y="86.4630788" width="57.3068493" height="2.67521902"></rect>
                <rect id="Rectangle-path" fill="#DDE1EC" fill-rule="nonzero" x="118.115068" y="94.7878117" width="57.3068493" height="2.67521902"></rect>
                <rect id="Rectangle-path" fill="#DDE1EC" fill-rule="nonzero" x="118.115068" y="103.115288" width="57.3068493" height="2.67521902"></rect>
                <rect id="Rectangle-path" fill="#DDE1EC" fill-rule="nonzero" x="118.115068" y="111.442765" width="57.3068493" height="2.67521902"></rect>
                <polygon id="Rectangle-path" fill="#F13C31" fill-rule="nonzero" points="44.1780822 16.2817946 101.189041 16.2817946 101.189041 92.4089246 44.1780822 92.4089246"></polygon>
                <path d="M277.567123,8.6978916 C277.567123,4.51048921 274.175684,1.11673245 269.994521,1.11673245 L51.7506849,1.11673245 C47.5684519,1.11673245 44.1780822,4.51216146 44.1780822,8.70063541 L44.1780822,17.324444 L277.567123,17.324444 L277.567123,8.6978916 Z" id="Shape" fill="#E8EAF1" fill-rule="nonzero"></path>
                <ellipse id="Oval" fill="#FF5252" fill-rule="nonzero" cx="53.3835616" cy="9.14513334" rx="2.96986301" ry="2.97429479"></ellipse>
                <ellipse id="Oval" fill="#FFFF00" fill-rule="nonzero" cx="63.1808219" cy="9.14513334" rx="2.96986301" ry="2.97429479"></ellipse>
                <ellipse id="Oval" fill="#69F0AE" fill-rule="nonzero" cx="72.9808219" cy="9.14513334" rx="2.96986301" ry="2.97429479"></ellipse>
                <path d="M89.3150837,54.3467315 C89.3202332,58.1605935 88.0119908,61.8595674 85.6109589,64.819871 C85.5205479,64.9323674 85.430137,65.04212 85.3369863,65.1518725 L85.3369863,65.1518725 C85.3188345,65.1705265 85.3023342,65.1907237 85.2876712,65.2122364 C84.4370384,66.1981754 83.4743546,67.0812618 82.4191781,67.8435544 L82.2821918,67.9450756 C82.0931507,68.0795225 81.9013699,68.219457 81.7068493,68.3346972 L81.5726027,68.4197555 L81.2849315,68.5981034 C81.2423999,68.6250508 81.1985057,68.6497781 81.1534247,68.6721864 C81.1177444,68.6978282 81.0801964,68.7207575 81.0410959,68.7407817 C80.6191781,68.987725 80.1835616,69.2154616 79.7369863,69.4239915 C79.6876712,69.4514297 79.6328767,69.4733802 79.5808219,69.4980745 C79.5287671,69.5227688 79.4684932,69.5529508 79.4082192,69.5749013 C79.3479452,69.5968518 79.230137,69.6544719 79.1342466,69.6901415 C78.1774076,70.0957939 77.1837784,70.4082021 76.1671233,70.6230384 C75.1980909,70.8307843 74.2124079,70.9510793 73.2219178,70.982577 L73.0712329,70.982577 L72.6794521,70.982577 C71.3723191,70.9869941 70.0692283,70.8368736 68.7972603,70.5352364 L68.5589041,70.4776163 C68,70.3312795 67.4520548,70.161163 66.9150685,69.9672668 C66.5890411,69.8465389 66.2657534,69.7148359 65.9506849,69.5749013 C65.8712329,69.5392317 65.7945205,69.506306 65.7150685,69.4678926 L65.4767123,69.3608838 L65.2684932,69.253875 L65.2684932,69.253875 L65.0493151,69.1413786 L64.8054795,69.0124194 L64.5315068,68.856022 L64.4876712,68.8313276 C63.3198105,68.1676063 62.2361802,67.3651865 61.260274,66.4414653 C61.1780822,66.3618947 61.0931507,66.2850679 61.0136986,66.2000096 C60.9342466,66.1149514 60.8410959,66.0298931 60.7589041,65.9420911 C55.5368146,60.5562695 54.5588169,52.3369668 58.370922,45.8729747 C62.183027,39.4089826 69.8425226,36.2988098 77.0731543,38.2788487 C84.3037861,40.2588877 89.3174596,46.8394859 89.3150837,54.3467315 L89.3150837,54.3467315 Z" id="Shape" fill="#FFFFFF" fill-rule="nonzero"></path>
                <path d="M84.3835616,60.2788582 C84.3490313,60.5269403 84.2949818,60.7719021 84.2219178,61.0114566 C84.2131831,61.0489884 84.2012677,61.0857057 84.1863014,61.1212092 C84.1863014,61.0169443 84.1671233,60.9071917 84.1616438,60.7892077 L84.1616438,60.7892077 C84.0794521,59.5682103 84.0082192,57.6393088 84.2547945,56.497882 C84.4876712,55.4250505 82.7917808,55.7515645 81.660274,56.7118995 L81.660274,56.7118995 C81.3295781,56.9817822 81.0605154,57.3195481 80.8712329,57.7024165 C80.8465753,57.6694907 80.8219178,57.6393088 80.7945205,57.606383 C80.244546,56.9240325 79.42326,56.5177921 78.5479452,56.4951382 C76.7601,56.3782432 75.0700067,55.636328 73.7726027,54.398864 C73.7178082,54.176615 73.6767123,53.9571098 73.6438356,53.7348609 C73.6438356,53.6662655 73.6219178,53.5949264 73.6136986,53.526331 C74.2464389,52.9596043 74.6893777,52.2113291 74.8821918,51.383412 C74.8821918,51.383412 74.8821918,51.3614614 74.8821918,51.3504862 C74.9504406,51.0516301 74.9853575,50.746111 74.9863014,50.4395398 C74.9863014,50.3133243 74.9863014,50.1925965 74.9726027,50.0718687 C74.9726027,50.0279677 74.9726027,49.9813228 74.9589041,49.9374218 C74.9452055,49.8935207 74.9589041,49.8331568 74.9369863,49.7837682 C75.0057507,49.7532073 75.0725468,49.7183849 75.1369863,49.6795032 C75.5263626,49.4398132 75.8354449,49.0891883 76.0246575,48.6725233 L76.0246575,48.6505728 C76.0928054,48.5026747 76.151374,48.3505356 76.2,48.1950996 C76.3333831,47.7492585 76.4097913,47.2882812 76.4273973,46.8231925 C76.4273973,46.7655724 76.4273973,46.7079522 76.4273973,46.6448445 C76.4273973,46.2854048 76.3561644,45.8354193 76.0054795,45.7613363 C75.5424658,45.662559 75.2054795,46.3622316 74.7369863,46.2881486 C74.5947158,46.253606 74.4665268,46.176003 74.369863,46.0658997 C74.0520548,45.750361 73.8383562,45.3442765 73.5205479,45.025994 C73.0241675,44.5651734 72.3826571,44.2924643 71.7068493,44.2549822 C71.0366062,44.2180488 70.3645822,44.2799894 69.7123288,44.4388178 C69.3521711,44.499033 69.004227,44.6176588 68.6821918,44.790026 C68.3605978,44.9662632 68.134497,45.2772383 68.0657534,45.6378646 C68.0582551,45.7154247 68.0582551,45.7935288 68.0657534,45.8710889 C68.0657534,45.9863291 68.0657534,46.1070569 68.0657534,46.2250409 C68.0622694,46.2756722 68.055866,46.3260595 68.0465753,46.3759507 C67.9479291,46.704452 67.7192085,46.9781364 67.4136986,47.1332435 C67.1232877,47.3061038 66.8,47.4268316 66.5232877,47.6243863 C66.0832651,47.9646725 65.7791365,48.4512258 65.6657534,48.9962934 C65.5938518,49.3009024 65.5616206,49.6135507 65.569863,49.9264465 C65.5660054,50.2088814 65.5815673,50.4912473 65.6164384,50.7715413 C65.7336872,51.7143259 65.9980977,52.6328106 66.4,53.4934052 C66.5086489,53.7333948 66.6388656,53.9629915 66.7890411,54.1793588 C66.7890411,54.1793588 66.7890411,54.1793588 66.7890411,54.1793588 C66.8273973,54.2342351 66.8657534,54.2836238 66.9068493,54.3302686 C67.1652539,54.6203202 67.4631561,54.8724832 67.7917808,55.0793299 L67.9808219,55.2082892 C68.1098352,55.3191283 68.2829062,55.3637276 68.4493151,55.329017 C68.5010259,55.309666 68.5491693,55.2818495 68.5917808,55.2467026 C68.8281799,55.0236592 68.953615,54.707091 68.9342466,54.3824011 L68.9342466,54.3385 C68.9355686,54.3540201 68.9355686,54.3696248 68.9342466,54.3851449 C68.9357213,54.4061549 68.9357213,54.4272426 68.9342466,54.4482526 L68.9616438,54.4482526 C68.968871,54.5880936 68.968871,54.7282153 68.9616438,54.8680562 C68.9647862,54.9247181 68.9647862,54.9815109 68.9616438,55.0381727 C68.9616438,55.0710985 68.9616438,55.1040243 68.9616438,55.1342062 L68.9178082,55.1726196 L68.9178082,55.1726196 C68.8273973,55.2494464 68.6630137,55.3838933 68.4356164,55.5622413 L68.4356164,55.5622413 C67.4889261,56.2993643 66.4545337,56.915949 65.3561644,57.3978531 C64.1356425,57.9048117 63.2085726,58.9360905 62.8328767,60.2047752 C62.5622508,61.1246693 62.1589062,62.0000408 61.6356164,62.8031674 C61.5041096,62.9952344 61.1424658,64.4494561 60.7205479,65.9420911 C60.8027397,66.032637 60.890411,66.1176952 60.9753425,66.2000096 C61.060274,66.2823241 61.139726,66.3618947 61.2219178,66.4414653 C62.197824,67.3651865 63.2814543,68.1676063 64.4493151,68.8313276 L64.4931507,68.856022 L64.7671233,69.0124194 L65.0109589,69.1413786 C65.0109589,68.9355926 64.9835616,68.7462694 64.969863,68.5679214 C64.969863,68.4609127 64.9534247,68.3593915 64.9424658,68.2606142 C65.0054795,68.1563493 65.060274,68.0630596 65.1123288,67.9862328 C65.1123288,68.0658034 65.1315068,68.1536055 65.139726,68.2606142 L65.139726,68.2606142 C65.169863,68.5349957 65.2,68.8724848 65.2328767,69.2593627 C65.2328767,69.3819197 65.2420091,69.5099644 65.260274,69.6434967 C65.260274,69.5090498 65.2465753,69.3691152 65.2356164,69.2593627 L65.4438356,69.3663714 L65.6821918,69.4733802 C65.7589041,69.5117936 65.8356164,69.5447194 65.9178082,69.5803889 C66.2328767,69.7203235 66.5561644,69.8547704 66.8821918,69.9727544 C67.4136986,70.1684798 67.9616438,70.3385963 68.5260274,70.4831039 L68.7643836,70.540724 C70.0376935,70.8464861 71.3426548,71.0002943 72.6520548,70.9989498 L73.0438356,70.9989498 L73.1945205,70.9989498 C74.1936026,70.9654104 75.1876076,70.8414335 76.1643836,70.628526 C77.1810387,70.4136897 78.1746678,70.1012816 79.1315068,69.6956292 C79.2210046,69.659045 79.3123288,69.6206316 79.4054795,69.5803889 C79.4657534,69.5556946 79.5205479,69.5310003 79.5780822,69.5035621 C79.6356164,69.476124 79.6849315,69.4569173 79.7342466,69.4294792 C79.460274,68.4664003 79.3123288,67.8490421 79.3123288,67.8490421 L79.6739726,66.918889 L79.7178082,66.8063926 L79.8273973,66.5182921 L79.8273973,66.5182921 C79.8273973,66.5539617 79.8438356,66.5896313 79.8575342,66.6253009 L79.8575342,66.6253009 C80.0845093,67.41831 80.5309338,68.1308012 81.1452055,68.6804178 C81.1902865,68.6580096 81.2341807,68.6332822 81.2767123,68.6063348 L81.5643836,68.4279869 L81.6986301,68.3429287 C81.8958904,68.2139694 82.0849315,68.0877539 82.2739726,67.953307 L82.4109589,67.8517859 C83.4661355,67.0894932 84.4288192,66.2064069 85.2794521,65.2204679 L85.3287671,65.160104 L85.3287671,65.160104 C85.4219178,65.0503514 85.5123288,64.9405988 85.6027397,64.8281024 L84.3835616,60.2788582 Z M81.9945205,61.5300375 C82.0038176,61.5430793 82.0120629,61.5568419 82.0191781,61.5711948 L81.9972603,61.5519881 L81.9945205,61.5300375 Z" id="Shape" fill="url(#linearGradient-2)" fill-rule="nonzero"></path>
                <path d="M82.0383562,61.0169443 L82.0383562,61.0388948 L82.0575342,61.0581015 C82.0520548,61.0416386 82.0438356,61.0306633 82.0383562,61.0169443 Z M65.2821918,69.2483874 C65.2547945,68.8642534 65.2273973,68.5185328 65.2027397,68.2222008 C65.1835616,68.0136709 65.1643836,67.8270916 65.1479452,67.673438 C65.1463011,67.6662137 65.1463011,67.6587116 65.1479452,67.6514874 C65.1479452,67.613074 65.1479452,67.5774044 65.1479452,67.5417349 C64.8838939,67.9454259 64.6669509,68.3781182 64.5013699,68.8313276 L64.5452055,68.856022 L64.8191781,69.0124194 L65.0630137,69.1413786 L65.2821918,69.253875 C65.2821918,69.3764321 65.2913242,69.5044767 65.309589,69.638009 C65.2958904,69.506306 65.290411,69.3800905 65.2821918,69.2566189 L65.2821918,69.2483874 Z M68.9287671,53.5620006 L68.9287671,53.5620006 L68.9287671,53.5620006 L68.9424658,53.5866949 L68.9424658,53.5866949 C68.9434443,53.5930596 68.9434443,53.5995369 68.9424658,53.6059016 C68.9400737,53.5932849 68.9354335,53.5812023 68.9287671,53.570232 L68.9287671,53.5620006 Z" id="Shape" fill="url(#linearGradient-3)" fill-rule="nonzero"></path>
                <path d="M73.6986301,50.7605661 C73.6986301,50.7605661 72.709589,55.211033 75.4273973,57.5624819 C78.1452055,59.9139309 69.0082192,61.7550303 67.3972603,59.7877154 C65.7863014,57.8204005 68.5150685,56.8161644 68.5150685,56.8161644 C68.5150685,56.8161644 69.8849315,55.7021758 68.5150685,52.3656975 L73.6986301,50.7605661 Z" id="Shape" fill="#E0A17E" fill-rule="nonzero"></path>
                <path d="M76.1643836,70.628526 C75.1953512,70.8362719 74.2096682,70.9565669 73.2191781,70.9879961 L73.0684932,70.9879961 L72.6767123,70.9879961 C71.3702785,70.9904679 70.068117,70.8385065 68.7972603,70.5352364 L68.5589041,70.4776163 C68,70.3312795 67.4520548,70.161163 66.9150685,69.9672668 L66.6410959,65.8515452 L67.830137,60.1526427 L68.5287671,56.7942139 L68.7260274,55.8558294 L68.9260274,56.1302108 L68.969863,56.1905748 L69.0246575,56.2619139 L71.2164384,59.1840762 L73.460274,56.764032 L73.5753425,56.6378165 L74.1917808,55.9710696 L74.4246575,55.7213825 L74.5342466,56.5692211 L74.9287671,59.6175989 L75.660274,65.2396746 L76.1643836,70.628526 Z" id="Shape" fill="#F0F1F5" fill-rule="nonzero"></path>
                <path d="M82.2794521,67.9450756 C82.090411,68.0795225 81.8986301,68.219457 81.7041096,68.3346972 L81.569863,68.4197555 L81.2821918,68.5981034 C81.2396602,68.6250508 81.195766,68.6497781 81.1506849,68.6721864 C81.1150047,68.6978282 81.0774567,68.7207575 81.0383562,68.7407817 C80.4347306,68.22519 79.9813281,67.5559212 79.7260274,66.8036488 C79.6937969,66.7081363 79.6663653,66.6110665 79.6438356,66.5128045 C79.6425136,66.4972844 79.6425136,66.4816797 79.6438356,66.4661596 L79.4876712,66.8777318 L79.0082192,68.0658034 C79.0082192,68.0658034 79.1506849,68.6474921 79.4054795,69.5694137 C79.3159817,69.6114855 79.2246575,69.6498989 79.1315068,69.6846539 C78.1746678,70.0903063 77.1810387,70.4027145 76.1643836,70.6175508 C75.1953512,70.8252967 74.2096682,70.9455917 73.2191781,70.9769905 L73.0684932,70.9769905 C72.9299733,69.7015552 72.8814511,68.4179235 72.9232877,67.1356503 L73.2849315,60.2294695 L73.4684932,56.7448253 L73.569863,54.8241552 C73.569863,54.8241552 73.6054795,54.8625686 73.6739726,54.9256763 C73.7424658,54.9887841 73.7890411,55.0354289 73.8712329,55.1095119 L73.8712329,55.1095119 C75.0940459,56.1795295 76.6344456,56.8168568 78.2547945,56.9231732 C79.1618782,56.9493147 80.0048437,57.3978084 80.5342466,58.1359392 C81.0293848,58.8410427 81.3479314,59.6550661 81.4630137,60.5093386 L81.5452055,61.2638876 C81.5452055,61.2638876 81.5452055,61.2638876 81.5452055,61.2638876 L81.5671233,61.4779051 L81.5972603,61.7522865 L82.2794521,67.9450756 Z" id="Shape" fill="#000000" fill-rule="nonzero" opacity="0.1"></path>
                <path d="M82.4164384,67.8462983 L82.2794521,67.9478194 C82.090411,68.0822663 81.8986301,68.2222008 81.7041096,68.337441 L81.569863,68.4224993 L81.2821918,68.6008472 C80.637962,68.0821243 80.1472789,67.3971786 79.8630137,66.6198132 L79.8630137,66.6198132 C79.8498131,66.5876788 79.8388284,66.5546756 79.830137,66.5210359 C79.8,66.4250024 79.7726027,66.3234813 79.7506849,66.224704 L79.6383562,66.5182921 L79.4849315,66.9161452 L79.1342466,67.8325792 C79.1342466,67.8325792 79.2958904,68.4910946 79.5808219,69.506306 C79.5232877,69.5337441 79.4684932,69.5611822 79.4082192,69.5831328 C79.3479452,69.6050833 79.230137,69.6627034 79.1342466,69.698373 C78.1774076,70.1040254 77.1837784,70.4164335 76.1671233,70.6312699 C75.1980909,70.8390157 74.2124079,70.9593108 73.2219178,70.9907095 C73.0620616,69.6323765 73.0043648,68.2639324 73.0493151,66.8969385 L73.4,60.2047752 L73.5863014,56.6378165 L73.6767123,54.9558583 L73.6931507,54.6073939 C73.7077278,54.6238634 73.723281,54.6394398 73.739726,54.6540387 C75.0018492,55.8674378 76.6514128,56.5953006 78.3972603,56.7091557 C79.2912614,56.7349128 80.1237632,57.1710095 80.6547945,57.8917397 C81.1636885,58.6030107 81.4910201,59.428213 81.6082192,60.2953211 L81.7534247,61.6480216 L81.7534247,61.6672283 L81.7534247,61.6672283 L81.7835616,61.9416097 L82.4164384,67.8462983 Z" id="Shape" fill="#293158" fill-rule="nonzero"></path>
                <path d="M69.0958904,55.4442572 L69.0958904,55.6116299 L69.0520548,56.2481949 L68.8986301,58.4267835 C68.8986301,58.4267835 68.8082192,59.055117 68.7424658,60.4709252 C68.6465753,62.336719 68.5890411,65.5689323 68.8109589,70.540724 L68.5726027,70.4831039 C68.0136986,70.3367671 67.4657534,70.1666506 66.9287671,69.9727544 C66.6027397,69.8520266 66.2794521,69.7203235 65.9643836,69.5803889 C65.8849315,69.5447194 65.8082192,69.5117936 65.7287671,69.4733802 C65.6493151,68.3758544 65.5534247,67.7036199 65.5534247,67.7036199 C65.5534247,67.7036199 65.4794521,67.7969096 65.3671233,67.9780013 C65.3205479,68.0520843 65.2630137,68.1426302 65.2027397,68.2523828 L65.1890411,68.2770771 L65.1890411,68.2770771 C65.1360731,68.3685376 65.0794521,68.4728025 65.0191781,68.589872 C64.9506849,68.7270627 64.8821918,68.8642534 64.8164384,69.0371137 L64.5424658,68.8807163 L64.4986301,68.856022 C63.3307694,68.1923006 62.2471391,67.3898809 61.2712329,66.4661596 C61.7123288,64.9104169 62.0931507,63.3464427 62.230137,63.1461442 C62.7410127,62.3602453 63.1333619,61.5031854 63.3945205,60.6026283 C63.7640356,59.3640036 64.6691168,58.3568572 65.860274,57.8588139 C67.0894684,57.281876 68.1885024,56.4603381 69.090411,55.4442572 L69.0958904,55.4442572 Z" id="Shape" fill="#000000" fill-rule="nonzero" opacity="0.1"></path>
                <path d="M69.0986301,55.3674304 C68.0382269,56.2666762 66.8567891,57.012065 65.5890411,57.5816886 C64.3978839,58.079732 63.4928028,59.0868784 63.1232877,60.325503 C62.862129,61.2260602 62.4697798,62.08312 61.9589041,62.869019 C61.8246575,63.0693174 61.4410959,64.6360354 61,66.194522 C61.0794521,66.2768364 61.1643836,66.356407 61.2465753,66.4359777 C62.2224815,67.3596989 63.3061118,68.1621186 64.4739726,68.82584 L64.5178082,68.8505343 C64.67764,68.4427424 64.8796539,68.0528256 65.1205479,67.687157 L65.1342466,67.6652065 C65.230137,67.5225282 65.290411,67.4457014 65.290411,67.4457014 C65.290411,67.4457014 65.3150685,67.6267931 65.3506849,67.953307 C65.3863014,68.2798209 65.4328767,68.7764513 65.4767123,69.3526524 L65.7150685,69.4596611 C65.7917808,69.4980745 65.8684932,69.5310003 65.9506849,69.5666699 C66.2657534,69.7066044 66.5890411,69.8410513 66.9150685,69.9590353 C67.4465753,70.1547608 67.9945205,70.3248773 68.5589041,70.4693848 C68.3342466,65.5469818 68.3835616,62.3037932 68.4739726,60.3913546 C68.5452055,58.8493309 68.6410959,58.1661211 68.6410959,58.1661211 L68.9890411,56.1631366 L69.0876712,55.5979109 L69.1342466,55.3235294 L69.0986301,55.3674304 Z" id="Shape" fill="#293158" fill-rule="nonzero"></path>
                <path d="M70.860274,55.0903075 C70.2442769,55.0909676 69.6362148,54.951158 69.0821918,54.6814768 C68.9864723,53.9704353 68.7957222,53.2755118 68.5150685,52.6153846 L73.6986301,51.0102532 C73.5096913,52.0049921 73.4736589,53.0228071 73.5917808,54.028449 C72.8449839,54.7105512 71.8710075,55.0891785 70.860274,55.0903075 L70.860274,55.0903075 Z" id="Shape" fill="#000000" fill-rule="nonzero" opacity="0.1"></path>
                <ellipse id="Oval" fill="#E0A17E" fill-rule="nonzero" cx="70.860274" cy="50.7633099" rx="4.0739726" ry="4.08005199"></ellipse>
                <g id="Group" opacity="0.1" transform="translate(78.630137, 66.125927)" fill="#000000" fill-rule="nonzero">
                    <path d="M0.509589041,3.56970251 C0.189041096,2.4419948 0.0109589041,1.70116492 0.0109589041,1.70116492 L0.62739726,0.093289689 C0.67565162,0.319280969 0.746321959,0.539880855 0.838356164,0.751805141 L0.852054795,0.787474728 L0.501369863,1.70390873 C0.501369863,1.70390873 0.663013699,2.36242418 0.947945205,3.37763551 C0.890410959,3.40507365 0.835616438,3.43251179 0.775342466,3.45446231 C0.715068493,3.47641282 0.597260274,3.53403293 0.509589041,3.56970251 Z" id="Shape"></path>
                </g>
                <path d="M83.9479452,62.0129489 C83.9479452,62.0129489 83.5780822,58.4267835 83.9479452,56.6954366 C84.3178082,54.9640897 79.6273973,56.9423799 80.6136986,59.291085 C81.1414437,60.5931082 81.8034798,61.8363932 82.5890411,63.0007221 L83.9479452,62.0129489 Z" id="Shape" fill="#E0A17E" fill-rule="nonzero"></path>
                <path d="M85.2849315,65.2122364 C84.434209,66.1980882 83.4715359,67.0811646 82.4164384,67.8435544 L82.2794521,67.9450756 C82.090411,68.0795225 81.8986301,68.219457 81.7041096,68.3346972 C81.2624961,67.8100589 80.868255,67.2471974 80.5260274,66.652739 L80.490411,66.5896313 L81.4794521,61.3955906 L81.5835616,61.5025994 C81.6273973,61.5437566 81.6849315,61.5986329 81.7534247,61.6535092 L81.7534247,61.6535092 L81.7671233,61.6535092 C82.2794521,62.0925195 83.3616438,62.7510349 83.8821918,61.2199865 C83.9701519,60.9519565 84.0334296,60.6764255 84.0712329,60.3968422 L84.1726027,60.7754886 L84.1726027,60.7754886 L84.2328767,60.9977376 L85.3287671,65.1381535 L85.3287671,65.1381535 L85.2849315,65.2122364 Z" id="Shape" fill="#000000" fill-rule="nonzero" opacity="0.1"></path>
                <path d="M85.2849315,65.2122364 C84.4342987,66.1981754 83.4716149,67.0812618 82.4164384,67.8435544 L82.2794521,67.9450756 C82.090411,68.0795225 81.8986301,68.219457 81.7041096,68.3346972 L81.569863,68.4197555 C81.1682329,67.9209071 80.8072551,67.3905607 80.490411,66.8338307 L80.5260274,66.6499952 L81.4794521,61.6397901 C81.4794521,61.6397901 81.5287671,61.6974102 81.6136986,61.7769808 L81.7835616,61.9278906 C81.8547945,61.9882545 81.9369863,62.0541061 82.0273973,62.11447 C82.5945205,62.5040917 83.4575342,62.7976798 83.8958904,61.4285164 C83.9766228,61.1743068 84.0352881,60.9135908 84.0712329,60.6492731 L84.1972603,61.1157216 L85.2849315,65.2122364 Z" id="Shape" fill="#293158" fill-rule="nonzero"></path>
                <path d="M85.2849315,65.2122364 C84.4342987,66.1981754 83.4716149,67.0812618 82.4164384,67.8435544 L82.2794521,67.9450756 C82.090411,68.0795225 81.8986301,68.219457 81.7041096,68.3346972 L81.569863,68.4197555 C81.1682329,67.9209071 80.8072551,67.3905607 80.490411,66.8338307 L80.5260274,66.6499952 L81.4794521,61.6397901 C81.4794521,61.6397901 81.5287671,61.6974102 81.6136986,61.7769808 L81.7835616,61.9278906 C81.8547945,61.9882545 81.9369863,62.0541061 82.0273973,62.11447 C82.5945205,62.5040917 83.4575342,62.7976798 83.8958904,61.4285164 C83.9766228,61.1743068 84.0352881,60.9135908 84.0712329,60.6492731 L84.1972603,61.1157216 L85.2849315,65.2122364 Z" id="Shape" fill="#000000" fill-rule="nonzero" opacity="0.02"></path>
                <path d="M65.1479452,67.6761818 L65.1342466,67.6981323 C65.1342466,67.6844132 65.1342466,67.6679503 65.1342466,67.6569751 C65.3068493,67.0560797 65.4630137,66.6499952 65.6027397,66.5292674 C65.6027397,66.5292674 65.7863014,67.7502648 65.9506849,69.5803889 C65.8712329,69.5447194 65.7945205,69.5117936 65.7150685,69.4733802 L65.4767123,69.3663714 C65.4356164,68.7764513 65.3917808,68.2962838 65.3506849,67.9670261 C65.309589,67.6377684 65.290411,67.4594204 65.290411,67.4594204 C65.290411,67.4594204 65.2438356,67.5335034 65.1479452,67.6761818 Z" id="Shape" fill="#000000" fill-rule="nonzero" opacity="0.1"></path>
                <path d="M70.909589,49.638346 C71.1225851,49.5213655 71.3678349,49.4770584 71.6082192,49.5121305 C71.7120748,49.5560347 71.8054531,49.6214971 71.8821918,49.7041976 C72.2027397,50.008761 72.5205479,50.362713 72.9534247,50.4560027 C73.2207641,50.4967061 73.4934749,50.4845883 73.7561644,50.4203331 C74.2170831,50.3669841 74.6645122,50.2303238 75.0767123,50.0169924 C75.9945205,49.4682295 76.2876712,48.2801579 76.3452055,47.2128141 C76.3643836,46.8533744 76.290411,46.3896698 75.9369863,46.312843 C75.4876712,46.2168095 75.1589041,46.9000193 74.7041096,46.8259363 C74.5658575,46.7923195 74.4414195,46.7165866 74.3479452,46.6091749 C74.0383562,46.2991239 73.8273973,45.9012708 73.5260274,45.588476 C73.0442049,45.1375091 72.4200109,44.8695981 71.7616438,44.8311832 C71.1086361,44.7957038 70.4539899,44.8576597 69.8191781,45.0150188 C69.4691278,45.0728886 69.131161,45.1888033 68.8191781,45.3579956 C68.5063717,45.529343 68.285596,45.83085 68.2164384,46.1811399 C68.1863014,46.4198517 68.2493151,46.666795 68.2027397,46.9027631 C68.1096428,47.2249463 67.8874744,47.4941314 67.5890411,47.6463368 C67.3150685,47.8164533 66.9917808,47.9207182 66.7232877,48.1292481 C66.2965687,48.461262 66.00063,48.9335271 65.8876712,49.4627419 C65.7780989,49.9890923 65.7632541,50.5308088 65.8438356,51.0623857 C65.9562739,51.9859266 66.2133068,52.8859581 66.6054795,53.7293733 C66.7351041,54.0237822 66.9017495,54.3004024 67.1013699,54.5525176 C67.3943472,54.8726784 67.731005,55.1497964 68.1013699,55.3756619 C68.2372192,55.4991099 68.4214443,55.5545607 68.6027397,55.5265717 C68.6540474,55.5081307 68.7014433,55.4802092 68.7424658,55.4442572 C69.0931507,55.1506691 69.1260274,54.6211129 69.0164384,54.1738712 C68.9068493,53.7266294 68.7205479,53.3013382 68.6986301,52.845865 C68.6846333,52.7180285 68.7094585,52.5889361 68.769863,52.4754501 C68.8429306,52.3836546 68.9255926,52.2999494 69.0164384,52.225763 C69.135093,52.0891185 69.2279294,51.9319909 69.290411,51.7620583 C69.5000075,51.3422442 69.6432655,50.8923908 69.7150685,50.4285646 C69.7547372,50.0466149 69.6712043,49.6619825 69.4767123,49.3310388 C69.8602129,49.6921695 70.4120516,49.8105217 70.909589,49.638346 L70.909589,49.638346 Z" id="Shape" fill="#000000" fill-rule="nonzero" opacity="0.1"></path>
                <path d="M70.909589,49.4956677 C71.1225851,49.3786872 71.3678349,49.33438 71.6082192,49.3694522 C71.7120748,49.4133564 71.8054531,49.4788187 71.8821918,49.5615192 C72.2027397,49.8660826 72.5205479,50.2200347 72.9534247,50.3133243 C73.2207641,50.3540278 73.4934749,50.3419099 73.7561644,50.2776548 C74.2170831,50.2243057 74.6645122,50.0876455 75.0767123,49.874314 C75.9945205,49.3255512 76.2876712,48.1374795 76.3452055,47.0701357 C76.3643836,46.7106961 76.290411,46.2469914 75.9369863,46.1701646 C75.4876712,46.0741311 75.1589041,46.7573409 74.7041096,46.6832579 C74.5658575,46.6496411 74.4414195,46.5739082 74.3479452,46.4664966 C74.0383562,46.1564456 73.8273973,45.7585925 73.5260274,45.4457976 C73.0442049,44.9948307 72.4200109,44.7269198 71.7616438,44.6885049 C71.1086361,44.6530254 70.4539899,44.7149813 69.8191781,44.8723404 C69.4691278,44.9302102 69.131161,45.046125 68.8191781,45.2153172 C68.5063717,45.3866647 68.285596,45.6881717 68.2164384,46.0384615 C68.1863014,46.2771734 68.2493151,46.5241167 68.2027397,46.7600847 C68.1096428,47.0822679 67.8874744,47.351453 67.5890411,47.5036584 C67.3150685,47.6737749 66.9917808,47.7780399 66.7232877,47.9865698 C66.2965687,48.3185837 66.00063,48.7908487 65.8876712,49.3200635 C65.7780989,49.846414 65.7632541,50.3881304 65.8438356,50.9197073 C65.9562739,51.8432482 66.2133068,52.7432797 66.6054795,53.5866949 C66.7351041,53.8811039 66.9017495,54.157724 67.1013699,54.4098392 C67.3943472,54.7300001 67.731005,55.007118 68.1013699,55.2329835 C68.2372192,55.3564316 68.4214443,55.4118824 68.6027397,55.3838933 C68.6540474,55.3654524 68.7014433,55.3375309 68.7424658,55.3015789 C69.0931507,55.0079908 69.1260274,54.4784346 69.0164384,54.0311928 C68.9068493,53.5839511 68.7205479,53.1586599 68.6986301,52.7031867 C68.6846333,52.5753502 68.7094585,52.4462577 68.769863,52.3327717 C68.8429306,52.2409762 68.9255926,52.1572711 69.0164384,52.0830846 C69.135093,51.9464402 69.2279294,51.7893126 69.290411,51.61938 C69.5000075,51.1995658 69.6432655,50.7497125 69.7150685,50.2858862 C69.7547372,49.9039366 69.6712043,49.5193041 69.4767123,49.1883605 C69.8602129,49.5494912 70.4120516,49.6678433 70.909589,49.4956677 L70.909589,49.4956677 Z" id="Shape" fill="#463E3B" fill-rule="nonzero"></path>
                <ellipse id="Oval" fill="#CD9494" fill-rule="nonzero" cx="48.4931507" cy="152.857899" rx="6.90136986" ry="2.5380283"></ellipse>
                <ellipse id="Oval" fill="#000000" fill-rule="nonzero" opacity="0.05" cx="48.4931507" cy="152.575286" rx="3.52054795" ry="1.29508039"></ellipse>
                <path d="M41.5890411,152.300905 C41.5890411,152.300905 49.1945205,156.531867 55.3917808,152.866131 C55.3917808,152.866131 54.5479452,167.537306 50.3205479,168.947627 L44.690411,168.947627 C44.690411,168.947627 39.9013699,159.061664 41.5890411,152.300905 Z" id="Shape" fill="#FF7361" fill-rule="nonzero"></path>
                <path d="M54.4520548,125.411524 C56.3890411,132.498797 48.1315068,152.687783 48.1315068,152.687783 C48.1315068,152.687783 30.7643836,139.517474 28.8273973,132.432945 C26.8913744,125.346332 31.0581928,118.029698 38.1342466,116.090787 C45.2103004,114.151875 52.516032,118.324911 54.4520548,125.411524 L54.4520548,125.411524 Z" id="Shape" fill="#F13C31" fill-rule="nonzero"></path>
                <path d="M54.4520548,125.411524 C56.3890411,132.498797 48.1315068,152.687783 48.1315068,152.687783 C48.1315068,152.687783 30.7643836,139.517474 28.8273973,132.432945 C26.8913744,125.346332 31.0581928,118.029698 38.1342466,116.090787 C45.2103004,114.151875 52.516032,118.324911 54.4520548,125.411524 L54.4520548,125.411524 Z" id="Shape" fill="#000000" fill-rule="nonzero" opacity="0.1"></path>
                <path d="M38.2054795,116.1292 C38.2054795,116.1292 49.0164384,132.474102 48.2027397,152.723452" id="Shape" stroke="#535461" stroke-width="0.576923077"></path>
                <path d="M57.2109589,138.362328 C57.2109589,138.362328 47.3972603,133.020121 48.6493151,152.737171 C48.6493151,152.737171 56.8273973,152.443583 59.7287671,145.762395 C60.9020824,143.073362 59.8830509,139.930392 57.3561644,138.444642 L57.2109589,138.362328 Z" id="Shape" fill="#F13C31" fill-rule="nonzero"></path>
                <path d="M57.3726027,138.395254 C57.3726027,138.395254 56.1068493,148.629681 48.6493151,152.737171" id="Shape" stroke="#535461" stroke-width="0.576923077"></path>
                <path d="M54.4712329,153.335323 C54.1972603,156.710215 53.0164384,167.191586 49.4794521,168.37417 L44.430137,168.37417 C44.5917808,168.733609 44.690411,168.939395 44.690411,168.939395 L50.3260274,168.939395 C54.5479452,167.526331 55.3945205,152.849668 55.3945205,152.849668 C55.0951796,153.027127 54.7870189,153.189221 54.4712329,153.335323 L54.4712329,153.335323 Z" id="Shape" fill="#000000" fill-rule="nonzero" opacity="0.05"></path>
                <polygon id="Rectangle-path" fill="#DDE1EC" fill-rule="nonzero" points="118.115068 129.730288 175.421918 129.730288 175.421918 163.037451 118.115068 163.037451"></polygon>
                <path d="M269.542466,63.9884952 C269.549732,63.8806945 269.549732,63.7725258 269.542466,63.6647251 C269.443836,62.3257437 268.172603,61.3571772 266.912329,60.8413401 C265.652055,60.325503 264.243836,60.0730721 263.128767,59.291085 C261.243836,57.9685665 260.663014,55.4963897 260.493151,53.2354867 C260.441096,52.5330702 260.419178,51.8306537 260.416438,51.1254934 C260.413699,50.4203331 260.460274,49.6410898 260.526027,48.9002599 C260.635616,47.6710311 260.816438,46.3979012 260.8,45.1659286 C260.863957,43.9904663 260.638141,42.8173001 260.142466,41.7498797 C259.024658,39.5383653 256.515068,38.4079137 254.191781,37.4448349 C253.29863,37.0744199 252.383562,36.6985174 251.413699,36.6573602 C250.389041,36.6134591 249.391781,36.9454607 248.421918,37.2747184 C246.882192,37.7960431 245.320548,38.4737653 243.728767,38.8277173 C242.835616,39.025272 241.857534,38.877106 240.989041,39.1926447 C239.284932,39.8182343 238.920548,41.3520266 238.947945,43.0339848 C238.947945,43.1409935 238.947945,43.2452585 238.947945,43.3522673 C238.778082,43.1958698 238.60274,43.0477039 238.424658,42.9050255 L238.320548,42.8227111 C238.1379,42.6745451 237.943379,42.5346106 237.736986,42.4029075 L237.638356,42.3397997 C237.219714,42.0680466 236.781001,41.8286415 236.326027,41.6236642 L236.257534,41.5934822 C236.029224,41.4928757 235.79726,41.4014152 235.561644,41.3191008 L235.517808,41.3026379 C235.030127,41.1324047 234.529997,41.0003056 234.021918,40.9075286 L234.021918,40.9075286 C230.771459,40.3042459 227.433854,41.3547139 225.112329,43.7117069 L223.230137,45.632377 L223.230137,45.632377 C214.673973,43.7117069 214.290411,51.1556754 214.290411,51.1556754 L214.353425,51.1419563 L214.331507,51.1940888 C214.52639,52.1360526 214.772417,53.0666726 215.068493,53.9818042 L148.994521,121.570184 L142.315068,142.302445 L146.065753,140.963464 L163.2,134.833783 L224.553425,72.0662848 C229.145205,75.3341677 233.917808,79.7132955 233.917808,79.7132955 C233.917808,79.7132955 230.958904,81.2800135 232.054795,88.4578319 C233.394521,97.2380379 231.380822,109.736112 231.380822,109.736112 L231.380822,117.81939 L231.758904,117.715125 C231.712329,117.989506 231.663014,118.263888 231.616438,118.579426 C230.992419,122.640762 230.913178,126.767404 231.380822,130.849764 C232.394521,139.426928 236.443836,151.137528 236.443836,151.137528 C236.443836,151.137528 237.961644,155.253249 238.30137,158.559546 C238.354797,159.212513 238.500544,159.854574 238.734247,160.466497 C239.496048,162.28028 239.898043,164.225226 239.917808,166.192837 C239.917808,169.781746 240.386301,175.167854 242.520548,180.663714 C244.232877,185.075768 244.865753,187.660441 245.054795,189.169539 C243.841096,190.777414 242.254795,192.530711 241.00274,192.706316 C238.641096,193.035573 234.082192,193.364831 237.120548,197.324155 C237.226551,197.460085 237.344861,197.58592 237.473973,197.700058 C235.167123,198.073217 232.630137,198.896361 235.09589,202.106624 C238.134247,206.065948 256.024658,204.252287 256.024658,204.252287 C256.024658,204.252287 256.139726,202.057235 256.024658,199.637191 C257.279452,199.549389 258.054795,199.469818 258.054795,199.469818 C258.054795,199.469818 258.561644,189.902137 256.367123,188.746991 C255.961531,188.791292 255.563564,188.889087 255.183562,189.037836 C254.947945,187.715317 254.767123,186.071772 254.654795,184.853519 L255.523288,184.787667 L255.523288,170.437518 C255.523288,170.437518 254.509589,161.531097 250.79726,157.571772 C250.323976,157.07732 249.916072,156.524029 249.583562,155.925484 C249.610959,154.781313 249.613699,153.181669 249.6,151.335082 C249.74758,151.085405 249.923147,150.853421 250.123288,150.643641 C250.123288,150.643641 252.147945,148.174208 259.068493,132.498797 C263.150685,123.254886 262.241096,117.918167 260.808219,115.092038 C260.534247,114.087802 259.821918,111.220516 258.890411,105.941417 C257.709589,99.1779147 259.060274,92.5790411 259.060274,92.5790411 C259.060274,92.5790411 263.443836,81.197699 265.473973,76.5798594 C265.944079,75.4675315 266.139553,74.2581112 266.043836,73.054058 C266.572603,72.6671801 266.827397,72.0223837 267.054795,71.4077693 L269.134247,65.8515452 C269.358904,65.2506499 269.589041,64.6250602 269.539726,63.9857514 L269.542466,63.9884952 Z M241.30137,53.984548 C241.527289,54.337548 241.779126,54.6732203 242.054795,54.9887841 L242.054795,54.9887841 C242.054795,54.9887841 241.745205,54.665014 241.232877,54.1436892 C241.257534,54.0915568 241.279452,54.0366805 241.30137,53.984548 Z M231.076712,65.3905844 L236.8,59.5352845 C238.778082,61.346202 240.89589,63.1955329 242.665753,64.7183499 C242.49715,65.4986715 242.273764,66.2661024 241.99726,67.0149225 C241.230137,67.3963127 240.216438,67.5197843 238.983562,66.8475498 C237.030137,65.7911813 233.424658,65.4783864 231.076712,65.3905844 Z" id="Shape" fill="url(#linearGradient-4)" fill-rule="nonzero"></path>
                <path d="M226.471233,43.7830461 C226.471233,43.7830461 222.227397,46.2360162 223.534247,49.682247 C223.534247,49.682247 227.942466,50.9910465 229.736986,54.2616732 C231.531507,57.5323 245.410959,69.3032637 245.410959,69.3032637 L255.531507,64.2244633 C255.531507,64.2244633 252.010959,59.5160778 240.873973,56.2289882 C240.873973,56.2289882 234.29863,49.180129 232.021918,47.8740734 C229.745205,46.5680177 226.471233,43.7830461 226.471233,43.7830461 Z" id="Shape" fill="#FEBDD5" fill-rule="nonzero"></path>
                <path d="M226.471233,43.7830461 C226.471233,43.7830461 222.227397,46.2360162 223.534247,49.682247 C223.534247,49.682247 227.942466,50.9910465 229.736986,54.2616732 C231.531507,57.5323 245.410959,69.3032637 245.410959,69.3032637 L255.531507,64.2244633 C255.531507,64.2244633 252.010959,59.5160778 240.873973,56.2289882 C240.873973,56.2289882 234.29863,49.180129 232.021918,47.8740734 C229.745205,46.5680177 226.471233,43.7830461 226.471233,43.7830461 Z" id="Shape" fill="#000000" fill-rule="nonzero" opacity="0.05"></path>
                <path d="M150.854795,122.220468 L224.493151,45.0177626 C228.117033,41.2236586 234.124615,41.0861376 237.917808,44.7104554 L237.917808,44.7104554 C241.706259,48.3397455 241.843575,54.3562918 238.224658,58.1551459 L164.59726,135.368826 L144.394521,142.777125 L150.854795,122.220468 Z" id="Shape" fill="#F13C31" fill-rule="nonzero"></path>
                <path d="M233.90411,43.341292 L233.90411,43.341292 C237.69256,46.9705821 237.829876,52.9871284 234.210959,56.7859825 L160.575342,133.988688 L145.408219,139.544912 L144.383562,142.771638 L164.586301,135.363339 L238.232877,58.1880716 C241.851794,54.3892176 241.714478,48.3726713 237.926027,44.7433811 L237.926027,44.7433811 C236.409074,43.2876552 234.451306,42.3792317 232.361644,42.1614518 C232.914513,42.5011914 233.431343,42.8965169 233.90411,43.341292 Z" id="Shape" fill="#FFFFFF" fill-rule="nonzero" opacity="0.1"></path>
                <polygon id="Shape" fill="#EFC8C4" fill-rule="nonzero" points="150.854795 122.223212 164.59726 135.368826 148.021918 141.443631 144.394521 142.771638 146.693151 135.46486"></polygon>
                <path d="M146.693151,135.462116 C147.196073,135.55998 147.675827,135.752727 148.106849,136.030086 C148.605479,136.389525 148.967123,137.012371 148.830137,137.610523 C148.695312,137.983028 148.503025,138.332069 148.260274,138.644941 C147.758679,139.492575 147.670907,140.523166 148.021918,141.443631 L144.383562,142.771638 L146.693151,135.462116 Z" id="Shape" fill="#727A9C" fill-rule="nonzero"></path>
                <path d="M252.920548,183.251131 C252.920548,183.251131 253.410959,190.445413 254.227397,191.263069 C255.043836,192.080726 246.879452,192.571869 246.879452,192.571869 L248.021918,183.2429 L252.920548,183.251131 Z" id="Shape" fill="#FFB9B9" fill-rule="nonzero"></path>
                <path d="M252.920548,183.251131 C252.920548,183.251131 253.410959,190.445413 254.227397,191.263069 C255.043836,192.080726 246.879452,192.571869 246.879452,192.571869 L248.021918,183.2429 L252.920548,183.251131 Z" id="Shape" fill="#000000" fill-rule="nonzero" opacity="0.05"></path>
                <path d="M254.715068,188.810099 C254.715068,188.810099 253.572603,188.810099 249.490411,190.936555 C249.490411,190.936555 246.715068,190.445413 245.572603,186.521758 C245.572603,186.521758 242.145205,192.40724 239.857534,192.733754 C237.569863,193.060268 233.164384,193.386782 236.10137,197.31318 C239.038356,201.239578 256.345205,199.439636 256.345205,199.439636 C256.345205,199.439636 256.838356,189.95427 254.715068,188.810099 Z" id="Shape" fill="#CBCDDA" fill-rule="nonzero"></path>
                <path d="M254.715068,188.810099 C254.715068,188.810099 253.572603,188.810099 249.490411,190.936555 C249.490411,190.936555 246.715068,190.445413 245.572603,186.521758 C245.572603,186.521758 242.145205,192.40724 239.857534,192.733754 C237.569863,193.060268 233.164384,193.386782 236.10137,197.31318 C239.038356,201.239578 256.345205,199.439636 256.345205,199.439636 C256.345205,199.439636 256.838356,189.95427 254.715068,188.810099 Z" id="Shape" fill="#000000" fill-rule="nonzero" opacity="0.05"></path>
                <path d="M252.265753,194.369067 L251.123288,197.475065 L243.613699,195.348609 L244.041096,192.264561 L244.145205,191.520988 L244.419178,189.463127 C244.419178,189.463127 250.786301,187.816838 250.786301,188.639983 C250.872512,189.314161 251.01269,189.980308 251.205479,190.631992 C251.479452,191.636228 251.794521,192.783142 252.027397,193.537691 C252.169863,194.042553 252.265753,194.369067 252.265753,194.369067 Z" id="Shape" fill="#FFB9B9" fill-rule="nonzero"></path>
                <path d="M248.169863,151.727448 C247.654795,152.599981 247.073973,154.235294 248.156164,156.276692 C248.476386,156.867602 248.870421,157.41528 249.328767,157.906518 C252.920548,161.830172 253.90137,170.659767 253.90137,170.659767 L253.90137,184.883701 L251.452055,185.073024 L247.534247,185.374844 L241.643836,161.179888 C241.643836,161.179888 238.216438,143.520699 239.849315,140.414701 C241.482192,137.308703 242.950685,117.852315 242.950685,117.852315 L244.306849,116.447482 L247.523288,113.111004 L256.838356,113.111004 C257.582978,113.645942 258.201195,114.338142 258.649315,115.138683 C260.210959,117.728844 261.613699,123.114951 257.328767,133.058535 C250.635616,148.591268 248.676712,151.044238 248.676712,151.044238 C248.482535,151.252068 248.3125,151.481267 248.169863,151.727448 Z" id="Shape" fill="#4C4C78" fill-rule="nonzero"></path>
                <path d="M248.169863,151.727448 C247.654795,152.599981 247.073973,154.235294 248.156164,156.276692 C248.476386,156.867602 248.870421,157.41528 249.328767,157.906518 C252.920548,161.830172 253.90137,170.659767 253.90137,170.659767 L253.90137,184.883701 L251.452055,185.073024 L247.534247,185.374844 L241.643836,161.179888 C241.643836,161.179888 238.216438,143.520699 239.849315,140.414701 C241.482192,137.308703 242.950685,117.852315 242.950685,117.852315 L244.306849,116.447482 L247.523288,113.111004 L256.838356,113.111004 C257.582978,113.645942 258.201195,114.338142 258.649315,115.138683 C260.210959,117.728844 261.613699,123.114951 257.328767,133.058535 C250.635616,148.591268 248.676712,151.044238 248.676712,151.044238 C248.482535,151.252068 248.3125,151.481267 248.169863,151.727448 Z" id="Shape" fill="#000000" fill-rule="nonzero" opacity="0.05"></path>
                <path d="M251.216438,190.63748 L244.145205,191.520988 L244.419178,189.463127 C244.419178,189.463127 250.786301,187.816838 250.786301,188.639983 C250.875809,189.316316 251.019655,189.984316 251.216438,190.63748 Z" id="Shape" fill="#000000" fill-rule="nonzero" opacity="0.1"></path>
                <path d="M247.69589,130.76745 C247.69589,130.76745 248.10137,143.638683 248.169863,151.727448 C248.183562,153.557572 248.169863,155.143497 248.156164,156.276692 C248.165824,156.877574 248.121813,157.478117 248.024658,158.071147 C247.534247,159.541831 248.515068,162.812458 248.515068,162.812458 C252.59726,173.60388 251.454795,183.086502 251.454795,183.086502 L251.454795,190.280784 L243.613699,191.263069 C243.613699,191.263069 244.920548,190.280784 241.328767,180.798161 C239.265753,175.348946 238.819178,170.012227 238.810959,166.4535 C238.792051,164.506471 238.403404,162.580826 237.665753,160.779291 C237.443701,160.170065 237.307237,159.532897 237.260274,158.886059 C236.934247,155.615433 235.465753,151.527149 235.465753,151.527149 C235.465753,151.527149 231.547945,139.918071 230.567123,131.41499 C230.114503,127.367892 230.190947,123.278954 230.794521,119.251661 C230.938998,118.22798 231.135601,117.212359 231.383562,116.208771 C231.383562,116.208771 247.342466,106.149947 253.369863,113.102773 C253.953171,113.781935 254.416445,114.555828 254.739726,115.391114 C255.070615,116.215542 255.328234,117.067599 255.509589,117.937374 C257.361644,127.173053 247.69589,130.76745 247.69589,130.76745 Z" id="Shape" fill="#4C4C78" fill-rule="nonzero"></path>
                <ellipse id="Oval" fill="#FFB9B9" fill-rule="nonzero" cx="247.205479" cy="50.8154424" rx="8.3260274" ry="8.33845191"></ellipse>
                <path d="M242.635616,56.0451526 C242.635616,56.0451526 246.063014,65.692404 242.635616,70.7602291 C239.208219,75.8280543 253.572603,74.1927409 253.572603,74.1927409 L259.123288,67.4896024 C259.123288,67.4896024 252.591781,67.4896024 252.273973,56.0451526 C251.956164,44.6007028 242.635616,56.0451526 242.635616,56.0451526 Z" id="Shape" fill="#FFB9B9" fill-rule="nonzero"></path>
                <path d="M259.123288,117.031915 C257.939507,117.442422 256.722057,117.748157 255.484932,117.945605 C253.452055,118.2584 251.054795,118.272119 249.652055,117.031915 C248.830137,116.296573 246.772603,116.208771 244.312329,116.441995 C239.131507,116.938625 232.117808,118.875758 230.775342,119.257148 C230.91982,118.233467 231.116423,117.217847 231.364384,116.214258 C231.364384,116.214258 247.323288,106.155435 253.350685,113.10826 L256.832877,113.10826 C257.577499,113.643198 258.195716,114.335398 258.643836,115.135939 C258.947945,116.436507 259.123288,117.031915 259.123288,117.031915 Z" id="Shape" fill="#000000" fill-rule="nonzero" opacity="0.1"></path>
                <path d="M252.265753,194.369067 L251.123288,197.475065 L243.613699,195.348609 L244.041096,192.264561 C245.331507,195.123616 247.531507,195.510494 247.531507,195.510494 C249.90411,194.275777 251.284932,193.757196 252.024658,193.540435 C252.169863,194.042553 252.265753,194.369067 252.265753,194.369067 Z" id="Shape" fill="#000000" fill-rule="nonzero" opacity="0.1"></path>
                <path d="M252.756164,193.55141 C252.756164,193.55141 251.613699,193.55141 247.531507,195.677867 C247.531507,195.677867 244.756164,195.186724 243.613699,191.263069 C243.613699,191.263069 240.186301,197.148551 237.89863,197.475065 C235.610959,197.801579 231.205479,198.122605 234.145205,202.054491 C237.084932,205.986377 254.389041,204.180947 254.389041,204.180947 C254.389041,204.180947 254.879452,194.695581 252.756164,193.55141 Z" id="Shape" fill="#CBCDDA" fill-rule="nonzero"></path>
                <path d="M214.024658,52.4123424 C214.024658,52.4123424 214.394521,45.0342255 222.671233,46.9384327 L220.547945,50.925195 L214.024658,52.4123424 Z" id="Shape" fill="#FFB9B9" fill-rule="nonzero"></path>
                <path d="M252.60274,69.4541735 C252.60274,69.4541735 244.60274,68.145374 242.479452,66.5100607 C242.479452,66.5100607 240.835616,69.6160585 237.906849,67.9807452 C234.978082,66.3454318 228.112329,66.5100607 228.112329,66.5100607 C228.112329,66.5100607 222.39726,63.4040628 221.263014,56.3716665 C221.263014,56.3716665 220.120548,52.121498 220.441096,50.9773274 C220.441096,50.9773274 216.19726,46.5625301 214.073973,52.4480119 C214.89589,56.5362954 215.542466,56.2097815 215.380822,59.4776644 L217.991781,66.6719457 C217.991781,66.6719457 218.156164,69.1249158 222.890411,72.3955425 C227.624658,75.6661693 233.013699,80.7339944 233.013699,80.7339944 C233.013699,80.7339944 230.156164,82.2869934 231.219178,89.3989602 C232.515068,98.0913642 230.567123,110.490661 230.567123,110.490661 L230.567123,118.502599 C230.567123,118.502599 246.893151,113.761288 249.668493,116.214258 C252.443836,118.667228 259.136986,116.214258 259.136986,116.214258 C259.136986,116.214258 258.315068,113.434774 257.178082,106.731636 C256.041096,100.028497 257.342466,93.4872437 257.342466,93.4872437 C257.342466,93.4872437 261.586301,82.2046789 263.545205,77.6279965 C265.50411,73.0513141 262.076712,66.8365746 258.646575,64.5482334 C255.216438,62.2598922 253.942466,63.6345432 253.942466,63.6345432 C253.942466,63.6345432 259.939726,67.983489 252.60274,69.4541735 Z" id="Shape" fill="#FEBDD5" fill-rule="nonzero"></path>
                <path d="M238.2,48.7740445 C238.197499,49.1143771 238.255002,49.4524804 238.369863,49.7727929 C238.560173,50.1370786 238.819851,50.460529 239.134247,50.7248965 C240.356164,51.9211996 241.430137,53.3424954 241.860274,54.9997593 C242.150685,56.1219794 242.134247,57.296332 242.117808,58.4569654 C242.046575,63.1516318 241.843836,68.219457 238.956164,71.9016559 C237.893151,73.259844 236.523288,74.3381631 235.238356,75.4878213 C235.057915,75.6229434 234.922337,75.8094029 234.849315,76.0228651 C234.813655,76.2461766 234.856247,76.4749666 234.969863,76.6704053 C235.567123,77.9133532 236.824658,78.6761336 238.016438,79.3675749 C238.564384,79.6831135 239.134247,80.0096274 239.764384,80.0288341 C241.249315,80.0782228 242.230137,78.5060171 243.580822,77.8886589 C245.547945,76.9886878 247.753425,78.2398671 249.706849,79.172764 C251.120521,79.8467669 252.603217,80.3647369 254.128767,80.7175315 C256.219178,81.2004429 258.580822,81.3184269 260.339726,80.0919419 C261.35654,79.3744462 262.051186,78.2855947 262.273973,77.060027 C262.416438,76.261577 262.394521,75.3341677 262.99726,74.7936363 C263.309589,74.5192548 263.734247,74.398527 264.068493,74.1515837 C264.591781,73.7674497 264.838356,73.1226533 265.060274,72.5052951 L267.071233,66.9984596 C267.330397,66.4165217 267.463904,65.7863237 267.463018,65.1491287 C267.367123,63.8238664 266.145205,62.8607875 264.920548,62.350438 C263.69589,61.8400886 262.339726,61.5904015 261.260274,60.813902 C259.438356,59.5023587 258.873973,57.0521325 258.709589,54.8104361 C258.597257,53.2709203 258.608251,51.7248662 258.742466,50.1871089 C258.942466,47.9069991 259.386301,45.4759796 258.372603,43.4236064 C257.290411,41.2285549 254.863014,40.1118225 252.619178,39.1569751 C251.756164,38.7893039 250.868493,38.418889 249.931507,38.3777318 C248.939726,38.3338307 247.975342,38.6521132 247.038356,38.9896024 C245.547945,39.5081833 244.024658,40.177674 242.49863,40.5288823 C241.635616,40.7264369 240.687671,40.5782709 239.854795,40.8910658 C236.794521,42.0434678 238.2,46.3073553 238.2,48.7740445 Z" id="Shape" fill="#000000" fill-rule="nonzero" opacity="0.1"></path>
                <path d="M238.2,48.4475306 C238.197499,48.7878632 238.255002,49.1259665 238.369863,49.446279 C238.560173,49.8105647 238.819851,50.1340151 239.134247,50.3983826 C240.356164,51.5946857 241.430137,53.0159815 241.860274,54.6732454 C242.150685,55.7954655 242.134247,56.969818 242.117808,58.1304515 C242.046575,62.8251179 241.843836,67.8929431 238.956164,71.575142 C237.893151,72.9333301 236.523288,74.0116492 235.238356,75.1613074 C235.058656,75.293117 234.922257,75.4755719 234.846575,75.685376 C234.810915,75.9086874 234.853507,76.1374774 234.967123,76.3329161 C235.564384,77.5758641 236.821918,78.3386445 238.013699,79.0300857 C238.561644,79.3456243 239.131507,79.6721382 239.761644,79.691345 C241.246575,79.7407336 242.227397,78.168528 243.578082,77.5511697 C245.545205,76.6511986 247.750685,77.902378 249.70411,78.8352749 C251.117781,79.5092777 252.600478,80.0272478 254.126027,80.3800424 C256.216438,80.8629537 258.578082,80.9809377 260.336986,79.7544527 C261.3538,79.036957 262.048446,77.9481055 262.271233,76.7225378 C262.413699,75.9240878 262.391781,74.9966785 262.994521,74.4561471 C263.306849,74.1817657 263.731507,74.0610378 264.065753,73.8140945 C264.589041,73.4299605 264.835616,72.7851641 265.057534,72.1678059 L267.068493,66.6609704 C267.327657,66.0790326 267.461165,65.4488346 267.460278,64.8116395 C267.364384,63.4863772 266.142466,62.5232984 264.917808,62.0129489 C263.693151,61.5025994 262.336986,61.2529123 261.257534,60.4764128 C259.435616,59.1648695 258.871233,56.7146433 258.706849,54.472947 C258.594517,52.9334312 258.605511,51.387377 258.739726,49.8496197 C258.939726,47.56951 259.383562,45.1384904 258.369863,43.0861173 C257.287671,40.8910658 254.860274,39.7743333 252.616438,38.8194859 C251.753425,38.4518148 250.865753,38.0813998 249.928767,38.0402426 C248.936986,37.9963416 247.972603,38.314624 247.035616,38.6521132 C245.545205,39.1706941 244.021918,39.8401848 242.49589,40.1913931 C241.632877,40.3889477 240.684932,40.2407817 239.852055,40.5535766 C236.794521,41.7251853 238.2,45.9808414 238.2,48.4475306 Z" id="Shape" fill="#B96B6B" fill-rule="nonzero"></path>
                <path d="M231.619178,93.0701839 C231.619178,93.0701839 232.920548,92.7601329 239.452055,91.7723597 C245.983562,90.7845865 257.410959,93.0811591 257.410959,93.0811591" id="Shape" fill="#000000" fill-rule="nonzero" opacity="0.05"></path>
            </g>
        </g>
    </g>
</svg>