<?xml version="1.0" encoding="UTF-8"?>
<svg width="300px" height="230px" viewBox="0 0 300 230" version="1.1" xmlns="http://www.w3.org/2000/svg" xmlns:xlink="http://www.w3.org/1999/xlink">
    <!-- Generator: Sketch 61.2 (89653) - https://sketch.com -->
    <title>landing-page-graphics-feature-2</title>
    <desc>Created with Sketch.</desc>
    <defs>
        <linearGradient x1="-0.0079491256%" y1="49.9857218%" x2="100%" y2="49.9857218%" id="linearGradient-1">
            <stop stop-color="#808080" stop-opacity="0.25" offset="0%"></stop>
            <stop stop-color="#808080" stop-opacity="0.12" offset="54%"></stop>
            <stop stop-color="#808080" stop-opacity="0.1" offset="100%"></stop>
        </linearGradient>
        <linearGradient x1="0.00387688081%" y1="50.0080662%" x2="100.011897%" y2="50.0080662%" id="linearGradient-2">
            <stop stop-color="#808080" stop-opacity="0.25" offset="0%"></stop>
            <stop stop-color="#808080" stop-opacity="0.12" offset="54%"></stop>
            <stop stop-color="#808080" stop-opacity="0.1" offset="100%"></stop>
        </linearGradient>
        <linearGradient x1="0.00387688081%" y1="50.0110849%" x2="100.011897%" y2="50.0110849%" id="linearGradient-3">
            <stop stop-color="#808080" stop-opacity="0.25" offset="0%"></stop>
            <stop stop-color="#808080" stop-opacity="0.12" offset="54%"></stop>
            <stop stop-color="#808080" stop-opacity="0.1" offset="100%"></stop>
        </linearGradient>
        <linearGradient x1="-0.00991994667%" y1="49.9972838%" x2="100.044963%" y2="49.9972838%" id="linearGradient-4">
            <stop stop-color="#808080" stop-opacity="0.25" offset="0%"></stop>
            <stop stop-color="#808080" stop-opacity="0.12" offset="54%"></stop>
            <stop stop-color="#808080" stop-opacity="0.1" offset="100%"></stop>
        </linearGradient>
        <linearGradient x1="-0.000323723424%" y1="49.9984052%" x2="100.026101%" y2="49.9984052%" id="linearGradient-5">
            <stop stop-color="#808080" stop-opacity="0.25" offset="0%"></stop>
            <stop stop-color="#808080" stop-opacity="0.12" offset="54%"></stop>
            <stop stop-color="#808080" stop-opacity="0.1" offset="100%"></stop>
        </linearGradient>
        <linearGradient x1="-0.000323744549%" y1="49.9984052%" x2="100.032629%" y2="49.9984052%" id="linearGradient-6">
            <stop stop-color="#808080" stop-opacity="0.25" offset="0%"></stop>
            <stop stop-color="#808080" stop-opacity="0.12" offset="54%"></stop>
            <stop stop-color="#808080" stop-opacity="0.1" offset="100%"></stop>
        </linearGradient>
        <linearGradient x1="0%" y1="50.0015612%" x2="100%" y2="50.0015612%" id="linearGradient-7">
            <stop stop-color="#808080" stop-opacity="0.25" offset="0%"></stop>
            <stop stop-color="#808080" stop-opacity="0.12" offset="54%"></stop>
            <stop stop-color="#808080" stop-opacity="0.1" offset="100%"></stop>
        </linearGradient>
        <linearGradient x1="0.00260978606%" y1="50%" x2="100.019477%" y2="50%" id="linearGradient-8">
            <stop stop-color="#808080" stop-opacity="0.25" offset="0%"></stop>
            <stop stop-color="#808080" stop-opacity="0.12" offset="54%"></stop>
            <stop stop-color="#808080" stop-opacity="0.1" offset="100%"></stop>
        </linearGradient>
        <linearGradient x1="0.00260995551%" y1="50%" x2="100.025972%" y2="50%" id="linearGradient-9">
            <stop stop-color="#808080" stop-opacity="0.25" offset="0%"></stop>
            <stop stop-color="#808080" stop-opacity="0.12" offset="54%"></stop>
            <stop stop-color="#808080" stop-opacity="0.1" offset="100%"></stop>
        </linearGradient>
        <linearGradient x1="0%" y1="50%" x2="100%" y2="50%" id="linearGradient-10">
            <stop stop-color="#808080" stop-opacity="0.25" offset="0%"></stop>
            <stop stop-color="#808080" stop-opacity="0.12" offset="54%"></stop>
            <stop stop-color="#808080" stop-opacity="0.1" offset="100%"></stop>
        </linearGradient>
        <linearGradient x1="0%" y1="50%" x2="100%" y2="50%" id="linearGradient-11">
            <stop stop-color="#808080" stop-opacity="0.25" offset="0%"></stop>
            <stop stop-color="#808080" stop-opacity="0.12" offset="54%"></stop>
            <stop stop-color="#808080" stop-opacity="0.1" offset="100%"></stop>
        </linearGradient>
        <linearGradient x1="0%" y1="50%" x2="100%" y2="50%" id="linearGradient-12">
            <stop stop-color="#808080" stop-opacity="0.25" offset="0%"></stop>
            <stop stop-color="#808080" stop-opacity="0.12" offset="54%"></stop>
            <stop stop-color="#808080" stop-opacity="0.1" offset="100%"></stop>
        </linearGradient>
        <linearGradient x1="0.012722275%" y1="50%" x2="100%" y2="50%" id="linearGradient-13">
            <stop stop-color="#808080" stop-opacity="0.25" offset="0%"></stop>
            <stop stop-color="#808080" stop-opacity="0.12" offset="54%"></stop>
            <stop stop-color="#808080" stop-opacity="0.1" offset="100%"></stop>
        </linearGradient>
        <linearGradient x1="0%" y1="50.0641437%" x2="100%" y2="50.0641437%" id="linearGradient-14">
            <stop stop-color="#808080" stop-opacity="0.25" offset="0%"></stop>
            <stop stop-color="#808080" stop-opacity="0.12" offset="54%"></stop>
            <stop stop-color="#808080" stop-opacity="0.1" offset="100%"></stop>
        </linearGradient>
        <linearGradient x1="0.0145948284%" y1="49.9703393%" x2="100.003764%" y2="49.9703393%" id="linearGradient-15">
            <stop stop-color="#808080" stop-opacity="0.25" offset="0%"></stop>
            <stop stop-color="#808080" stop-opacity="0.12" offset="54%"></stop>
            <stop stop-color="#808080" stop-opacity="0.1" offset="100%"></stop>
        </linearGradient>
        <linearGradient x1="0%" y1="50%" x2="100%" y2="50%" id="linearGradient-16">
            <stop stop-color="#808080" stop-opacity="0.25" offset="0%"></stop>
            <stop stop-color="#808080" stop-opacity="0.12" offset="54%"></stop>
            <stop stop-color="#808080" stop-opacity="0.1" offset="100%"></stop>
        </linearGradient>
        <linearGradient x1="-0.0087558041%" y1="50.0163435%" x2="100.000395%" y2="50.0163435%" id="linearGradient-17">
            <stop stop-color="#808080" stop-opacity="0.25" offset="0%"></stop>
            <stop stop-color="#808080" stop-opacity="0.12" offset="54%"></stop>
            <stop stop-color="#808080" stop-opacity="0.1" offset="100%"></stop>
        </linearGradient>
        <linearGradient x1="-0.0164208501%" y1="50.0145761%" x2="100.023383%" y2="50.0145761%" id="linearGradient-18">
            <stop stop-color="#808080" stop-opacity="0.25" offset="0%"></stop>
            <stop stop-color="#808080" stop-opacity="0.12" offset="54%"></stop>
            <stop stop-color="#808080" stop-opacity="0.1" offset="100%"></stop>
        </linearGradient>
        <linearGradient x1="7.76264969e-14%" y1="50.0137563%" x2="99.9497114%" y2="50.0137563%" id="linearGradient-19">
            <stop stop-color="#808080" stop-opacity="0.25" offset="0%"></stop>
            <stop stop-color="#808080" stop-opacity="0.12" offset="54%"></stop>
            <stop stop-color="#808080" stop-opacity="0.1" offset="100%"></stop>
        </linearGradient>
        <linearGradient x1="7.76264969e-14%" y1="50.0022111%" x2="99.9497114%" y2="50.0022111%" id="linearGradient-20">
            <stop stop-color="#808080" stop-opacity="0.25" offset="0%"></stop>
            <stop stop-color="#808080" stop-opacity="0.12" offset="54%"></stop>
            <stop stop-color="#808080" stop-opacity="0.1" offset="100%"></stop>
        </linearGradient>
        <linearGradient x1="50.0093293%" y1="99.9928768%" x2="50.0093293%" y2="-0.000992369547%" id="linearGradient-21">
            <stop stop-color="#808080" stop-opacity="0.25" offset="0%"></stop>
            <stop stop-color="#808080" stop-opacity="0.12" offset="54%"></stop>
            <stop stop-color="#808080" stop-opacity="0.1" offset="100%"></stop>
        </linearGradient>
        <linearGradient x1="49.9991062%" y1="100%" x2="49.9991062%" y2="0%" id="linearGradient-22">
            <stop stop-color="#808080" stop-opacity="0.25" offset="0%"></stop>
            <stop stop-color="#808080" stop-opacity="0.12" offset="54%"></stop>
            <stop stop-color="#808080" stop-opacity="0.1" offset="100%"></stop>
        </linearGradient>
        <linearGradient x1="50%" y1="100%" x2="50%" y2="0%" id="linearGradient-23">
            <stop stop-color="#808080" stop-opacity="0.25" offset="0%"></stop>
            <stop stop-color="#808080" stop-opacity="0.12" offset="54%"></stop>
            <stop stop-color="#808080" stop-opacity="0.1" offset="100%"></stop>
        </linearGradient>
    </defs>
    <g id="Page-1" stroke="none" stroke-width="1" fill="none" fill-rule="evenodd">
        <g id="Tech" transform="translate(-566.000000, -156.000000)">
            <g id="landing-page-graphics-feature-2" transform="translate(566.000000, 156.000000)">
                <path d="M247.878788,202.424242 L226.363636,202.424242 L226.363636,190.30303 L247.878788,190.30303 L247.878788,202.424242 Z M227.272727,201.515152 L246.969697,201.515152 L246.969697,191.212121 L227.272727,191.212121 L227.272727,201.515152 Z" id="Shape" fill="#F13C31" fill-rule="nonzero" opacity="0.2"></path>
                <path d="M269.393939,201.818182 L247.878788,201.818182 L247.878788,189.69697 L269.393939,189.69697 L269.393939,201.818182 Z M248.787879,200.909091 L268.484848,200.909091 L268.484848,190.606061 L248.787879,190.606061 L248.787879,200.909091 Z" id="Shape" fill="#F13C31" fill-rule="nonzero" opacity="0.2"></path>
                <path d="M290.909091,201.818182 L269.393939,201.818182 L269.393939,189.69697 L290.909091,189.69697 L290.909091,201.818182 Z M270.30303,200.909091 L290,200.909091 L290,190.606061 L270.30303,190.606061 L270.30303,200.909091 Z" id="Shape" fill="#F13C31" fill-rule="nonzero" opacity="0.2"></path>
                <path d="M290.909091,189.69697 L269.393939,189.69697 L269.393939,177.575758 L290.909091,177.575758 L290.909091,189.69697 Z M270.30303,188.787879 L290,188.787879 L290,178.484848 L270.30303,178.484848 L270.30303,188.787879 Z" id="Shape" fill="#F13C31" fill-rule="nonzero" opacity="0.2"></path>
                <path d="M269.393939,189.69697 L247.878788,189.69697 L247.878788,177.575758 L269.393939,177.575758 L269.393939,189.69697 Z M248.787879,188.787879 L268.484848,188.787879 L268.484848,178.484848 L248.787879,178.484848 L248.787879,188.787879 Z" id="Shape" fill="#F13C31" fill-rule="nonzero" opacity="0.2"></path>
                <path d="M26.969697,201.818182 L5.45454545,201.818182 L5.45454545,189.69697 L26.969697,189.69697 L26.969697,201.818182 Z M6.36363636,200.909091 L26.0606061,200.909091 L26.0606061,190.606061 L6.36363636,190.606061 L6.36363636,200.909091 Z" id="Shape" fill="#F13C31" fill-rule="nonzero" opacity="0.2"></path>
                <path d="M48.4848485,201.818182 L26.969697,201.818182 L26.969697,189.69697 L48.4848485,189.69697 L48.4848485,201.818182 Z M27.8787879,200.909091 L47.5757576,200.909091 L47.5757576,190.606061 L27.8787879,190.606061 L27.8787879,200.909091 Z" id="Shape" fill="#F13C31" fill-rule="nonzero" opacity="0.2"></path>
                <path d="M70,201.818182 L48.4848485,201.818182 L48.4848485,189.69697 L70,189.69697 L70,201.818182 Z M49.3939394,200.909091 L69.0909091,200.909091 L69.0909091,190.606061 L49.3939394,190.606061 L49.3939394,200.909091 Z" id="Shape" fill="#F13C31" fill-rule="nonzero" opacity="0.2"></path>
                <path d="M91.5151515,202.424242 L70,202.424242 L70,190.30303 L91.5151515,190.30303 L91.5151515,202.424242 Z M70.9090909,201.515152 L90.6060606,201.515152 L90.6060606,191.212121 L70.9090909,191.212121 L70.9090909,201.515152 Z" id="Shape" fill="#F13C31" fill-rule="nonzero" opacity="0.2"></path>
                <path d="M70,189.69697 L48.4848485,189.69697 L48.4848485,177.575758 L70,177.575758 L70,189.69697 Z M49.3939394,188.787879 L69.0909091,188.787879 L69.0909091,178.484848 L49.3939394,178.484848 L49.3939394,188.787879 Z" id="Shape" fill="#F13C31" fill-rule="nonzero" opacity="0.2"></path>
                <path d="M48.4848485,189.69697 L26.969697,189.69697 L26.969697,177.575758 L48.4848485,177.575758 L48.4848485,189.69697 Z M27.8787879,188.787879 L47.5757576,188.787879 L47.5757576,178.484848 L27.8787879,178.484848 L27.8787879,188.787879 Z" id="Shape" fill="#F13C31" fill-rule="nonzero" opacity="0.2"></path>
                <path d="M269.781818,164.351515 C269.781818,164.351515 265.8,150.827273 270.527273,140.872727 C272.537685,136.710592 273.143773,132.008629 272.254545,127.472727 C271.815725,125.322212 271.180746,123.216436 270.357576,121.181818" id="Path" stroke="#535461" stroke-width="0.606060606"></path>
                <path d="M273.30303,114.881818 C273.30303,116.539394 270.30303,121.345455 270.30303,121.345455 C270.30303,121.345455 267.30303,116.539394 267.30303,114.881818 C267.30303,113.224127 268.646854,111.880303 270.304545,111.880303 C271.962236,111.880303 273.306061,113.224127 273.306061,114.881818 L273.30303,114.881818 Z" id="Path" fill="#F13C31" fill-rule="nonzero"></path>
                <path d="M278.263636,124.072727 C277.354545,125.463636 272.230303,127.866667 272.230303,127.866667 C272.230303,127.866667 272.324242,122.2 273.224242,120.809091 C273.806694,119.90889 274.825152,119.387804 275.895975,119.442121 C276.966797,119.496438 277.9273,120.117906 278.415672,121.072424 C278.904043,122.026942 278.846088,123.169496 278.263636,124.069697 L278.263636,124.072727 Z" id="Path" fill="#F13C31" fill-rule="nonzero"></path>
                <path d="M278.045455,139.763636 C276.566667,140.509091 270.924242,139.993939 270.924242,139.993939 C270.924242,139.993939 273.863636,135.145455 275.345455,134.40303 C276.825745,133.656609 278.630851,134.251528 279.377272,135.731818 C280.123694,137.212109 279.528775,139.017215 278.048485,139.763636 L278.045455,139.763636 Z" id="Path" fill="#F13C31" fill-rule="nonzero"></path>
                <path d="M275.209091,151.59697 C273.875758,152.581818 268.239394,153.027273 268.239394,153.027273 C268.239394,153.027273 270.318182,147.757576 271.651515,146.769697 C272.513283,146.132032 273.64978,146.002553 274.632898,146.430033 C275.616016,146.857514 276.296396,147.777009 276.417746,148.842155 C276.539096,149.9073 276.08298,150.956274 275.221212,151.593939 L275.209091,151.59697 Z" id="Path" fill="#F13C31" fill-rule="nonzero"></path>
                <path d="M265.930303,128.190909 C267.118182,129.345455 272.657576,130.542424 272.657576,130.542424 C272.657576,130.542424 271.3,125.039394 270.112121,123.875758 C269.342918,123.128748 268.233619,122.848847 267.202088,123.141492 C266.170556,123.434137 265.373506,124.254868 265.111178,125.294523 C264.848851,126.334177 265.161099,127.434808 265.930303,128.181818 L265.930303,128.190909 Z" id="Path" fill="#F13C31" fill-rule="nonzero"></path>
                <path d="M262.787879,142.069697 C264.266667,142.815152 269.909091,142.3 269.909091,142.3 C269.909091,142.3 266.969697,137.451515 265.487879,136.709091 C264.007588,135.96267 262.202482,136.557588 261.456061,138.037879 C260.70964,139.518169 261.304558,141.323276 262.784848,142.069697 L262.787879,142.069697 Z" id="Path" fill="#F13C31" fill-rule="nonzero"></path>
                <path d="M261.584848,155.981818 C262.918182,156.966667 268.554545,157.412121 268.554545,157.412121 C268.554545,157.412121 266.487879,152.154545 265.151515,151.157576 C264.289747,150.519911 263.153251,150.390432 262.170133,150.817912 C261.187015,151.245393 260.506634,152.164888 260.385284,153.230033 C260.263934,154.295179 260.72005,155.344153 261.581818,155.981818 L261.584848,155.981818 Z" id="Path" fill="#F13C31" fill-rule="nonzero"></path>
                <path d="M273.30303,114.881818 C273.30303,116.539394 270.30303,121.345455 270.30303,121.345455 C270.30303,121.345455 267.30303,116.539394 267.30303,114.881818 C267.30303,113.224127 268.646854,111.880303 270.304545,111.880303 C271.962236,111.880303 273.306061,113.224127 273.306061,114.881818 L273.30303,114.881818 Z" id="Path" fill="#000000" fill-rule="nonzero" opacity="0.25"></path>
                <path d="M278.263636,124.072727 C277.354545,125.463636 272.230303,127.866667 272.230303,127.866667 C272.230303,127.866667 272.324242,122.2 273.224242,120.809091 C273.806694,119.90889 274.825152,119.387804 275.895975,119.442121 C276.966797,119.496438 277.9273,120.117906 278.415672,121.072424 C278.904043,122.026942 278.846088,123.169496 278.263636,124.069697 L278.263636,124.072727 Z" id="Path" fill="#000000" fill-rule="nonzero" opacity="0.25"></path>
                <path d="M278.045455,139.763636 C276.566667,140.509091 270.924242,139.993939 270.924242,139.993939 C270.924242,139.993939 273.863636,135.145455 275.345455,134.40303 C276.825745,133.656609 278.630851,134.251528 279.377272,135.731818 C280.123694,137.212109 279.528775,139.017215 278.048485,139.763636 L278.045455,139.763636 Z" id="Path" fill="#000000" fill-rule="nonzero" opacity="0.25"></path>
                <path d="M275.209091,151.59697 C273.875758,152.581818 268.239394,153.027273 268.239394,153.027273 C268.239394,153.027273 270.318182,147.757576 271.651515,146.769697 C272.513283,146.132032 273.64978,146.002553 274.632898,146.430033 C275.616016,146.857514 276.296396,147.777009 276.417746,148.842155 C276.539096,149.9073 276.08298,150.956274 275.221212,151.593939 L275.209091,151.59697 Z" id="Path" fill="#000000" fill-rule="nonzero" opacity="0.25"></path>
                <path d="M265.930303,128.190909 C267.118182,129.345455 272.657576,130.542424 272.657576,130.542424 C272.657576,130.542424 271.3,125.039394 270.112121,123.875758 C269.342918,123.128748 268.233619,122.848847 267.202088,123.141492 C266.170556,123.434137 265.373506,124.254868 265.111178,125.294523 C264.848851,126.334177 265.161099,127.434808 265.930303,128.181818 L265.930303,128.190909 Z" id="Path" fill="#000000" fill-rule="nonzero" opacity="0.25"></path>
                <path d="M262.787879,142.069697 C264.266667,142.815152 269.909091,142.3 269.909091,142.3 C269.909091,142.3 266.969697,137.451515 265.487879,136.709091 C264.007588,135.96267 262.202482,136.557588 261.456061,138.037879 C260.70964,139.518169 261.304558,141.323276 262.784848,142.069697 L262.787879,142.069697 Z" id="Path" fill="#000000" fill-rule="nonzero" opacity="0.25"></path>
                <path d="M261.584848,155.981818 C262.918182,156.966667 268.554545,157.412121 268.554545,157.412121 C268.554545,157.412121 266.487879,152.154545 265.151515,151.157576 C264.289747,150.519911 263.153251,150.390432 262.170133,150.817912 C261.187015,151.245393 260.506634,152.164888 260.385284,153.230033 C260.263934,154.295179 260.72005,155.344153 261.581818,155.981818 L261.584848,155.981818 Z" id="Path" fill="#000000" fill-rule="nonzero" opacity="0.25"></path>
                <path d="M51.1515152,164.454545 C51.1515152,164.454545 47.1090909,150.730303 51.9090909,140.639394 C53.9500593,136.415318 54.5657194,131.643155 53.6636364,127.039394 C53.2185355,124.851548 52.5734008,122.709214 51.7363636,120.639394" id="Path" stroke="#535461" stroke-width="0.606060606"></path>
                <path d="M54.7242424,114.275758 C54.7242424,115.957576 51.6787879,120.836364 51.6787879,120.836364 C51.6787879,120.836364 48.630303,115.942424 48.630303,114.275758 C48.630303,112.593799 49.9937995,111.230303 51.6757576,111.230303 C53.3577157,111.230303 54.7212121,112.593799 54.7212121,114.275758 L54.7242424,114.275758 Z" id="Path" fill="#F13C31" fill-rule="nonzero"></path>
                <path d="M59.7575758,123.578788 C58.8484848,124.990909 53.6363636,127.430303 53.6363636,127.430303 C53.6363636,127.430303 53.730303,121.672727 54.6454545,120.269697 C55.2257744,119.331953 56.2676998,118.781194 57.3694119,118.829818 C58.4711241,118.878442 59.4604768,119.518853 59.9559261,120.504076 C60.4513753,121.489299 60.3755055,122.665389 59.7575758,123.578788 Z" id="Path" fill="#F13C31" fill-rule="nonzero"></path>
                <path d="M59.5363636,139.5 C58.0212121,140.257576 52.3090909,139.733333 52.3090909,139.733333 C52.3090909,139.733333 55.2939394,134.818182 56.7939394,134.060606 C58.2959865,133.303307 60.1275489,133.907044 60.8848484,135.409091 C61.6421479,136.911138 61.0384107,138.7427 59.5363636,139.5 Z" id="Path" fill="#F13C31" fill-rule="nonzero"></path>
                <path d="M56.6666667,151.509091 C55.3151515,152.509091 49.5818182,152.960606 49.5818182,152.960606 C49.5818182,152.960606 51.7030303,147.612121 53.0454545,146.59697 C53.9202139,145.947396 55.0750684,145.813844 56.0749955,146.24662 C57.0749226,146.679397 57.7680096,147.612755 57.8931774,148.695105 C58.0183451,149.777456 57.5565776,150.844366 56.6818182,151.493939 L56.6666667,151.509091 Z" id="Path" fill="#F13C31" fill-rule="nonzero"></path>
                <path d="M47.2393939,127.754545 C48.4515152,128.927273 54.0666667,130.139394 54.0666667,130.139394 C54.0666667,130.139394 52.6909091,124.557576 51.4848485,123.384848 C50.7075709,122.609558 49.5731786,122.312614 48.5157301,122.607637 C47.4582816,122.902661 46.6414618,123.743986 46.3778145,124.80969 C46.1141673,125.875395 46.4445032,127.000517 47.2424242,127.754545 L47.2393939,127.754545 Z" id="Path" fill="#F13C31" fill-rule="nonzero"></path>
                <path d="M44.0515152,141.851515 C45.5666667,142.609091 51.2787879,142.084848 51.2787879,142.084848 C51.2787879,142.084848 48.2939394,137.169697 46.7939394,136.412121 C45.2918922,135.654822 43.4603298,136.258559 42.7030303,137.760606 C41.9457308,139.262653 42.549468,141.094216 44.0515152,141.851515 L44.0515152,141.851515 Z" id="Path" fill="#F13C31" fill-rule="nonzero"></path>
                <path d="M42.830303,155.960606 C44.1818182,156.960606 49.9151515,157.412121 49.9151515,157.412121 C49.9151515,157.412121 47.7939394,152.063636 46.4515152,151.048485 C45.0992543,150.044331 43.1890026,150.326527 42.1848485,151.678788 C41.1806944,153.031049 41.4628907,154.9413 42.8151515,155.945455 L42.830303,155.960606 Z" id="Path" fill="#F13C31" fill-rule="nonzero"></path>
                <path d="M54.7242424,114.275758 C54.7242424,115.957576 51.6787879,120.836364 51.6787879,120.836364 C51.6787879,120.836364 48.630303,115.942424 48.630303,114.275758 C48.630303,112.593799 49.9937995,111.230303 51.6757576,111.230303 C53.3577157,111.230303 54.7212121,112.593799 54.7212121,114.275758 L54.7242424,114.275758 Z" id="Path" fill="#FFFFFF" fill-rule="nonzero" opacity="0.5"></path>
                <path d="M59.7575758,123.578788 C58.8484848,124.990909 53.6363636,127.430303 53.6363636,127.430303 C53.6363636,127.430303 53.730303,121.672727 54.6454545,120.269697 C55.2257744,119.331953 56.2676998,118.781194 57.3694119,118.829818 C58.4711241,118.878442 59.4604768,119.518853 59.9559261,120.504076 C60.4513753,121.489299 60.3755055,122.665389 59.7575758,123.578788 Z" id="Path" fill="#FFFFFF" fill-rule="nonzero" opacity="0.5"></path>
                <path d="M59.5363636,139.5 C58.0212121,140.257576 52.3090909,139.733333 52.3090909,139.733333 C52.3090909,139.733333 55.2939394,134.818182 56.7939394,134.060606 C58.2959865,133.303307 60.1275489,133.907044 60.8848484,135.409091 C61.6421479,136.911138 61.0384107,138.7427 59.5363636,139.5 Z" id="Path" fill="#FFFFFF" fill-rule="nonzero" opacity="0.5"></path>
                <path d="M56.6666667,151.509091 C55.3151515,152.509091 49.5818182,152.960606 49.5818182,152.960606 C49.5818182,152.960606 51.7030303,147.612121 53.0454545,146.59697 C53.9202139,145.947396 55.0750684,145.813844 56.0749955,146.24662 C57.0749226,146.679397 57.7680096,147.612755 57.8931774,148.695105 C58.0183451,149.777456 57.5565776,150.844366 56.6818182,151.493939 L56.6666667,151.509091 Z" id="Path" fill="#FFFFFF" fill-rule="nonzero" opacity="0.5"></path>
                <path d="M47.2393939,127.754545 C48.4515152,128.927273 54.0666667,130.139394 54.0666667,130.139394 C54.0666667,130.139394 52.6909091,124.557576 51.4848485,123.384848 C50.7075709,122.609558 49.5731786,122.312614 48.5157301,122.607637 C47.4582816,122.902661 46.6414618,123.743986 46.3778145,124.80969 C46.1141673,125.875395 46.4445032,127.000517 47.2424242,127.754545 L47.2393939,127.754545 Z" id="Path" fill="#FFFFFF" fill-rule="nonzero" opacity="0.5"></path>
                <path d="M44.0515152,141.851515 C45.5666667,142.609091 51.2787879,142.084848 51.2787879,142.084848 C51.2787879,142.084848 48.2939394,137.169697 46.7939394,136.412121 C45.2918922,135.654822 43.4603298,136.258559 42.7030303,137.760606 C41.9457308,139.262653 42.549468,141.094216 44.0515152,141.851515 L44.0515152,141.851515 Z" id="Path" fill="#FFFFFF" fill-rule="nonzero" opacity="0.5"></path>
                <path d="M42.830303,155.960606 C44.1818182,156.960606 49.9151515,157.412121 49.9151515,157.412121 C49.9151515,157.412121 47.7939394,152.063636 46.4515152,151.048485 C45.0992543,150.044331 43.1890026,150.326527 42.1848485,151.678788 C41.1806944,153.031049 41.4628907,154.9413 42.8151515,155.945455 L42.830303,155.960606 Z" id="Path" fill="#FFFFFF" fill-rule="nonzero" opacity="0.5"></path>
                <path d="M28.0878788,164.115152 C28.0878788,164.115152 25.0090909,153.669697 28.6666667,145.957576 C30.2216381,142.738594 30.6905563,139.102085 30.0030303,135.593939 C29.663683,133.931342 29.1727427,132.303328 28.5363636,130.730303" id="Path" stroke="#535461" stroke-width="0.606060606"></path>
                <path d="M30.8121212,125.863636 C30.8121212,127.145455 28.4909091,130.863636 28.4909091,130.863636 C28.4909091,130.863636 26.169697,127.145455 26.169697,125.863636 C26.169697,124.581666 27.2089391,123.542424 28.4909091,123.542424 C29.7728791,123.542424 30.8121212,124.581666 30.8121212,125.863636 L30.8121212,125.863636 Z" id="Path" fill="#F13C31" fill-rule="nonzero"></path>
                <path d="M34.6484848,132.963636 C33.9515152,134.039394 29.9818182,135.9 29.9818182,135.9 C29.9818182,135.9 30.0545455,131.518182 30.7515152,130.445455 C31.2024276,129.749328 31.9904671,129.346639 32.8187866,129.389078 C33.6471062,129.431516 34.3898644,129.912634 34.7672715,130.651199 C35.1446785,131.389764 35.0993973,132.27357 34.6484848,132.969697 L34.6484848,132.963636 Z" id="Path" fill="#F13C31" fill-rule="nonzero"></path>
                <path d="M34.4818182,145.09697 C33.3363636,145.672727 28.9727273,145.275758 28.9727273,145.275758 C28.9727273,145.275758 31.2454545,141.530303 32.3909091,140.951515 C33.5356448,140.374127 34.9317023,140.834052 35.5090909,141.978788 C36.0864795,143.123524 35.6265538,144.519581 34.4818182,145.09697 L34.4818182,145.09697 Z" id="Path" fill="#F13C31" fill-rule="nonzero"></path>
                <path d="M32.2878788,154.251515 C31.2575758,155.015152 26.8878788,155.357576 26.8878788,155.357576 C26.8878788,155.357576 28.4969697,151.281818 29.5272727,150.509091 C30.5582043,149.746771 32.011922,149.964523 32.7742423,150.995455 C33.5365626,152.026386 33.3188102,153.480104 32.2878788,154.242424 L32.2878788,154.251515 Z" id="Path" fill="#F13C31" fill-rule="nonzero"></path>
                <path d="M25.1090909,136.148485 C26.0181818,137.042424 30.3121212,137.966667 30.3121212,137.966667 C30.3121212,137.966667 29.2636364,133.724242 28.3424242,132.815152 C27.7469816,132.237572 26.888635,132.021532 26.0907152,132.24841 C25.2927954,132.475289 24.6765255,133.110619 24.4740485,133.915077 C24.2715714,134.719535 24.5136482,135.570905 25.1090909,136.148485 L25.1090909,136.148485 Z" id="Path" fill="#F13C31" fill-rule="nonzero"></path>
                <path d="M22.6787879,146.884848 C23.8242424,147.460606 28.1878788,147.063636 28.1878788,147.063636 C28.1878788,147.063636 25.9151515,143.318182 24.769697,142.739394 C23.6249613,142.162005 22.2289038,142.621931 21.6515152,143.766667 C21.0741265,144.911402 21.5340522,146.30746 22.6787879,146.884848 L22.6787879,146.884848 Z" id="Path" fill="#F13C31" fill-rule="nonzero"></path>
                <path d="M21.7484848,157.642424 C22.7787879,158.406061 27.1484848,158.748485 27.1484848,158.748485 C27.1484848,158.748485 25.5393939,154.672727 24.5090909,153.9 C23.8421951,153.406865 22.9628737,153.306974 22.2023586,153.637956 C21.4418434,153.968937 20.9156748,154.680506 20.8220555,155.504622 C20.7284361,156.328739 21.081589,157.140199 21.7484848,157.633333 L21.7484848,157.642424 Z" id="Path" fill="#F13C31" fill-rule="nonzero"></path>
                <path d="M30.8121212,125.863636 C30.8121212,127.145455 28.4909091,130.863636 28.4909091,130.863636 C28.4909091,130.863636 26.169697,127.145455 26.169697,125.863636 C26.169697,124.581666 27.2089391,123.542424 28.4909091,123.542424 C29.7728791,123.542424 30.8121212,124.581666 30.8121212,125.863636 L30.8121212,125.863636 Z" id="Path" fill="#000000" fill-rule="nonzero" opacity="0.25"></path>
                <path d="M34.6484848,132.963636 C33.9515152,134.039394 29.9818182,135.9 29.9818182,135.9 C29.9818182,135.9 30.0545455,131.518182 30.7515152,130.445455 C31.2024276,129.749328 31.9904671,129.346639 32.8187866,129.389078 C33.6471062,129.431516 34.3898644,129.912634 34.7672715,130.651199 C35.1446785,131.389764 35.0993973,132.27357 34.6484848,132.969697 L34.6484848,132.963636 Z" id="Path" fill="#000000" fill-rule="nonzero" opacity="0.25"></path>
                <path d="M34.4818182,145.09697 C33.3363636,145.672727 28.9727273,145.275758 28.9727273,145.275758 C28.9727273,145.275758 31.2454545,141.530303 32.3909091,140.951515 C33.5356448,140.374127 34.9317023,140.834052 35.5090909,141.978788 C36.0864795,143.123524 35.6265538,144.519581 34.4818182,145.09697 L34.4818182,145.09697 Z" id="Path" fill="#000000" fill-rule="nonzero" opacity="0.25"></path>
                <path d="M32.2878788,154.251515 C31.2575758,155.015152 26.8878788,155.357576 26.8878788,155.357576 C26.8878788,155.357576 28.4969697,151.281818 29.5272727,150.509091 C30.5582043,149.746771 32.011922,149.964523 32.7742423,150.995455 C33.5365626,152.026386 33.3188102,153.480104 32.2878788,154.242424 L32.2878788,154.251515 Z" id="Path" fill="#000000" fill-rule="nonzero" opacity="0.25"></path>
                <path d="M25.1090909,136.148485 C26.0181818,137.042424 30.3121212,137.966667 30.3121212,137.966667 C30.3121212,137.966667 29.2636364,133.724242 28.3424242,132.815152 C27.7469816,132.237572 26.888635,132.021532 26.0907152,132.24841 C25.2927954,132.475289 24.6765255,133.110619 24.4740485,133.915077 C24.2715714,134.719535 24.5136482,135.570905 25.1090909,136.148485 L25.1090909,136.148485 Z" id="Path" fill="#000000" fill-rule="nonzero" opacity="0.25"></path>
                <path d="M22.6787879,146.884848 C23.8242424,147.460606 28.1878788,147.063636 28.1878788,147.063636 C28.1878788,147.063636 25.9151515,143.318182 24.769697,142.739394 C23.6249613,142.162005 22.2289038,142.621931 21.6515152,143.766667 C21.0741265,144.911402 21.5340522,146.30746 22.6787879,146.884848 L22.6787879,146.884848 Z" id="Path" fill="#000000" fill-rule="nonzero" opacity="0.25"></path>
                <path d="M21.7484848,157.642424 C22.7787879,158.406061 27.1484848,158.748485 27.1484848,158.748485 C27.1484848,158.748485 25.5393939,154.672727 24.5090909,153.9 C23.8421951,153.406865 22.9628737,153.306974 22.2023586,153.637956 C21.4418434,153.968937 20.9156748,154.680506 20.8220555,155.504622 C20.7284361,156.328739 21.081589,157.140199 21.7484848,157.633333 L21.7484848,157.642424 Z" id="Path" fill="#000000" fill-rule="nonzero" opacity="0.25"></path>
                <g id="Group" opacity="0.7" transform="translate(0.000000, 24.242424)" fill-rule="nonzero">
                    <rect id="Rectangle" fill="#FCDAD7" x="0" y="0" width="300" height="153.030303"></rect>
                    <path d="M0,-4.30631961e-15 L0,153.333333 L300,153.333333 L300,-4.30631961e-15 L0,-4.30631961e-15 Z M13.3333333,13.3333333 L143.333333,13.3333333 L143.333333,70 L13.3333333,70 L13.3333333,13.3333333 Z M13.3333333,83.3333333 L143.333333,83.3333333 L143.333333,140 L13.3333333,140 L13.3333333,83.3333333 Z M286.666667,140 L156.666667,140 L156.666667,83.3333333 L286.666667,83.3333333 L286.666667,140 Z M286.666667,70 L156.666667,70 L156.666667,13.3333333 L286.666667,13.3333333 L286.666667,70 Z" id="Shape" fill="#F13C31" opacity="0.25"></path>
                </g>
                <g id="Group" opacity="0.7" transform="translate(66.666667, 50.000000)" fill-rule="nonzero">
                    <path d="M43.3666667,133.90303 C43.3666667,133.90303 17.1121212,124.30303 13.5181818,137.815152 L23.5878788,163.412121 L24.6666667,179.775758 L46.6030303,179.775758 L46.6030303,165.9 C46.6030303,165.9 43.3666667,152.033333 51.6393939,143.50303 L43.3666667,133.90303 Z" id="Path" fill="url(#linearGradient-1)"></path>
                    <g opacity="0.1" transform="translate(24.545455, 57.272727)" fill="url(#linearGradient-2)" id="Path">
                        <path d="M23.2181818,0.454545455 C22.1030303,0.0848484848 20.7606061,-0.245454545 19.8515152,0.490909091 C19.3242424,0.918181818 19.0969697,1.60606061 18.6878788,2.14545455 C17.3272727,3.93030303 14.5848485,3.5969697 12.4181818,4.23636364 C9.23333333,5.17575758 7.26666667,8.33030303 6.13939394,11.4212121 C1.15151515,25.0575758 6.71212121,40.6545455 2.36969697,54.5030303 C1.09090909,58.5787879 -1,63.1030303 1.06666667,66.8515152 C1.75454545,68.1030303 2.88484848,69.1454545 3.21818182,70.5272727 C3.68484848,72.4030303 2.78484848,74.8636364 4.35757576,76.0060606 C4.84848485,76.3606061 5.46969697,76.4727273 6.05757576,76.6121212 C9.5969697,77.5454545 12.2787879,80.3 14.9757576,82.7484848 C17.6727273,85.1969697 20.9151515,87.5666667 24.5727273,87.4060606 C25.7547851,87.30852 26.9218958,87.0767244 28.0515152,86.7151515 L46.2030303,81.6606061 C48.0212121,81.1545455 49.9969697,80.5424242 51.0515152,78.9909091 C51.6969697,78.0424242 51.9,76.869697 52.0636364,75.7424242 C52.6899929,71.4349496 52.9868138,67.0859663 52.9515152,62.7333333 C52.9515152,61.2969697 52.8848485,59.8272727 52.3454545,58.4909091 C51.7393939,56.9484848 50.5272727,55.7151515 49.6454545,54.3060606 C47.9424242,51.5787879 47.4848485,48.3030303 47.0636364,45.130303 C46.3939394,40.0787879 45.7242424,34.9272727 46.6515152,29.9151515 C47.0484848,27.7636364 47.7333333,25.6727273 48.1878788,23.5363636 C48.9243422,20.0558189 49.0412843,16.4726735 48.5333333,12.9515152 C48.1090909,10.0272727 47.2,7.06060606 45.2,4.86060606 C43.8910278,3.39468156 42.1124047,2.4303678 40.169697,2.13333333 C37.7151515,1.83030303 36.4939394,3.24242424 34.3060606,3.76969697 C31.069697,4.57878788 26.330303,1.48181818 23.2181818,0.454545455 Z"></path>
                    </g>
                    <path d="M47.7636364,57.0030303 C46.6484848,56.6333333 45.3060606,56.3030303 44.3969697,57.0393939 C43.869697,57.4666667 43.6424242,58.1545455 43.2333333,58.6939394 C41.8727273,60.4787879 39.130303,60.1454545 36.9636364,60.7848485 C33.7787879,61.7242424 31.8121212,64.8787879 30.6848485,67.969697 C25.6969697,81.6060606 31.2575758,97.2030303 26.9151515,111.051515 C25.6363636,115.127273 23.5454545,119.651515 25.6121212,123.4 C26.3,124.651515 27.430303,125.693939 27.7636364,127.075758 C28.230303,128.951515 27.330303,131.412121 28.9030303,132.554545 C29.3939394,132.909091 30.0151515,133.021212 30.6030303,133.160606 C34.1424242,134.093939 36.8242424,136.848485 39.5212121,139.29697 C42.2181818,141.745455 45.4545455,144.142424 49.1181818,143.972727 C50.3002396,143.875187 51.4673504,143.643391 52.5969697,143.281818 L70.7484848,138.227273 C72.5666667,137.721212 74.5424242,137.109091 75.5969697,135.557576 C76.2424242,134.609091 76.4454545,133.436364 76.6090909,132.309091 C77.2354475,128.001616 77.5322684,123.652633 77.4969697,119.3 C77.4969697,117.863636 77.430303,116.393939 76.8909091,115.057576 C76.2848485,113.515152 75.0727273,112.281818 74.1909091,110.872727 C72.4878788,108.145455 72.030303,104.869697 71.6090909,101.69697 C70.9393939,96.6454545 70.269697,91.4939394 71.1969697,86.4818182 C71.5939394,84.330303 72.2787879,82.2393939 72.7333333,80.1030303 C73.4697968,76.6224856 73.5867388,73.0393401 73.0787879,69.5181818 C72.6545455,66.5939394 71.7454545,63.6272727 69.7454545,61.4272727 C68.4364824,59.9613482 66.6578592,58.9970345 64.7151515,58.7 C62.2606061,58.3969697 61.0393939,59.8090909 58.8515152,60.3363636 C55.6151515,61.1242424 50.8757576,58.0454545 47.7636364,57.0030303 Z" id="Path" fill="url(#linearGradient-3)"></path>
                    <path d="M42.6484848,30.0909091 C42.6484848,30.0909091 43.0090909,43.6 38.6939394,43.2454545 C34.3787879,42.8909091 50.9090909,65.6424242 50.9090909,65.6424242 L64.9333333,58.1757576 C64.9333333,58.1757576 56.6666667,45.0242424 62.4242424,36.8454545 C68.1818182,28.6666667 42.6484848,30.0909091 42.6484848,30.0909091 Z" id="Path" fill="url(#linearGradient-4)"></path>
                    <g opacity="0.1" transform="translate(2.121212, 51.515152)" fill="url(#linearGradient-5)" id="Path">
                        <path d="M16.430303,93.4090909 C16.430303,93.4090909 13.5545455,112.963636 6.36060606,107.630303 C-0.833333333,102.29697 0.245454545,93.4090909 0.245454545,93.4090909 C0.245454545,93.4090909 14.2727273,55.7242424 13.5545455,50.0333333 C12.8363636,44.3424242 37.4939394,0.124242424 37.4939394,0.124242424 L46.6272727,72.7878788 C46.6272727,72.7878788 19.3060606,82.7424242 16.430303,93.4090909 Z"></path>
                    </g>
                    <path d="M17.8333333,144.924242 C17.8333333,144.924242 14.9575758,164.478788 7.76363636,159.145455 C0.56969697,153.812121 1.64848485,144.924242 1.64848485,144.924242 C1.64848485,144.924242 15.6757576,107.239394 14.9545455,101.548485 C14.2333333,95.8575758 38.8939394,51.6393939 38.8939394,51.6393939 L48.0272727,124.30303 C48.0272727,124.30303 20.7090909,134.257576 17.8333333,144.924242 Z" id="Path" fill="url(#linearGradient-6)"></path>
                    <path d="M43.3666667,38.6242424 C43.3666667,38.6242424 29.3393939,48.2151515 23.9393939,47.8666667 L19.7484848,49.0060606 C11.2950252,51.2732038 4.86052909,58.1411298 3.14848485,66.7242424 L3.08181818,67.0636364 C0.93030303,78.4424242 0.209090909,109.730303 0.209090909,109.730303 C0.209090909,109.730303 0.56969697,117.912121 4.16363636,120.033333 L27.1939394,135.675758 C27.1939394,135.675758 26.4757576,118.612121 35.1060606,116.833333 C43.7363636,115.054545 32.9484848,116.121212 32.9484848,116.121212 L17.1242424,106.878788 C17.1242424,106.878788 17.4848485,93.0121212 21.8,88.3939394 C26.1151515,83.7757576 41.2212121,59.6060606 41.2212121,59.6060606 L36.9060606,44.6757576 L43.3666667,38.6242424 Z" id="Path" fill="url(#linearGradient-7)"></path>
                    <g opacity="0.1" transform="translate(56.666667, 47.575758)" fill="url(#linearGradient-8)" id="Path">
                        <path d="M2.16363636,0.290909091 C2.16363636,0.290909091 10.9969697,2.6030303 17.1818182,3.73333333 C19.1363284,4.08264571 20.806915,5.34346583 21.6787879,7.12727273 C23.5454545,10.9787879 26.3909091,17.9454545 25.9,23.7545455 L31.2939394,44.730303 L46.7484848,63.2151515 L32.7272727,69.6181818 L16.9090909,52.1969697 L29.8545455,85.2606061 L5.75757576,86.3272727 C5.75757576,86.3272727 -1.43636364,32.9939394 0.363636364,24.1121212 L2.16363636,0.290909091 Z"></path>
                    </g>
                    <path d="M59.5484848,47.8666667 C59.5484848,47.8666667 68.3818182,50.1787879 74.5666667,51.3090909 C76.5211769,51.6584033 78.1917635,52.9192234 79.0636364,54.7030303 C80.930303,58.5545455 83.7757576,65.5212121 83.2848485,71.330303 L88.6787879,92.3060606 L104.133333,110.790909 L90.1090909,117.190909 L74.2848485,99.769697 L87.2424242,132.836364 L63.1454545,133.90303 C63.1454545,133.90303 55.9515152,80.569697 57.7515152,71.6878788 L59.5484848,47.8666667 Z" id="Path" fill="url(#linearGradient-9)"></path>
                    <polygon id="Path" fill="url(#linearGradient-10)" points="42.1848485 37.4909091 47.1424242 61.5545455 39.0515152 65.6424242 34.6181818 43.9666667"></polygon>
                    <polygon id="Path" fill="url(#linearGradient-11)" points="55.7727273 63.3333333 59.5484848 47.8666667 64.4060606 56.9333333 61.8878788 64.4"></polygon>
                    <path d="M69.4393939,67.9545455 C69.4393939,67.9545455 69.4393939,92.130303 72.6757576,93.9060606" id="Path" fill="url(#linearGradient-12)" opacity="0.1"></path>
                    <path d="M23.0454545,73.9969697 C23.0454545,73.9969697 15.5818182,97.8060606 17.6939394,100.3" id="Path" fill="url(#linearGradient-13)" opacity="0.1"></path>
                    <path d="M21.6090909,106.7 C21.6090909,106.7 35.9969697,116 37.9727273,116.148485" id="Path" fill="url(#linearGradient-14)" opacity="0.1"></path>
                    <g opacity="0.1" transform="translate(42.727273, 31.212121)" fill="url(#linearGradient-15)" id="Path">
                        <path d="M0.278787879,0.3 C0.278787879,0.3 0.333333333,2.38181818 0.139393939,4.88787879 C2.76137519,10.9710024 8.75770422,14.9049757 15.3818182,14.8879343 C16.2698672,14.887198 17.1564709,14.8162697 18.0333333,14.6757576 C17.9393939,12.0151515 18.4515152,9.34545455 20.0575758,7.06666667 C25.8121212,-1.12121212 0.278787879,0.3 0.278787879,0.3 Z"></path>
                    </g>
                    <ellipse id="Oval" fill="url(#linearGradient-16)" cx="57.7515152" cy="28.3151515" rx="16.5424242" ry="16.3545455"></ellipse>
                    <g opacity="0.1" transform="translate(33.636364, 0.303030)" fill="url(#linearGradient-17)" id="Path">
                        <path d="M34.6121212,21.1363636 C36.6151515,21.4030303 39.1575758,20.7424242 39.5545455,18.7787879 C40.0424242,16.3 36.6878788,14.6878788 36.169697,12.2121212 C35.9757576,11.2848485 36.2060606,10.3151515 36.0939394,9.37272727 C35.869697,7.47575758 34.3181818,6.01515152 32.7393939,4.91212121 C27.7265108,1.44148152 21.6540745,-0.158673038 15.5818182,0.390909091 C14.830303,0.460606061 14.0393939,0.581818182 13.4606061,1.05757576 C12.8,1.59393939 12.5515152,2.46666667 12.0939394,3.17878788 C10.5424242,5.65757576 7.05757576,5.94848485 4.55757576,7.49393939 C1.63333333,9.31212121 0.184848485,12.8484848 0.0545454545,16.2545455 C-0.0757575758,19.6606061 0.906060606,23.0030303 1.87272727,26.2757576 C2.7,29.0575758 3.56666667,31.9151515 5.38181818,34.1939394 C7.1969697,36.4727273 10.2090909,38.0636364 13.0606061,37.3787879 C11.7545455,36.4484848 12.7030303,34.2878788 14.1181818,33.530303 C15.5333333,32.7727273 17.2909091,32.6424242 18.5,31.5969697 C19.7090909,30.5515152 20.0727273,28.8393939 20.4666667,27.2818182 C20.9636364,25.3181818 21.6787879,23.3242424 23.1333333,21.8909091 C25.9848485,19.0848485 31.1212121,20.6727273 34.6121212,21.1363636 Z"></path>
                    </g>
                    <path d="M67.8787879,21.0848485 C69.8818182,21.3515152 72.4242424,20.6909091 72.8212121,18.7272727 C73.3090909,16.2484848 69.9545455,14.6363636 69.4363636,12.1606061 C69.2424242,11.2333333 69.4727273,10.2636364 69.3606061,9.32121212 C69.1363636,7.42424242 67.5848485,5.96363636 66.0060606,4.86060606 C60.9968687,1.39166473 54.9291855,-0.209440093 48.8606061,0.336363636 C48.1090909,0.406060606 47.3181818,0.527272727 46.7393939,1.0030303 C46.0787879,1.53939394 45.830303,2.41212121 45.3727273,3.12424242 C43.8212121,5.6030303 40.3363636,5.89393939 37.8363636,7.43939394 C34.9121212,9.25757576 33.4636364,12.7939394 33.3333333,16.2 C33.2030303,19.6060606 34.1848485,22.9484848 35.1515152,26.2212121 C35.9787879,29.0030303 36.8454545,31.8606061 38.6606061,34.1393939 C40.4757576,36.4181818 43.4878788,38.0090909 46.3393939,37.3242424 C45.0333333,36.3939394 45.9818182,34.2333333 47.3969697,33.4757576 C48.8121212,32.7181818 50.569697,32.5878788 51.7787879,31.5424242 C52.9878788,30.4969697 53.3515152,28.7848485 53.7454545,27.2272727 C54.2424242,25.2636364 54.9575758,23.269697 56.4121212,21.8363636 C59.2606061,19.0333333 64.3969697,20.6181818 67.8787879,21.0848485 Z" id="Path" fill="url(#linearGradient-18)"></path>
                    <g opacity="0.1" transform="translate(49.393939, 29.090909)" fill="url(#linearGradient-19)" id="Path">
                        <path d="M5.4969697,1.43030303 C5.25454545,3.12121212 4.71515152,6.04848485 3.7,7.8969697 C2.35754317,10.3025429 1.20944535,12.8115369 0.266666667,15.4 L0.266666667,15.4 C0.266666667,15.4 6.89090909,20.469697 10.2666667,23.9333333 C12.388951,26.1549475 15.6117277,26.9351862 18.5151515,25.930303 C20.269697,25.3 21.8060606,24.0818182 22.2151515,21.7969697 C22.8575758,18.1939394 22.0939394,15.4757576 21.3727273,13.8666667 C20.6694873,12.3288154 20.6606582,10.5629885 21.3484848,9.01818182 C21.5969697,8.47272727 21.8878788,8.04545455 22.2121212,7.93939394 C22.2121212,7.93939394 15.7393939,6.51818182 15.3787879,8.29393939 C15.0181818,10.069697 9.98484848,11.8484848 8.90606061,8.64848485 L8.6030303,1.59393939 C8.56405878,0.763238341 7.87705884,0.110989367 7.04545455,0.115077276 L7.04545455,0.115077276 C6.27413429,0.10766007 5.61444468,0.667944399 5.4969697,1.43030303 Z"></path>
                    </g>
                    <path d="M54.8909091,30.8787879 C54.6484848,32.569697 54.1090909,35.4969697 53.0939394,37.3454545 C51.7514826,39.7510278 50.6033847,42.2600218 49.6606061,44.8484848 L49.6606061,44.8484848 C49.6606061,44.8484848 56.2848485,49.9181818 59.6606061,53.3818182 C61.7828904,55.6034323 65.0056671,56.383671 67.9090909,55.3787879 C69.6636364,54.7484848 71.2,53.530303 71.6090909,51.2454545 C72.2515152,47.6424242 71.4878788,44.9242424 70.7666667,43.3151515 C70.0634267,41.7773002 70.0545976,40.0114733 70.7424242,38.4666667 C70.9909091,37.9212121 71.2818182,37.4939394 71.6060606,37.3878788 C71.6060606,37.3878788 65.1333333,35.9666667 64.7727273,37.7424242 C64.4121212,39.5181818 59.3787879,41.2969697 58.3,38.0969697 L57.9969697,31.0424242 C57.9579982,30.2117232 57.2709982,29.5594742 56.4393939,29.5635621 L56.4393939,29.5635621 C55.6680737,29.5561449 55.0083841,30.1164292 54.8909091,30.8787879 Z" id="Path" fill="url(#linearGradient-20)"></path>
                </g>
                <path d="M110.384848,183.669697 C110.384848,183.669697 85.1818182,174.348485 81.730303,187.466667 L91.3969697,212.315152 L92.4242424,228.215152 L113.484848,228.215152 L113.484848,214.745455 C113.484848,214.745455 110.378788,201.281818 118.333333,192.993939 L110.384848,183.669697 Z" id="Path" fill="#535461" fill-rule="nonzero"></path>
                <path d="M114.606061,109.69697 C113.536364,109.339394 112.245455,109.018182 111.375758,109.733333 C110.869697,110.148485 110.651515,110.815152 110.257576,111.339394 C108.951515,113.072727 106.318182,112.748485 104.239394,113.369697 C101.181818,114.278788 99.2969697,117.345455 98.2121212,120.339394 C93.4242424,133.578788 98.7606061,148.730303 94.5939394,162.175758 C93.3818182,166.133333 91.3606061,170.527273 93.3424242,174.166667 C94.0030303,175.378788 95.0787879,176.393939 95.4090909,177.736364 C95.8575758,179.554545 94.9939394,181.948485 96.5030303,183.057576 C96.9727273,183.40303 97.569697,183.509091 98.1333333,183.663636 C101.530303,184.572727 104.106061,187.245455 106.693939,189.624242 C109.281818,192.00303 112.39697,194.30303 115.906061,194.148485 C117.039148,194.053617 118.15759,193.828912 119.239394,193.478788 L136.663636,188.569697 C138.412121,188.075758 140.3,187.481818 141.321212,185.975758 C141.927273,185.066667 142.136364,183.921212 142.293939,182.821212 C142.895007,178.6375 143.179652,174.41441 143.145455,170.187879 C143.145455,168.793939 143.081818,167.366667 142.569697,166.069697 C141.963636,164.572727 140.824242,163.375758 139.975758,162.00303 C138.342424,159.360606 137.9,156.172727 137.49697,153.090909 C136.854545,148.184848 136.212121,143.181818 137.1,138.315152 C137.481818,136.227273 138.139394,134.19697 138.575758,132.121212 C139.283309,128.740349 139.396109,125.262026 138.909091,121.842424 C138.50303,119.00303 137.627273,116.121212 135.712121,113.984848 C134.461214,112.564403 132.752061,111.627264 130.881818,111.336364 C128.524242,111.033333 127.351515,112.415152 125.251515,112.927273 C122.145455,113.687879 117.593939,110.69697 114.606061,109.69697 Z" id="Path" fill="#000000" fill-rule="nonzero" opacity="0.1"></path>
                <path d="M114.606061,109.006061 C113.536364,108.648485 112.245455,108.327273 111.375758,109.042424 C110.869697,109.457576 110.651515,110.124242 110.257576,110.648485 C108.951515,112.381818 106.318182,112.057576 104.239394,112.678788 C101.181818,113.587879 99.2969697,116.654545 98.2121212,119.648485 C93.4242424,132.887879 98.7606061,148.039394 94.5939394,161.484848 C93.3818182,165.442424 91.3606061,169.836364 93.3424242,173.475758 C94.0030303,174.687879 95.0787879,175.70303 95.4090909,177.045455 C95.8575758,178.863636 94.9939394,181.257576 96.5030303,182.366667 C96.9727273,182.712121 97.569697,182.818182 98.1333333,182.972727 C101.530303,183.881818 104.106061,186.554545 106.693939,188.933333 C109.281818,191.312121 112.39697,193.612121 115.906061,193.457576 C117.039148,193.362708 118.15759,193.138003 119.239394,192.787879 L136.666667,187.881818 C138.415152,187.387879 140.30303,186.793939 141.324242,185.287879 C141.930303,184.378788 142.139394,183.233333 142.29697,182.133333 C142.898037,177.949621 143.182683,173.726531 143.148485,169.5 C143.148485,168.106061 143.084848,166.678788 142.572727,165.381818 C141.966667,163.884848 140.827273,162.687879 139.978788,161.315152 C138.345455,158.672727 137.90303,155.484848 137.5,152.40303 C136.857576,147.49697 136.215152,142.493939 137.10303,137.627273 C137.484848,135.539394 138.142424,133.509091 138.578788,131.433333 C139.286339,128.052471 139.399139,124.574147 138.912121,121.154545 C138.506061,118.315152 137.630303,115.433333 135.715152,113.29697 C134.467961,111.875003 132.762162,110.934722 130.893939,110.639394 C128.536364,110.336364 127.363636,111.718182 125.263636,112.230303 C122.145455,113 117.593939,110.006061 114.606061,109.006061 Z" id="Path" fill="#E0E0E0" fill-rule="nonzero"></path>
                <path d="M109.69697,82.8606061 C109.69697,82.8606061 110.042424,95.9787879 105.9,95.6333333 C101.757576,95.2878788 117.639394,117.384848 117.639394,117.384848 L131.10303,110.133333 C131.10303,110.133333 123.163636,97.3606061 128.678788,89.4181818 C134.193939,81.4757576 109.69697,82.8606061 109.69697,82.8606061 Z" id="Path" fill="#FDA57D" fill-rule="nonzero"></path>
                <path d="M86.5636364,194.375758 C86.5636364,194.375758 83.8030303,213.363636 76.8969697,208.184848 C69.9909091,203.006061 71.0272727,194.375758 71.0272727,194.375758 C71.0272727,194.375758 84.4909091,157.778788 83.8,152.254545 C83.1090909,146.730303 106.793939,103.784848 106.793939,103.784848 L115.560606,174.348485 C115.560606,174.348485 89.3242424,184.018182 86.5636364,194.375758 Z" id="Path" fill="#000000" fill-rule="nonzero" opacity="0.1"></path>
                <path d="M85.8727273,194.375758 C85.8727273,194.375758 83.1121212,213.363636 76.2060606,208.184848 C69.3,203.006061 70.3363636,194.375758 70.3363636,194.375758 C70.3363636,194.375758 83.8,157.778788 83.1090909,152.254545 C82.4181818,146.730303 106.10303,103.784848 106.10303,103.784848 L114.869697,174.348485 C114.869697,174.348485 88.6333333,184.018182 85.8727273,194.375758 Z" id="Path" fill="#F13C31" fill-rule="nonzero"></path>
                <path d="M110.384848,91.1454545 C110.384848,91.1454545 96.9212121,100.466667 91.7424242,100.121212 L87.7181818,101.227273 C79.5675044,103.467412 73.3917966,110.135157 71.7818182,118.433333 L71.7181818,118.763636 C69.6454545,129.812121 68.9575758,160.193939 68.9575758,160.193939 C68.9575758,160.193939 69.3030303,168.133333 72.7545455,170.193939 L94.8484848,185.4 C94.8484848,185.4 94.1575758,168.827273 102.445455,167.10303 C110.733333,165.378788 100.372727,166.412121 100.372727,166.412121 L85.1818182,157.433333 C85.1818182,157.433333 85.5272727,143.969697 89.669697,139.481818 C93.8121212,134.993939 108.312121,111.518182 108.312121,111.518182 L104.169697,97.0030303 L110.384848,91.1454545 Z" id="Path" fill="#F13C31" fill-rule="nonzero"></path>
                <path d="M125.230303,100.124242 C125.230303,100.124242 133.715152,102.369697 139.648485,103.457576 C141.531588,103.802716 143.135723,105.028348 143.963636,106.754545 C145.754545,110.49697 148.484848,117.257576 148.015152,122.9 L153.193939,143.269697 L168.042424,161.221212 L154.575758,167.445455 L139.393939,150.530303 L151.818182,182.651515 L128.684848,183.669697 C128.684848,183.669697 121.778788,131.881818 123.506061,123.251515 L125.230303,100.124242 Z" id="Path" fill="#000000" fill-rule="nonzero" opacity="0.1"></path>
                <path d="M125.921212,100.124242 C125.921212,100.124242 134.406061,102.369697 140.339394,103.457576 C142.222497,103.802716 143.826632,105.028348 144.654545,106.754545 C146.445455,110.49697 149.175758,117.257576 148.706061,122.9 L153.884848,143.269697 L168.733333,161.221212 L155.269697,167.436364 L140.078788,150.518182 L152.50303,182.639394 L129.372727,183.669697 C129.372727,183.669697 122.466667,131.881818 124.193939,123.251515 L125.921212,100.124242 Z" id="Path" fill="#F13C31" fill-rule="nonzero"></path>
                <polygon id="Path" fill="#E0E0E0" fill-rule="nonzero" points="109.251515 90.0484848 114.012121 113.415152 106.242424 117.384848 101.987879 96.3363636"></polygon>
                <polygon id="Path" fill="#E0E0E0" fill-rule="nonzero" points="122.29697 115.142424 125.921212 100.124242 130.581818 108.927273 128.166667 116.178788"></polygon>
                <path d="M135.415152,119.630303 C135.415152,119.630303 135.415152,143.106061 138.521212,144.833333" id="Path" fill="#000000" fill-rule="nonzero" opacity="0.1"></path>
                <path d="M90.8787879,125.487879 C90.8787879,125.487879 83.7121212,148.609091 85.7272727,151.030303" id="Path" fill="#000000" fill-rule="nonzero" opacity="0.1"></path>
                <path d="M89.4969697,157.260606 C89.4969697,157.260606 103.309091,166.290909 105.206061,166.436364" id="Path" fill="#000000" fill-rule="nonzero" opacity="0.1"></path>
                <path d="M110.039394,84.2424242 C110.039394,84.2424242 110.093939,86.2636364 109.906061,88.6969697 C112.758347,95.4439946 119.854517,99.3657269 127.084848,98.1909091 C126.993939,95.6060606 127.487879,93.0151515 129.027273,90.8 C134.545455,82.8606061 110.039394,84.2424242 110.039394,84.2424242 Z" id="Path" fill="#000000" fill-rule="nonzero" opacity="0.1"></path>
                <circle id="Oval" fill="#FDA57D" fill-rule="nonzero" cx="124.193939" cy="81.1363636" r="15.8818182"></circle>
                <path d="M134.269697,74.4606061 C136.193939,74.7181818 138.645455,74.0757576 139.015152,72.1727273 C139.484848,69.7636364 136.263636,68.2 135.766667,65.8090909 C135.578788,64.9 135.80303,63.9666667 135.693939,63.0545455 C135.478788,61.2121212 133.987879,59.7939394 132.472727,58.7242424 C127.674862,55.3591376 121.839162,53.8043827 116.00303,54.3363636 C115.281818,54.4060606 114.521212,54.5212121 113.963636,54.9818182 C113.330303,55.5030303 113.084848,56.3484848 112.651515,57.0484848 C111.160606,59.4545455 107.80303,59.7393939 105.418182,61.2393939 C102.609091,62.9939394 101.221212,66.4393939 101.093939,69.7484848 C100.966667,73.0575758 101.912121,76.3030303 102.845455,79.4787879 C103.639394,82.1818182 104.472727,84.9545455 106.215152,87.1666667 C107.957576,89.3787879 110.851515,90.9242424 113.584848,90.2575758 C112.330303,89.3484848 113.242424,87.2545455 114.6,86.5212121 C115.957576,85.7878788 117.630303,85.6606061 118.809091,84.6424242 C119.987879,83.6242424 120.324242,81.9636364 120.69697,80.4515152 C121.175758,78.5424242 121.866667,76.6090909 123.257576,75.2151515 C125.990909,72.4575758 130.909091,74.0090909 134.269697,74.4606061 Z" id="Path" fill="#000000" fill-rule="nonzero" opacity="0.1"></path>
                <path d="M133.939394,74.1151515 C135.863636,74.3727273 138.315152,73.730303 138.684848,71.8272727 C139.154545,69.4181818 135.933333,67.8545455 135.436364,65.4636364 C135.248485,64.5545455 135.472727,63.6212121 135.363636,62.7090909 C135.133333,60.8515152 133.636364,59.4272727 132.121212,58.3636364 C127.326208,54.9995566 121.494075,53.4438202 115.660606,53.9727273 C114.939394,54.0424242 114.178788,54.1575758 113.621212,54.6181818 C112.987879,55.1393939 112.742424,55.9848485 112.309091,56.6848485 C110.818182,59.0909091 107.460606,59.3757576 105.075758,60.8757576 C102.266667,62.630303 100.878788,66.0757576 100.751515,69.3848485 C100.624242,72.6939394 101.569697,75.9393939 102.50303,79.1151515 C103.29697,81.8181818 104.130303,84.5909091 105.872727,86.8030303 C107.615152,89.0151515 110.509091,90.5606061 113.242424,89.8939394 C111.987879,88.9848485 112.9,86.8909091 114.257576,86.1575758 C115.615152,85.4242424 117.287879,85.2969697 118.466667,84.2787879 C119.645455,83.2606061 119.981818,81.6 120.354545,80.0878788 C120.833333,78.1787879 121.524242,76.2454545 122.915152,74.8515152 C125.645455,72.1212121 130.575758,73.669697 133.939394,74.1151515 Z" id="Path" fill="#72351C" fill-rule="nonzero"></path>
                <path d="M121.448485,83.2787879 C121.215152,84.9212121 120.69697,87.7636364 119.721212,89.5575758 C118.431993,91.8910004 117.329558,94.3228422 116.424242,96.830303 L116.424242,96.830303 C116.424242,96.830303 122.787879,101.754545 126.015152,105.118182 C128.039263,107.272793 131.142611,108.032894 133.933333,107.057576 C135.618182,106.451515 137.093939,105.260606 137.484848,103.045455 C138.090909,99.5454545 137.369697,96.9060606 136.678788,95.3424242 C136.00892,93.8472007 136.004515,92.1380505 136.666667,90.6393939 C136.906061,90.1090909 137.184848,89.6969697 137.49697,89.5909091 C137.49697,89.5909091 131.281818,88.2090909 130.936364,89.9363636 C130.590909,91.6636364 125.757576,93.3878788 124.721212,90.2818182 L124.436364,83.430303 C124.403827,82.6273093 123.743046,81.9932805 122.939394,81.9938931 L122.939394,81.9938931 C122.190666,81.9880916 121.553257,82.537404 121.448485,83.2787879 Z" id="Path" fill="#000000" fill-rule="nonzero" opacity="0.1"></path>
                <path d="M121.448485,83.6242424 C121.215152,85.2666667 120.69697,88.1090909 119.721212,89.9030303 C118.431993,92.236455 117.329558,94.6682968 116.424242,97.1757576 L116.424242,97.1757576 C116.424242,97.1757576 122.787879,102.1 126.015152,105.463636 C128.039263,107.618248 131.142611,108.378348 133.933333,107.40303 C135.618182,106.79697 137.093939,105.606061 137.484848,103.390909 C138.090909,99.8909091 137.369697,97.2515152 136.678788,95.6878788 C136.002422,94.190495 135.99471,92.4761359 136.657576,90.9727273 C136.89697,90.4424242 137.175758,90.030303 137.487879,89.9242424 C137.487879,89.9242424 131.272727,88.5424242 130.927273,90.269697 C130.581818,91.9969697 125.757576,93.7363636 124.712121,90.6393939 L124.427273,83.7878788 C124.394736,82.9848851 123.733955,82.3508563 122.930303,82.3515087 L122.930303,82.3515087 C122.189007,82.3493585 121.558248,82.8911144 121.448485,83.6242424 L121.448485,83.6242424 Z" id="Path" fill="#72351C" fill-rule="nonzero"></path>
                <path d="M244.848485,181.851515 C244.848485,181.851515 238.609091,175.606061 236.315152,167.306061 L236.851515,167.306061 L236.593939,166.584848 L236.851515,166.584848 L236.039394,164.275758 C238.339394,162.015152 240.039394,159.824242 240.315152,158.578788 C240.781818,156.481818 241.245455,145.136364 241.527273,137.251515 L241.775758,137.312121 C242.381818,136.275758 242.509091,134.969697 242.466667,133.784848 C242.489591,132.453939 242.318086,131.126812 241.957576,129.845455 L240.833333,118.587879 C240.614674,116.494865 239.546612,114.583308 237.878788,113.3 L226.484848,104.460606 C227.084504,103.651788 227.846154,102.97683 228.721212,102.478788 C229.372727,102.133333 230.130303,101.89697 230.569697,101.306061 C231.363636,100.236364 230.687879,98.6424242 231.230303,97.4242424 C231.636364,96.5151515 232.636364,96.0060606 233.221212,95.1909091 C234.418182,93.5212121 233.551515,91.2151515 232.657576,89.3666667 L227.463636,78.630303 C226.024242,75.6575758 224.572727,72.6606061 222.560606,70.0424242 C216.4,62.0181818 204.545455,58.0272727 194.881818,61.5060606 C192.127273,62.4969697 189.590909,64.4 188.415152,67.0787879 C188.006061,68.0121212 187.760606,69.030303 187.166667,69.8575758 C185.842424,71.7030303 183.257576,72.0515152 181.409091,73.3787879 C179.048485,75.0848485 178.172727,78.2969697 178.50303,81.1909091 C178.833333,84.0848485 180.160606,86.7575758 181.469697,89.3727273 C182.845455,92.1 184.266667,94.9090909 186.524242,96.9757576 C187.578788,97.9424242 188.869697,98.8393939 189.206061,100.230303 C189.493939,101.424242 188.984848,102.654545 189.090909,103.890909 C189.135153,104.405175 189.285815,104.904628 189.533333,105.357576 C184.433333,105.99697 180.815152,110.233333 179.193939,116.536364 C179.093939,116.927273 179.054545,117.142424 179.054545,117.142424 L178.336364,123.669697 C178.321212,123.951515 178.336364,124.224242 178.336364,124.493939 C178.271151,125.962593 178.584179,127.423386 179.245455,128.736364 L179.245455,151.654545 L157.427273,165.466667 C154.154545,166.921212 154.881818,178.554545 161.427273,180.733333 C167.972727,182.912121 173.793939,169.124242 173.793939,169.124242 C177.778788,168.857576 184.481818,163.542424 188.084848,159.427273 C188.571806,160.213278 189.219266,160.887586 189.984848,161.406061 C187.384848,167.266667 182.242424,179.390909 183.063636,181.851515 C183.557576,183.336364 196.327273,183.472727 210.130303,183.181818 C210.483273,183.377969 210.853516,183.541281 211.236364,183.669697 C212.709091,184.160606 214.145455,183.839394 215.478788,183.048485 C230.412121,182.621212 244.848485,181.851515 244.848485,181.851515 Z M226.421212,137.412121 C226.724242,136.572727 227.718182,136.115152 229.048485,135.89697 L229.048485,144.736364 L226.421212,137.412121 Z M225.151515,106.351515 L225.151515,106.351515 L225.193939,106.287879 L225.151515,106.351515 Z" id="Shape" fill="url(#linearGradient-21)" fill-rule="nonzero"></path>
                <path d="M192.381818,126.363636 C192.381818,126.363636 191.690909,150.875758 191,153.984848 C190.309091,157.093939 180.30303,166.39697 175.118182,166.757576 C175.118182,166.757576 169.593939,179.875758 163.378788,177.806061 C157.163636,175.736364 156.472727,164.687879 159.581818,163.306061 L180.30303,150.184848 L180.30303,123.945455 L192.381818,126.363636 Z" id="Path" fill="#FDB797" fill-rule="nonzero"></path>
                <path d="M191.863636,156.39697 C191.863636,156.39697 182.887879,175.730303 183.924242,178.839394 C184.960606,181.948485 242.615152,178.839394 242.615152,178.839394 C242.615152,178.839394 231.912121,168.136364 233.984848,156.39697 L191.863636,156.39697 Z" id="Path" fill="#3AD29F" fill-rule="nonzero"></path>
                <path d="M198.769697,99.0878788 C198.769697,99.0878788 200.151515,112.551515 197.733333,115.660606 C195.315152,118.769697 207.4,120.509091 208.436364,120.509091 C209.472727,120.509091 220.521212,116.712121 222.590909,115.660606 C224.660606,114.609091 226.387879,107.030303 226.387879,107.030303 C226.387879,107.030303 216.030303,109.10303 212.924242,97.030303 L198.769697,99.0878788 Z" id="Path" fill="#FDB797" fill-rule="nonzero"></path>
                <path d="M195.151515,64.5484848 C192.536364,65.4909091 190.124242,67.2969697 189.009091,69.8424242 C188.621212,70.7272727 188.387879,71.6939394 187.824242,72.4818182 C186.566667,74.2333333 184.112121,74.5636364 182.369697,75.8151515 C180.127273,77.4363636 179.29697,80.4848485 179.609091,83.2363636 C179.921212,85.9878788 181.181818,88.5242424 182.424242,90.9969697 C183.730303,93.5939394 185.081818,96.2545455 187.224242,98.2181818 C188.224242,99.1272727 189.451515,99.9878788 189.769697,101.309091 C190.042424,102.442424 189.560606,103.627273 189.660606,104.787879 C189.909091,107.657576 193.339394,108.993939 196.20303,109.312121 C197.448485,109.451515 198.872727,109.457576 199.751515,108.563636 C200.2,108.10303 200.427273,107.478788 200.709091,106.90303 C202.037812,104.214006 204.765186,102.500087 207.764421,102.469365 C210.763655,102.438643 213.525566,104.096334 214.909091,106.757576 C215.581818,108.048485 215.972727,109.618182 217.193939,110.393939 C219.063636,111.606061 221.566667,110.184848 222.951515,108.433333 C224.336364,106.681818 225.330303,104.493939 227.29697,103.442424 C227.90303,103.112121 228.636364,102.890909 229.054545,102.327273 C229.809091,101.312121 229.166667,99.7969697 229.681818,98.6424242 C230.069697,97.7727273 231.018182,97.2969697 231.572727,96.5212121 C232.709091,94.9363636 231.875758,92.7454545 231.036364,90.9909091 L226.10303,80.7939394 C224.736364,77.969697 223.357576,75.1242424 221.448485,72.6363636 C215.584848,65.0363636 204.327273,61.2454545 195.151515,64.5484848 Z" id="Path" fill="#F13C31" fill-rule="nonzero"></path>
                <path d="M207.745455,118.075758 C207.745455,118.075758 221.209091,118.075758 224.663636,105.651515 L235.99697,114.439394 C237.578441,115.665436 238.586486,117.487587 238.784848,119.478788 L239.854545,130.169697 C239.854545,130.169697 241.066667,134.139394 239.681818,136.557576 C239.681818,136.557576 225.354545,132.921212 225.009091,137.075758 L235.009091,165.039394 C235.009091,165.039394 219.472727,165.384848 215.330303,162.615152 C215.330303,162.615152 198.412121,166.066667 194.269697,162.269697 C190.127273,158.472727 185.984848,158.818182 189.421212,150.184848 C189.421212,150.184848 182.515152,143.278788 185.624242,133.612121 C188.733333,123.945455 185.79697,133.784848 185.79697,133.784848 C185.79697,133.784848 179.090909,130.506061 179.436364,124.275758 L180.127273,118.060606 C180.127273,118.060606 180.163636,117.854545 180.260606,117.484848 C182.366667,109.30303 188.021212,104.757576 195.972727,107.654545 C198.29697,108.49697 200.672727,107.530303 200.672727,107.530303 C200.672727,107.530303 198.078788,118.766667 207.745455,118.075758 Z" id="Path" fill="#000000" fill-rule="nonzero" opacity="0.1"></path>
                <path d="M207.745455,117.384848 C207.745455,117.384848 221.209091,117.384848 224.663636,104.960606 L235.99697,113.748485 C237.578441,114.974527 238.586486,116.796678 238.784848,118.787879 L239.854545,129.478788 C239.854545,129.478788 241.066667,133.448485 239.681818,135.866667 C239.681818,135.866667 225.354545,132.230303 225.009091,136.384848 L235.009091,164.348485 C235.009091,164.348485 219.472727,164.693939 215.330303,161.924242 C215.330303,161.924242 198.412121,165.375758 194.269697,161.578788 C190.127273,157.781818 185.984848,158.127273 189.421212,149.493939 C189.421212,149.493939 182.515152,142.587879 185.624242,132.921212 C188.733333,123.254545 185.79697,133.093939 185.79697,133.093939 C185.79697,133.093939 179.090909,129.815152 179.436364,123.6 L180.127273,117.384848 C180.127273,117.384848 180.163636,117.178788 180.260606,116.809091 C182.366667,108.627273 188.021212,104.081818 195.972727,106.978788 C198.29697,107.821212 200.672727,106.854545 200.672727,106.854545 C200.672727,106.854545 198.078788,118.075758 207.745455,117.384848 Z" id="Path" fill="#252A62" fill-rule="nonzero"></path>
                <path d="M239.681818,129.124242 C239.681818,129.124242 238.990909,153.636364 238.3,156.745455 C237.609091,159.854545 227.59697,169.169697 222.418182,169.518182 C222.418182,169.518182 216.893939,182.636364 210.678788,180.566667 C204.463636,178.49697 203.772727,167.448485 206.881818,166.066667 L227.59697,152.948485 L227.59697,126.7 L239.681818,129.124242 Z" id="Path" fill="#FDB797" fill-rule="nonzero"></path>
                <path d="M224.848485,129.987879 C224.848485,129.987879 232.787879,135.375758 239.69697,134.927273 C239.69697,134.927273 240.387879,125.672727 238.315152,125.154545 C236.242424,124.636364 227.251515,125.154545 224.848485,129.987879 Z" id="Path" fill="#000000" fill-rule="nonzero" opacity="0.1"></path>
                <path d="M224.848485,129.642424 C224.848485,129.642424 232.787879,135.030303 239.69697,134.581818 C239.69697,134.581818 240.387879,125.327273 238.315152,124.809091 C236.242424,124.290909 227.251515,124.809091 224.848485,129.642424 Z" id="Path" fill="#252A62" fill-rule="nonzero"></path>
                <path d="M213.615152,97.7060606 L199.460606,99.7787879 C199.460606,99.7787879 199.778788,102.893939 199.842424,106.472727 C205.457762,108.840949 211.932911,107.788443 216.509091,103.763636 C215.315152,102.306061 214.293939,100.336364 213.615152,97.7060606 Z" id="Path" fill="#000000" fill-rule="nonzero" opacity="0.1"></path>
                <circle id="Oval" fill="#FDB797" fill-rule="nonzero" cx="205.330303" cy="91.1484848" r="15.8818182"></circle>
                <path d="M209.515152,88.0939394 C208.838601,88.3482775 208.114643,88.4517 207.393939,88.3969697 C204.585859,88.3787879 201.778788,88.2777778 198.972727,88.0939394 C196.851515,87.9515152 194.578788,87.7 192.939394,86.3393939 C190.733333,84.5212121 190.384848,81.0757576 191.524242,78.4454545 C192.663636,75.8151515 194.987879,73.8757576 197.442424,72.3848485 C198.828719,71.510401 200.329995,70.8331948 201.90303,70.3727273 C206.448485,69.1363636 211.490909,70.6545455 215.106061,73.6848485 C218.721212,76.7151515 221.027273,81.0909091 222.248485,85.6484848 C222.669697,87.2242424 223.212121,89.1030303 224.772727,89.5878788 C223.733333,91.3151515 221.19697,91.5909091 219.378788,90.7242424 C216.693939,89.4484848 215.318182,84.5636364 212.909091,83.7939394 C210.221212,82.930303 211.784848,87.0515152 209.515152,88.0939394 Z" id="Path" fill="#000000" fill-rule="nonzero" opacity="0.1"></path>
                <path d="M209.515152,87.7484848 C208.838601,88.0028229 208.114643,88.1062455 207.393939,88.0515152 C204.585859,88.0333333 201.778788,87.9323232 198.972727,87.7484848 C196.851515,87.6060606 194.578788,87.3545455 192.939394,85.9939394 C190.733333,84.1757576 190.384848,80.730303 191.524242,78.1 C192.663636,75.469697 194.987879,73.530303 197.442424,72.0393939 C198.828111,71.1673147 200.328336,70.4921623 201.9,70.0333333 C206.445455,68.7969697 211.487879,70.3151515 215.10303,73.3454545 C218.718182,76.3757576 221.024242,80.7515152 222.245455,85.3090909 C222.666667,86.8848485 223.209091,88.7636364 224.769697,89.2484848 C223.730303,90.9757576 221.193939,91.2515152 219.375758,90.3848485 C216.690909,89.1090909 215.315152,84.2242424 212.906061,83.4545455 C210.221212,82.5848485 211.784848,86.7 209.515152,87.7484848 Z" id="Path" fill="#F13C31" fill-rule="nonzero"></path>
                <path d="M189.275758,149.321212 C194.453992,147.937642 199.791634,147.240763 205.151515,147.248485" id="Path" fill="#000000" fill-rule="nonzero" opacity="0.1"></path>
                <path d="M224.848485,130.678788 C224.848485,130.678788 219.669697,134.475758 221.051515,136.548485" id="Path" fill="#000000" fill-rule="nonzero" opacity="0.1"></path>
                <g id="Group" opacity="0.7" transform="translate(90.606061, 168.181818)" fill="url(#linearGradient-22)" fill-rule="nonzero">
                    <polygon id="Path" points="169.790909 0.127272727 0.272727273 0.127272727 0.272727273 14.9515152 10.1393939 14.9515152 10.1393939 17.8424242 10.1393939 61.5818182 160.275758 61.5818182 160.275758 17.8424242 160.275758 14.9515152 169.790909 14.9515152"></polygon>
                </g>
                <rect id="Rectangle" fill="#E0E0E0" fill-rule="nonzero" x="102.272727" y="176.942424" width="147.075758" height="52.8242424"></rect>
                <rect id="Rectangle" fill="#000000" fill-rule="nonzero" opacity="0.1" x="102.272727" y="179.70303" width="147.075758" height="8.28484848"></rect>
                <rect id="Rectangle" fill="#E0E0E0" fill-rule="nonzero" x="92.6060606" y="171.072727" width="166.063636" height="14.1545455"></rect>
                <rect id="Rectangle" fill="#535461" fill-rule="nonzero" x="116.406061" y="167.587879" width="31.7636364" height="4.48787879" rx="1.96969697"></rect>
                <g id="Group" opacity="0.7" transform="translate(135.454545, 117.272727)" fill="url(#linearGradient-23)" fill-rule="nonzero">
                    <rect id="Rectangle" x="0.284848485" y="0.275757576" width="78.9454545" height="54.5848485" rx="8.55151515"></rect>
                </g>
                <rect id="Rectangle" fill="#3E3F49" fill-rule="nonzero" x="137.145455" y="118.554545" width="74.7848485" height="53.5757576" rx="8.13333333"></rect>
                <rect id="Rectangle" fill="#535461" fill-rule="nonzero" x="138.181818" y="118.554545" width="74.7848485" height="53.5757576" rx="8.13333333"></rect>
                <circle id="Oval" fill="#E0E0E0" fill-rule="nonzero" cx="179.066667" cy="144.975758" r="2.41818182"></circle>
                <path d="M80.1757576,177.975758 C80.1757576,177.975758 82.2181818,180.972727 88.2757576,181.890909" id="Path" fill="#000000" fill-rule="nonzero" opacity="0.1"></path>
                <path d="M134.242424,24.2424242 L112.727273,24.2424242 L112.727273,12.1212121 L134.242424,12.1212121 L134.242424,24.2424242 Z M113.636364,23.3333333 L133.333333,23.3333333 L133.333333,13.030303 L113.636364,13.030303 L113.636364,23.3333333 Z" id="Shape" fill="#F13C31" fill-rule="nonzero" opacity="0.2"></path>
                <path d="M155.757576,24.2424242 L134.242424,24.2424242 L134.242424,12.1212121 L155.757576,12.1212121 L155.757576,24.2424242 Z M135.151515,23.3333333 L154.848485,23.3333333 L154.848485,13.030303 L135.151515,13.030303 L135.151515,23.3333333 Z" id="Shape" fill="#F13C31" fill-rule="nonzero" opacity="0.2"></path>
                <path d="M177.272727,24.2424242 L155.757576,24.2424242 L155.757576,12.1212121 L177.272727,12.1212121 L177.272727,24.2424242 Z M156.666667,23.3333333 L176.363636,23.3333333 L176.363636,13.030303 L156.666667,13.030303 L156.666667,23.3333333 Z" id="Shape" fill="#F13C31" fill-rule="nonzero" opacity="0.2"></path>
                <path d="M198.787879,24.2424242 L177.272727,24.2424242 L177.272727,12.1212121 L198.787879,12.1212121 L198.787879,24.2424242 Z M178.181818,23.3333333 L197.878788,23.3333333 L197.878788,13.030303 L178.181818,13.030303 L178.181818,23.3333333 Z" id="Shape" fill="#F13C31" fill-rule="nonzero" opacity="0.2"></path>
                <path d="M177.272727,12.1212121 L155.757576,12.1212121 L155.757576,0 L177.272727,0 L177.272727,12.1212121 Z M156.666667,11.2121212 L176.363636,11.2121212 L176.363636,0.909090909 L156.666667,0.909090909 L156.666667,11.2121212 Z" id="Shape" fill="#F13C31" fill-rule="nonzero" opacity="0.2"></path>
                <path d="M155.757576,12.1212121 L134.242424,12.1212121 L134.242424,0 L155.757576,0 L155.757576,12.1212121 Z M135.151515,11.2121212 L154.848485,11.2121212 L154.848485,0.909090909 L135.151515,0.909090909 L135.151515,11.2121212 Z" id="Shape" fill="#F13C31" fill-rule="nonzero" opacity="0.2"></path>
                <path d="M54.5454545,24.2424242 L33.030303,24.2424242 L33.030303,12.1212121 L54.5454545,12.1212121 L54.5454545,24.2424242 Z M33.9393939,23.3333333 L53.6363636,23.3333333 L53.6363636,13.030303 L33.9393939,13.030303 L33.9393939,23.3333333 Z" id="Shape" fill="#F13C31" fill-rule="nonzero" opacity="0.2"></path>
                <path d="M76.0606061,24.2424242 L54.5454545,24.2424242 L54.5454545,12.1212121 L76.0606061,12.1212121 L76.0606061,24.2424242 Z M55.4545455,23.3333333 L75.1515152,23.3333333 L75.1515152,13.030303 L55.4545455,13.030303 L55.4545455,23.3333333 Z" id="Shape" fill="#F13C31" fill-rule="nonzero" opacity="0.2"></path>
                <path d="M76.0606061,12.1212121 L54.5454545,12.1212121 L54.5454545,0 L76.0606061,0 L76.0606061,12.1212121 Z M55.4545455,11.2121212 L75.1515152,11.2121212 L75.1515152,0.909090909 L55.4545455,0.909090909 L55.4545455,11.2121212 Z" id="Shape" fill="#F13C31" fill-rule="nonzero" opacity="0.2"></path>
                <path d="M242.424242,24.2424242 L220.909091,24.2424242 L220.909091,12.1212121 L242.424242,12.1212121 L242.424242,24.2424242 Z M221.818182,23.3333333 L241.515152,23.3333333 L241.515152,13.030303 L221.818182,13.030303 L221.818182,23.3333333 Z" id="Shape" fill="#F13C31" fill-rule="nonzero" opacity="0.2"></path>
                <path d="M263.939394,24.2424242 L242.424242,24.2424242 L242.424242,12.1212121 L263.939394,12.1212121 L263.939394,24.2424242 Z M243.333333,23.3333333 L263.030303,23.3333333 L263.030303,13.030303 L243.333333,13.030303 L243.333333,23.3333333 Z" id="Shape" fill="#F13C31" fill-rule="nonzero" opacity="0.2"></path>
                <path d="M263.939394,12.1212121 L242.424242,12.1212121 L242.424242,0 L263.939394,0 L263.939394,12.1212121 Z M243.333333,11.2121212 L263.030303,11.2121212 L263.030303,0.909090909 L243.333333,0.909090909 L243.333333,11.2121212 Z" id="Shape" fill="#F13C31" fill-rule="nonzero" opacity="0.2"></path>
            </g>
        </g>
    </g>
</svg>