<?xml version="1.0" encoding="UTF-8"?>
<svg width="300px" height="220px" viewBox="0 0 300 220" version="1.1" xmlns="http://www.w3.org/2000/svg" xmlns:xlink="http://www.w3.org/1999/xlink">
    <!-- Generator: Sketch 61.2 (89653) - https://sketch.com -->
    <title>landing-page-graphics-feature-11</title>
    <desc>Created with Sketch.</desc>
    <defs>
        <linearGradient x1="50.0011621%" y1="100.00118%" x2="50.0011621%" y2="-0.0158321861%" id="linearGradient-1">
            <stop stop-color="#808080" stop-opacity="0.25" offset="0%"></stop>
            <stop stop-color="#808080" stop-opacity="0.12" offset="54%"></stop>
            <stop stop-color="#808080" stop-opacity="0.1" offset="100%"></stop>
        </linearGradient>
    </defs>
    <g id="Page-1" stroke="none" stroke-width="1" fill="none" fill-rule="evenodd">
        <g id="Tech" transform="translate(-148.000000, -890.000000)">
            <g id="landing-page-graphics-feature-11" transform="translate(148.000000, 890.000000)">
                <path d="M97.8096591,139.555039 C107.727273,135.652455 123.295455,134.856589 137.465909,135.169251 C181.977273,136.144186 222.15625,145.629199 256.909091,156.359173 C269.491477,160.244703 281.877841,164.431525 290.045455,169.780879 C306.670455,180.670026 301.738636,195.754522 278.622159,204.725065 C270.755682,207.777778 261.221591,210.125581 251.431818,212.189147 C234.022727,215.878553 215.25,218.837468 195.494318,219.690181 C181.409091,220.289922 167.147727,219.801034 153.144886,218.962532 C114.017045,216.611886 75.6136364,211.447287 43.4232955,202.570543 C29.3039773,198.685013 15.9971591,193.852972 10.1846591,187.562791 C4.37215909,181.27261 8.08806818,173.308269 22.5056818,169.584755 C28.4715909,168.047028 35.5965909,167.350646 42.5767045,166.699742 C52.8494318,165.739018 63.2869318,164.789664 72.5568182,162.836951 C82.1335227,160.818863 93.4715909,156.916279 91.5767045,152.450904 C89.5340909,147.658656 87.9034091,143.451938 97.8096591,139.555039 Z" id="Shape" fill="#F13C31" fill-rule="nonzero" opacity="0.1"></path>
                <path d="M143.005682,8.56408269 L141.923295,71.3806202 C141.923295,71.3806202 181.105114,71.3806202 214.440341,82.2100775 L215.090909,18.7341085 C215.090909,18.7341085 161.622159,5.96614987 143.005682,8.56408269 Z" id="Shape" fill="#000000" fill-rule="nonzero" opacity="0.1"></path>
                <path d="M142.4375,7.71136951 L141.355114,70.527907 C141.355114,70.527907 180.536932,70.527907 213.872159,81.3573643 L214.522727,17.8813953 C214.522727,17.8813953 161.053977,5.11343669 142.4375,7.71136951 Z" id="Shape" fill="#FDEBEA" fill-rule="nonzero"></path>
                <path d="M126.318182,8.51576227 L127.400568,71.3322997 C127.400568,71.3322997 88.21875,71.3322997 54.8835227,82.1617571 L54.2329545,18.7028424 C54.2329545,18.7028424 107.701705,5.91782946 126.318182,8.51576227 Z" id="Shape" fill="#000000" fill-rule="nonzero" opacity="0.1"></path>
                <path d="M126.886364,7.6630491 L127.96875,70.4795866 C127.96875,70.4795866 88.7869318,70.4795866 55.4517045,81.3090439 L54.8011364,17.8501292 C54.8011364,17.8501292 108.269886,5.06511628 126.886364,7.6630491 Z" id="Shape" fill="#FDEBEA" fill-rule="nonzero"></path>
                <path d="M224.548295,27.6904393 L224.548295,89.8503876 C224.548295,89.8503876 237.332386,88.3354005 264.161932,121.471835 L266.545455,59.3118863 C266.545455,59.3118863 238.619318,29.2082687 224.548295,27.6904393 Z" id="Shape" fill="#000000" fill-rule="nonzero" opacity="0.1"></path>
                <path d="M223.980114,27.1219638 L223.980114,89.2819121 C223.980114,89.2819121 236.764205,87.7669251 263.59375,120.903359 L265.977273,58.7434109 C265.977273,58.7434109 238.051136,28.6397933 223.980114,27.1219638 Z" id="Shape" fill="#FDEBEA" fill-rule="nonzero"></path>
                <path d="M45.4715909,29.5351421 L45.4715909,91.6979328 C45.4715909,91.6979328 32.6875,90.1829457 5.85795455,123.31938 L3.47727273,61.1594315 C3.47727273,61.1594315 31.4005682,31.055814 45.4715909,29.5351421 Z" id="Shape" fill="#000000" fill-rule="nonzero" opacity="0.1"></path>
                <path d="M46.0397727,28.6824289 L46.0397727,90.8452196 C46.0397727,90.8452196 33.2556818,89.3302326 6.42613636,122.466667 L4.04545455,60.3067183 C4.04545455,60.3067183 31.96875,30.2031008 46.0397727,28.6824289 Z" id="Shape" fill="#FDEBEA" fill-rule="nonzero"></path>
                <path d="M189.789773,133.500775 C189.789773,135.618346 176.349432,147.85478 145.755682,147.85478 C115.161932,147.85478 98.5965909,136.044703 98.5965909,133.927132 C98.5965909,131.809561 115.730114,137.053747 146.323864,137.053747 C176.917614,137.053747 189.789773,131.380362 189.789773,133.500775 Z" id="Shape" fill="#F7F7FD" fill-rule="nonzero"></path>
                <ellipse id="Oval" fill="#F13C31" fill-rule="nonzero" opacity="0.1" cx="89.8039773" cy="103.888889" rx="3.25568182" ry="1"></ellipse>
                <ellipse id="Oval" fill="#F13C31" fill-rule="nonzero" opacity="0.1" cx="77.3352273" cy="105.153747" rx="3.25568182" ry="1"></ellipse>
                <ellipse id="Oval" fill="#F13C31" fill-rule="nonzero" opacity="0.1" cx="62.6534091" cy="103.442636" rx="3.25568182" ry="1"></ellipse>
                <ellipse id="Oval" fill="#F13C31" fill-rule="nonzero" opacity="0.1" cx="82.3267045" cy="108.755039" rx="2.3125" ry="1"></ellipse>
                <ellipse id="Oval" fill="#F13C31" fill-rule="nonzero" opacity="0.1" cx="69.3863636" cy="108.436693" rx="2.3125" ry="1"></ellipse>
                <path d="M77.2670455,105.054264 C77.2670455,105.054264 81.8295455,90.0834625 76.5511364,84.0888889 C72.6022727,79.6036176 68.1136364,80.1294574 66.125,80.6979328 C65.0737791,80.9778239 64.1982834,81.7051829 63.7301136,82.6875969 C63.0284091,84.202584 63.1619318,86.6669251 68.1107955,89.5320413 C76.4034091,94.3356589 76.9176136,100.927132 76.9176136,100.927132 L77.2670455,105.054264 Z" id="Shape" fill="#F13C31" fill-rule="nonzero"></path>
                <path d="M66.8295455,82.8183463 C66.8295455,82.8183463 80.2840909,87.027907 77.2670455,105.054264" id="Shape" stroke="#565987" stroke-width="0.555555556"></path>
                <path d="M74.6875,84.3276486 C74.6875,84.3276486 72.8352273,85.5754522 73.4232955,87.4542636" id="Shape" stroke="#565987" stroke-width="0.555555556"></path>
                <path d="M68.1789773,85.4390181 C68.1789773,85.4390181 69.3153409,84.2850129 70.6875,84.9217054" id="Shape" stroke="#565987" stroke-width="0.555555556"></path>
                <path d="M73.5113636,91.2346253 C73.5113636,91.2346253 75.5,90.2255814 76.0142045,91.4904393" id="Shape" stroke="#565987" stroke-width="0.555555556"></path>
                <path d="M78.4176136,93.3408269 C78.4176136,93.3408269 76.9232955,93.221447 76.8977273,93.9348837" id="Shape" stroke="#565987" stroke-width="0.555555556"></path>
                <path d="M77.4517045,105.173643 C77.4517045,105.173643 72.1051136,94.2930233 70.6335227,94.5317829 C69.9375,94.645478 69.6164773,95.330491 69.46875,96.0211886 C69.2860232,96.9123035 69.3853212,97.8382392 69.7528409,98.6702842 C70.5227273,100.409819 72.5596591,103.721189 77.4517045,105.173643 Z" id="Shape" fill="#F13C31" fill-rule="nonzero"></path>
                <path d="M70.6704545,96.5953488 C70.6704545,96.5953488 76.28125,104.735917 77.3664773,105.094057" id="Shape" stroke="#565987" stroke-width="0.555555556"></path>
                <line x1="70.1619318" y1="97.8658915" x2="71.4715909" y2="97.8658915" id="Shape" stroke="#565987" stroke-width="0.555555556"></line>
                <line x1="71.7301136" y1="100.844703" x2="73.78125" y2="100.932771" id="Shape" stroke="#565987" stroke-width="0.555555556"></line>
                <line x1="72.9801136" y1="98.4627907" x2="72.7556818" y2="99.5315245" id="Shape" stroke="#565987" stroke-width="0.555555556"></line>
                <line x1="75.1619318" y1="101.717313" x2="75.1221591" y2="102.689406" id="Shape" stroke="#565987" stroke-width="0.555555556"></line>
                <path d="M77.2926136,105.173643 C77.2926136,105.173643 82.6363636,94.2930233 84.1107955,94.5317829 C84.8096591,94.645478 85.1306818,95.330491 85.2755682,96.0211886 C85.4569667,96.9123665 85.3577123,97.8378957 84.9914773,98.6702842 C84.2215909,100.409819 82.1846591,103.721189 77.2926136,105.173643 Z" id="Shape" fill="#F13C31" fill-rule="nonzero"></path>
                <path d="M84.0653409,96.5953488 C84.0653409,96.5953488 78.4545455,104.735917 77.3721591,105.094057" id="Shape" stroke="#565987" stroke-width="0.555555556"></path>
                <line x1="84.5823864" y1="97.8658915" x2="83.2727273" y2="97.8658915" id="Shape" stroke="#565987" stroke-width="0.555555556"></line>
                <line x1="83.0142045" y1="100.844703" x2="80.9602273" y2="100.932771" id="Shape" stroke="#565987" stroke-width="0.555555556"></line>
                <line x1="81.7642045" y1="98.4627907" x2="81.9886364" y2="99.5315245" id="Shape" stroke="#565987" stroke-width="0.555555556"></line>
                <line x1="79.5823864" y1="101.717313" x2="79.6221591" y2="102.689406" id="Shape" stroke="#565987" stroke-width="0.555555556"></line>
                <path d="M68.1136364,107.714729 C67.9679212,107.595691 67.8618923,107.435078 67.8096591,107.254264 C67.7602963,107.067909 67.8495484,106.872644 68.0227273,106.788114 C68.2159091,106.71137 68.4261364,106.847804 68.5909091,106.984238 C68.7274626,107.145202 68.9254734,107.241163 69.1363636,107.248579 C68.9199471,107.052101 68.8219049,106.756745 68.8778409,106.469767 C68.8888873,106.411402 68.9142706,106.356702 68.9517045,106.310594 C69.0596591,106.194057 69.2556818,106.24522 69.3863636,106.336176 C69.7982955,106.620413 69.9119318,107.188889 69.9147727,107.69199 C69.9369742,107.503149 69.9369742,107.312355 69.9147727,107.123514 C69.8976172,106.933831 69.976542,106.748155 70.125,106.628941 C70.2226533,106.576287 70.3322758,106.549847 70.4431818,106.552196 C70.6295781,106.525579 70.8185131,106.579293 70.9630682,106.7 C71.102751,106.892843 71.0945758,107.155753 70.9431818,107.339535 C70.7898694,107.512076 70.6082937,107.657219 70.40625,107.768734 C70.2517357,107.859567 70.1204398,107.985093 70.0227273,108.135401 C70.0103815,108.155825 70.0008268,108.177812 69.9943182,108.200775 L68.8295455,108.200775 C68.571088,108.070106 68.3304818,107.906753 68.1136364,107.714729 Z" id="Shape" fill="#F13C31" fill-rule="nonzero"></path>
                <path d="M88.4829545,103.331783 C88.3374469,103.213744 88.2313998,103.054095 88.1789773,102.87416 C88.1292698,102.687008 88.2184284,102.490757 88.3920455,102.405168 C88.6034506,102.364019 88.8206116,102.440064 88.9602273,102.604134 C89.0961774,102.765495 89.2948055,102.860721 89.5056818,102.865633 C89.288778,102.669473 89.1906425,102.373836 89.2471591,102.086822 C89.2568926,102.028891 89.2824569,101.974785 89.3210227,101.930491 C89.4289773,101.813953 89.625,101.862274 89.7556818,101.95323 C90.1676136,102.237468 90.28125,102.805943 90.2840909,103.311886 C90.3060854,103.123033 90.3060854,102.932264 90.2840909,102.743411 C90.2669354,102.553727 90.3458602,102.368051 90.4943182,102.248837 C90.5917065,102.19576 90.7017006,102.170212 90.8125,102.174935 C90.9989942,102.146826 91.1885319,102.200712 91.3323864,102.322739 C91.472629,102.514373 91.4644283,102.776933 91.3125,102.959432 C91.1591875,103.131972 90.9776119,103.277116 90.7755682,103.38863 C90.621669,103.480276 90.490541,103.605641 90.3920455,103.755297 C90.3796997,103.775721 90.3701449,103.797708 90.3636364,103.820672 L89.1988636,103.820672 C88.9396526,103.690129 88.6989127,103.525729 88.4829545,103.331783 L88.4829545,103.331783 Z" id="Shape" fill="#F13C31" fill-rule="nonzero"></path>
                <path d="M81.6931818,107.714729 C81.5474666,107.595691 81.4414378,107.435078 81.3892045,107.254264 C81.3410094,107.06801 81.429934,106.873461 81.6022727,106.788114 C81.7982955,106.71137 82.0056818,106.847804 82.1704545,106.984238 C82.3072279,107.144918 82.5051055,107.240814 82.7159091,107.248579 C82.5000424,107.051819 82.4030148,106.756271 82.4602273,106.469767 C82.4689253,106.411215 82.4934884,106.356165 82.53125,106.310594 C82.6392045,106.194057 82.8352273,106.24522 82.9659091,106.336176 C83.3778409,106.620413 83.4943182,107.188889 83.4971591,107.69199 C83.5178745,107.503065 83.5178745,107.312439 83.4971591,107.123514 C83.4800036,106.933831 83.5589284,106.748155 83.7073864,106.628941 C83.9797828,106.503459 84.2980482,106.530445 84.5454545,106.7 C84.6871905,106.892207 84.6789718,107.156515 84.5255682,107.339535 C84.3728429,107.512694 84.191153,107.657929 83.9886364,107.768734 C83.8352667,107.861075 83.7042796,107.986305 83.6051136,108.135401 C83.5939489,108.156415 83.58445,108.178273 83.5767045,108.200775 L82.4147727,108.200775 C82.1540166,108.071057 81.9114128,107.907645 81.6931818,107.714729 L81.6931818,107.714729 Z" id="Shape" fill="#F13C31" fill-rule="nonzero"></path>
                <path d="M62.4318182,98.8578811 C62.4318182,98.8578811 61.9971591,99.4263566 62.6335227,100.27907 C63.2698864,101.131783 63.7982955,101.867959 63.5852273,102.405168 C63.5852273,102.405168 62.6221591,100.80491 61.8409091,100.782171 C61.0596591,100.759432 61.5795455,99.8186047 62.4318182,98.8578811 Z" id="Shape" fill="#F13C31" fill-rule="nonzero"></path>
                <path d="M62.4318182,98.8578811 C62.3937019,98.9128435 62.3640174,98.9732012 62.34375,99.0369509 C61.5795455,99.9322997 61.1732955,100.770801 61.90625,100.790698 C62.5909091,100.810594 63.4119318,102.035659 63.6107955,102.342636 C63.6049295,102.366836 63.5973342,102.390583 63.5880682,102.413695 C63.5880682,102.413695 62.625,100.813437 61.84375,100.790698 C61.0625,100.767959 61.5795455,99.8186047 62.4318182,98.8578811 Z" id="Shape" fill="#000000" fill-rule="nonzero" opacity="0.1"></path>
                <path d="M61.6306818,99.5826211 C61.6306818,99.7843256 61.6534091,99.9462574 61.6818182,99.9462574 C61.7102273,99.9462574 61.7301136,99.7843256 61.7301136,99.5826211 C61.7301136,99.3809165 61.7045455,99.4775074 61.6761364,99.4775074 C61.6477273,99.4775074 61.6306818,99.3837574 61.6306818,99.5826211 Z" id="Shape" fill="#FFD037" fill-rule="nonzero"></path>
                <path d="M61.3522727,99.8242187 C61.5284091,99.9208096 61.6818182,99.9776278 61.6960227,99.9520596 C61.7102273,99.9264914 61.5767045,99.8299005 61.4119318,99.7361505 C61.2471591,99.6424005 61.3039773,99.7077414 61.2926136,99.7361505 C61.28125,99.7645596 61.1761364,99.7418323 61.3522727,99.8242187 Z" id="Shape" fill="#FFD037" fill-rule="nonzero"></path>
                <path d="M64.7443182,98.8578811 C64.7443182,98.8578811 65.1818182,99.4263566 64.5426136,100.27907 C63.9034091,101.131783 63.3806818,101.867959 63.59375,102.405168 C63.59375,102.405168 64.5539773,100.80491 65.3380682,100.782171 C66.1221591,100.759432 65.6051136,99.8186047 64.7443182,98.8578811 Z" id="Shape" fill="#F13C31" fill-rule="nonzero"></path>
                <path d="M64.7443182,98.8578811 C64.7824345,98.9128435 64.812119,98.9732012 64.8323864,99.0369509 C65.5965909,99.9322997 66.0028409,100.770801 65.2698864,100.790698 C64.5852273,100.810594 63.7670455,102.035659 63.5653409,102.342636 C63.5712068,102.366836 63.5788021,102.390583 63.5880682,102.413695 C63.5880682,102.413695 64.5482955,100.813437 65.3323864,100.790698 C66.1164773,100.767959 65.6051136,99.8186047 64.7443182,98.8578811 Z" id="Shape" fill="#000000" fill-rule="nonzero" opacity="0.1"></path>
                <path d="M65.5568182,99.5826211 C65.5568182,99.7843256 65.5369318,99.9462574 65.5085227,99.9462574 C65.4801136,99.9462574 65.4573864,99.7843256 65.4573864,99.5826211 C65.4573864,99.3809165 65.4857955,99.4775074 65.5142045,99.4775074 C65.5426136,99.4775074 65.5568182,99.3837574 65.5568182,99.5826211 Z" id="Shape" fill="#FFD037" fill-rule="nonzero"></path>
                <path d="M65.8409091,99.8242187 C65.6647727,99.9208096 65.5113636,99.9776278 65.5,99.9520596 C65.4886364,99.9264914 65.6164773,99.8299005 65.7840909,99.7361505 C65.9517045,99.6424005 65.8920455,99.7077414 65.90625,99.7361505 C65.9204545,99.7645596 66.0085227,99.7418323 65.8409091,99.8242187 Z" id="Shape" fill="#FFD037" fill-rule="nonzero"></path>
                <path d="M65.4176136,102.339793 C65.4176136,102.339793 64.1960227,102.302842 63.8295455,102.041344 C63.4630682,101.779845 61.9545455,101.472868 61.8636364,101.885013 C61.7727273,102.297158 60.03125,103.97416 61.40625,103.98553 C62.78125,103.996899 64.6051136,103.769509 64.9715909,103.547804 C65.3380682,103.326098 65.4176136,102.339793 65.4176136,102.339793 Z" id="Shape" fill="#A8A8A8" fill-rule="nonzero"></path>
                <path d="M61.3835227,103.837726 C62.7585227,103.837726 64.5823864,103.624548 64.9488636,103.4 C65.2329545,103.229457 65.3380682,102.618346 65.375,102.336951 L65.4176136,102.336951 C65.4176136,102.336951 65.3380682,103.320413 64.9715909,103.544961 C64.6051136,103.769509 62.7840909,103.994057 61.40625,103.982687 C61.0113636,103.982687 60.8721591,103.837726 60.8806818,103.62739 C60.9346591,103.75814 61.0880682,103.834884 61.3835227,103.837726 Z" id="Shape" fill="#000000" fill-rule="nonzero" opacity="0.2"></path>
                <ellipse id="Oval" fill="#F13C31" fill-rule="nonzero" opacity="0.1" cx="55.4460227" cy="141.092765" rx="9.86363636" ry="1.45813953"></ellipse>
                <ellipse id="Oval" fill="#F13C31" fill-rule="nonzero" opacity="0.1" cx="82.9971591" cy="153.167183" rx="9.86363636" ry="1.45813953"></ellipse>
                <ellipse id="Oval" fill="#F13C31" fill-rule="nonzero" opacity="0.1" cx="42.46875" cy="166.904393" rx="9.86363636" ry="1.45813953"></ellipse>
                <ellipse id="Oval" fill="#F13C31" fill-rule="nonzero" opacity="0.1" cx="251.460227" cy="197.07907" rx="9.86363636" ry="1.45813953"></ellipse>
                <ellipse id="Oval" fill="#F13C31" fill-rule="nonzero" opacity="0.1" cx="139.514205" cy="163.527649" rx="6.53125" ry="1"></ellipse>
                <ellipse id="Oval" fill="#F13C31" fill-rule="nonzero" opacity="0.1" cx="232.980114" cy="126.008269" rx="6.53125" ry="1"></ellipse>
                <ellipse id="Oval" fill="#F13C31" fill-rule="nonzero" opacity="0.1" cx="182.125" cy="181.434625" rx="6.53125" ry="1"></ellipse>
                <ellipse id="Oval" fill="#F13C31" fill-rule="nonzero" opacity="0.1" cx="125.75" cy="176.613953" rx="6.53125" ry="1"></ellipse>
                <ellipse id="Oval" fill="#F13C31" fill-rule="nonzero" opacity="0.1" cx="72.9176136" cy="174.718088" rx="6.53125" ry="1"></ellipse>
                <ellipse id="Oval" fill="#F13C31" fill-rule="nonzero" opacity="0.1" cx="59.1505682" cy="187.804393" rx="6.53125" ry="1"></ellipse>
                <g id="Group" opacity="0.1" transform="translate(100.568182, 48.604651)" fill="#000000" fill-rule="nonzero">
                    <ellipse id="Oval" cx="43.9772727" cy="19.4702842" rx="43.2159091" ry="19.2968992"></ellipse>
                    <path d="M87.9431818,26.3687339 C86.03125,36.4307494 67.1392045,44.3297158 44.1107955,44.3297158 C20.8806818,44.3297158 1.85795455,36.2914729 0.227272727,26.1072351 L0.0653409091,26.1072351 L0.0653409091,42.5049096 C7.66193182,50.4465116 24.4801136,55.9692506 44.0028409,55.9692506 C63.5255682,55.9692506 80.34375,50.4465116 87.9431818,42.5049096 L87.9431818,26.3687339 Z" id="Shape"></path>
                    <path d="M87.9431818,46.3222222 C86.03125,56.3813953 67.1392045,64.2832041 44.1107955,64.2832041 C20.8806818,64.2832041 1.85795455,56.2449612 0.227272727,46.0578811 L0.0653409091,46.0578811 L0.0653409091,62.4583979 C7.66193182,70.4 24.4801136,75.9198966 44.0028409,75.9198966 C63.5255682,75.9198966 80.34375,70.4 87.9431818,62.4583979 L87.9431818,46.3222222 Z" id="Shape"></path>
                    <path d="M87.9431867,68.2682171 C86.03125,78.3302326 67.1392045,86.229199 44.1107955,86.229199 C20.8806818,86.229199 1.85795455,78.1937984 0.227272727,68.0067183 L0.065336043,68.0067183 L0.065336043,85.6919897 C0.063902986,86.4538455 0.381201846,87.1815363 0.940340909,87.698708 C8.89488636,95.0064599 25.1988636,97.8687339 44.0028409,97.8687339 C62.8068182,97.8687339 79.1022727,95.0064599 87.0681818,87.698708 C87.6273209,87.1815363 87.9446197,86.4538455 87.9431867,85.6919897 L87.9431867,68.2682171 Z" id="Shape"></path>
                </g>
                <ellipse id="Oval" fill="#F13C31" fill-rule="nonzero" cx="144.545455" cy="66.9379845" rx="43.2159091" ry="19.2968992"></ellipse>
                <path d="M188.511364,73.8364341 C186.599432,83.8984496 167.707386,91.797416 144.678977,91.797416 C121.448864,91.797416 102.426136,83.7591731 100.795455,73.5749354 L100.633523,73.5749354 L100.633523,89.9726098 C108.230114,97.9142119 125.048295,103.436951 144.571023,103.436951 C164.09375,103.436951 180.911932,97.9142119 188.511364,89.9726098 L188.511364,73.8364341 Z" id="Shape" fill="#F13C31" fill-rule="nonzero"></path>
                <path d="M188.511364,93.7899225 C186.599432,103.849096 167.707386,111.750904 144.678977,111.750904 C121.448864,111.750904 102.426136,103.712661 100.795455,93.5255814 L100.633523,93.5255814 L100.633523,109.926098 C108.230114,117.8677 125.048295,123.387597 144.571023,123.387597 C164.09375,123.387597 180.911932,117.8677 188.511364,109.926098 L188.511364,93.7899225 Z" id="Shape" fill="#F13C31" fill-rule="nonzero"></path>
                <path d="M188.511369,115.735917 C186.599432,125.797933 167.707386,133.696899 144.678977,133.696899 C121.448864,133.696899 102.426136,125.661499 100.795455,115.474419 L100.633518,115.474419 L100.633518,133.15969 C100.632085,133.921546 100.949384,134.649237 101.508523,135.166408 C109.463068,142.47416 125.767045,145.336434 144.571023,145.336434 C163.375,145.336434 179.670455,142.47416 187.636364,135.166408 C188.195503,134.649237 188.512802,133.921546 188.511369,133.15969 L188.511369,115.735917 Z" id="Shape" fill="#F13C31" fill-rule="nonzero"></path>
                <ellipse id="Oval" fill="#F13C31" fill-rule="nonzero" opacity="0.1" cx="208.247159" cy="162.370801" rx="16.1931818" ry="2.91627907"></ellipse>
                <path d="M199.15625,125.212403 C199.974432,125.695607 201.258523,126.011111 202.875,124.970801 L202.860795,127.275969 C202.974432,128.856331 204.928977,134.617829 204.928977,134.617829 L206.306818,139.356072 C207.295735,142.704666 207.805535,146.176541 207.821023,149.668217 C207.821023,150.822222 207.928977,152.016021 208.261364,152.914212 C208.997159,154.903876 207.977273,157.462016 207.53125,158.405685 C206.785245,158.658066 206.026649,158.871531 205.258523,159.04522 C205.190027,159.06175 205.122655,159.082636 205.056818,159.107752 L205.056818,159.09354 C205.056818,159.09354 202.988636,159.914987 202.068182,159.801292 C201.383523,159.718863 200.954545,160.574419 201.5,161.202584 C201.054803,161.338549 200.590218,161.400014 200.125,161.384496 C199.204545,161.270801 198.744318,162.851163 200.46875,163.303101 C202.193182,163.755039 211.963068,163.303101 211.963068,163.303101 C212.527418,163.020317 212.82894,162.391236 212.696023,161.773902 L213.917614,161.722739 C213.917614,161.722739 215.642045,160.932558 213.917614,158.786563 L213.823864,158.85478 L213.457386,157.768992 L213.457386,156.305168 C213.457386,156.305168 215.642045,145.788372 214.951705,144.557623 C214.261364,143.326873 213.894886,136.977003 213.894886,136.977003 L214.136364,130.09845 C214.758523,128.813695 215.076705,126.795607 215.238636,125.218088 C215.473936,124.466385 215.621695,123.690011 215.678977,122.904393 C215.707386,122.532041 215.730114,122.145478 215.744318,121.74186 C215.753853,120.856329 215.611643,119.975712 215.323864,119.138243 C216.10371,117.980892 216.97486,116.887826 217.928977,115.869509 C218.734477,115.119821 219.121858,114.022915 218.965909,112.933333 L218.397727,109.093282 L217.017045,102.555814 C217.190341,100.739535 216.8125,99.6935401 216.392045,99.1023256 C216.491477,98.5139535 216.585227,97.9284238 216.65625,97.3372093 C216.960172,94.7747705 216.823734,92.1791969 216.252841,89.6627907 C216.053977,88.7873385 215.78125,87.8863049 215.164773,87.2211886 C214.46875,86.4651163 213.338068,86.0074935 213.076705,85.0211886 C213.039834,84.7697719 212.986692,84.5210147 212.917614,84.2764858 C212.664773,83.6312661 211.869318,83.3953488 211.170455,83.3100775 C209.926136,83.1594315 208.127841,83.0457364 206.931818,83.5346253 C205.882187,83.9989638 205.018103,84.8014563 204.477273,85.8142119 C204.208013,86.2303288 204.106491,86.7331254 204.193182,87.2211886 C204.235719,87.390602 204.301698,87.5532411 204.389205,87.7043928 C203.560654,89.9518062 204.69284,92.4479585 206.928977,93.303876 C206.957386,93.3919897 206.982955,93.477261 207.002841,93.5596899 C207.055402,93.7623076 207.093378,93.9684345 207.116477,94.1764858 C207.09375,94.5744186 207.068182,94.9751938 207.051136,95.375969 L207.008523,95.5379845 C206.019519,95.976064 205.05503,96.4675719 204.119318,97.0103359 C204.806818,98.027907 204.002841,102.319897 204.002841,102.319897 C202.278409,103.334625 200.556818,105.932558 202.394886,108.644186 C204.232955,111.355814 203.198864,114.289147 203.198864,114.289147 L202.914773,118.706202 L202.914773,118.706202 L202.914773,118.706202 L202.857955,119.590181 L202.877841,119.590181 L202.857955,119.925581 L202.90625,119.925581 L202.90625,120.286563 C202.099432,120.585013 200.917614,121.181912 200.215909,122.290439 C199.883433,122.833976 199.479223,123.330178 199.014205,123.765633 C198.794309,123.953953 198.68017,124.237834 198.708467,124.526047 C198.736764,124.81426 198.903932,125.070493 199.15625,125.212403 L199.15625,125.212403 Z M213.034091,113.47907 C212.964809,112.714672 213.106301,111.945898 213.443182,111.256331 L214.255682,111.256331 C214.279631,111.436043 214.312819,111.614402 214.355114,111.790698 C214.588068,112.799742 213.65625,113.274419 213.034091,113.47907 L213.034091,113.47907 Z" id="Shape" fill="url(#linearGradient-1)" fill-rule="nonzero"></path>
                <path d="M213.261364,157.25168 L213.704545,158.57907 L212.267045,160.017313 L207.511364,161.137209 L204.082386,160.804651 L204.303977,159.588114 L204.303977,159.588114 C204.437117,159.054464 204.856968,158.63988 205.392045,158.513695 C206.8125,158.183979 209.488636,157.427907 210.053977,156.37907 L213.261364,157.25168 Z" id="Shape" fill="#DB8B8B" fill-rule="nonzero"></path>
                <path d="M213.261364,157.25168 L213.704545,158.57907 L212.267045,160.017313 L207.511364,161.137209 L204.082386,160.804651 L204.303977,159.588114 L204.303977,159.588114 C204.437117,159.054464 204.856968,158.63988 205.392045,158.513695 C206.8125,158.183979 209.488636,157.427907 210.053977,156.37907 L213.261364,157.25168 Z" id="Shape" fill="#000000" fill-rule="nonzero" opacity="0.1"></path>
                <path d="M205.1875,160.460724 L205.852273,159.576744 L205.1875,158.550646 C205.1875,158.550646 203.198864,159.355039 202.3125,159.244186 C201.426136,159.133333 200.985795,160.682429 202.644886,161.12584 C204.303977,161.569251 213.704545,161.12584 213.704545,161.12584 C213.704545,161.12584 215.363636,160.349871 213.704545,158.246512 L212.267045,159.355039 C212.267045,159.355039 209.832386,160.682429 208.616477,160.460724 L205.1875,160.460724 Z" id="Shape" fill="#C17174" fill-rule="nonzero"></path>
                <path d="M202.204545,162.342377 L205.633523,162.674935 L210.389205,161.566408 L211.826705,160.128165 L211.710227,159.778553 L211.545455,159.283979 L211.383523,158.800775 L208.170455,157.916796 C208.007434,158.181661 207.784615,158.404595 207.519886,158.5677 C206.477273,159.281137 204.607955,159.795607 203.508523,160.051421 C203.462182,160.062621 203.416628,160.076864 203.372159,160.094057 C203.158265,160.162172 202.96355,160.280036 202.803977,160.437984 C202.612025,160.626424 202.476278,160.864596 202.411932,161.12584 L202.204545,162.342377 Z" id="Shape" fill="#DB8B8B" fill-rule="nonzero"></path>
                <path d="M202.204545,162.342377 L205.633523,162.674935 L210.389205,161.566408 L211.826705,160.128165 L211.710227,159.778553 L210.389205,160.793282 C210.389205,160.793282 207.954545,162.120672 206.738636,161.898966 L203.306818,161.898966 L203.971591,161.014987 L203.375,160.094057 C203.161106,160.162172 202.966391,160.280036 202.806818,160.437984 C202.614866,160.626424 202.479119,160.864596 202.414773,161.12584 L202.204545,162.342377 Z" id="Shape" fill="#000000" fill-rule="nonzero" opacity="0.1"></path>
                <path d="M203.306818,162.009819 L203.971591,161.12584 L203.306818,160.099742 C203.306818,160.099742 201.318182,160.904134 200.431818,160.793282 C199.545455,160.682429 199.105114,162.231525 200.764205,162.674935 C202.423295,163.118346 211.823864,162.674935 211.823864,162.674935 C211.823864,162.674935 213.482955,161.898966 211.823864,159.79845 L210.386364,160.904134 C210.386364,160.904134 207.951705,162.231525 206.735795,162.009819 L203.306818,162.009819 Z" id="Shape" fill="#C17174" fill-rule="nonzero"></path>
                <path d="M206.071023,97.8289406 C206.071023,97.8289406 211.380682,98.397416 210.616477,96.1689922 C210.398162,95.5413544 210.341492,94.8687844 210.451705,94.2134367 C210.588391,93.4021695 210.909102,92.6330385 211.389205,91.9651163 L206.411932,92.7382429 C206.711104,93.2373485 206.938707,93.7760327 207.088068,94.3385013 C207.670455,96.6863049 206.071023,97.8289406 206.071023,97.8289406 Z" id="Shape" fill="#DB8B8B" fill-rule="nonzero"></path>
                <path d="M215.142045,123.049354 C215.142045,123.049354 215.03125,127.807494 213.926136,130.132558 L213.704545,136.883204 C213.704545,136.883204 214.034091,143.079587 214.698864,144.296124 C215.363636,145.512661 213.261364,155.80491 213.261364,155.80491 L213.261364,157.575711 C213.261364,157.575711 209.721591,158.903101 208.715909,157.354005 L209.710227,144.185271 L209.267045,125.928682 L215.142045,123.049354 Z" id="Shape" fill="#474463" fill-rule="nonzero"></path>
                <path d="M215.142045,123.049354 C215.142045,123.049354 215.03125,127.807494 213.926136,130.132558 L213.704545,136.883204 C213.704545,136.883204 214.034091,143.079587 214.698864,144.296124 C215.363636,145.512661 213.261364,155.80491 213.261364,155.80491 L213.261364,157.575711 C213.261364,157.575711 209.721591,158.903101 208.715909,157.354005 L209.710227,144.185271 L209.267045,125.928682 L215.142045,123.049354 Z" id="Shape" fill="#000000" fill-rule="nonzero" opacity="0.1"></path>
                <path d="M217.352273,107.78863 L218.017045,109.559432 L218.585227,113.319897 C218.735342,114.384301 218.364218,115.455933 217.588068,116.199225 C216.261364,117.526615 214.491477,120.292248 214.491477,120.292248 L212.392045,113.985013 C212.392045,113.985013 214.491477,113.652455 214.159091,112.214212 C213.826705,110.775969 213.940341,108.121189 213.940341,108.121189 L217.352273,107.78863 Z" id="Shape" fill="#FF748E" fill-rule="nonzero"></path>
                <path d="M217.377841,107.763049 L218.039773,109.53385 L218.607955,113.297158 C218.760241,114.360379 218.389906,115.431729 217.613636,116.173643 C216.284091,117.501034 214.517045,120.269509 214.517045,120.269509 L212.400568,113.953747 C212.400568,113.953747 214.502841,113.621189 214.170455,112.182946 C213.838068,110.744703 213.948864,108.08708 213.948864,108.08708 L217.377841,107.763049 Z" id="Shape" fill="#000000" fill-rule="nonzero" opacity="0.05"></path>
                <path d="M207.522727,158.57907 C208.943182,160.813178 211.150568,159.545478 211.542614,159.295349 L211.380682,158.812145 L208.170455,157.916796 C208.009648,158.18548 207.787721,158.41239 207.522727,158.57907 Z" id="Shape" fill="#000000" fill-rule="nonzero" opacity="0.1"></path>
                <path d="M203.085227,127.375452 C203.196023,128.924548 205.073864,134.566667 205.073864,134.566667 L206.400568,139.211111 C207.349676,142.49502 207.840121,145.894518 207.857955,149.31292 C207.824636,150.389134 207.967625,151.463547 208.28125,152.49354 C209.167614,154.929457 207.397727,158.246512 207.397727,158.246512 C208.946023,161.014987 211.599432,159.133333 211.599432,159.133333 L211.599432,157.362532 C211.599432,157.362532 213.701705,147.735401 213.147727,145.853747 C212.59375,143.972093 212.375,138.884238 212.375,138.884238 L212.375,129.697674 C214.145951,127.931458 215.222866,125.586848 215.409091,123.09199 C215.434659,122.728165 215.457386,122.347287 215.471591,121.955039 C215.559659,119.459432 213.852273,116.531783 213.198864,115.48863 C213.039773,115.235659 212.9375,115.09354 212.9375,115.09354 L203.173295,118.970543 L203.150568,118.970543 L203.150568,119.354264 L203.150568,120.189922 L203.085227,127.375452 Z" id="Shape" fill="#474463" fill-rule="nonzero"></path>
                <path d="M206.403409,92.7382429 C206.702581,93.2373485 206.930184,93.7760327 207.079545,94.3385013 C208.171617,94.7530828 209.384877,94.7079722 210.443182,94.2134367 C210.579868,93.4021695 210.900579,92.6330385 211.380682,91.9651163 L206.403409,92.7382429 Z" id="Shape" fill="#000000" fill-rule="nonzero" opacity="0.1"></path>
                <ellipse id="Oval" fill="#DB8B8B" fill-rule="nonzero" cx="208.616477" cy="90.0834625" rx="4.3125" ry="4.31472868"></ellipse>
                <path d="M203.085227,120.181395 L203.133523,120.181395 C207.769886,121.136434 213.59375,116.30155 213.59375,116.30155 C213.437628,116.037935 213.302733,115.762301 213.190341,115.477261 C213.03125,115.224289 212.928977,115.082171 212.928977,115.082171 L203.164773,118.959173 L203.139205,119.345736 L203.085227,120.181395 Z" id="Shape" fill="#000000" fill-rule="nonzero" opacity="0.1"></path>
                <path d="M204.303977,97.7180879 C204.303977,97.7180879 210.497159,93.9547804 212.485795,95.503876 L215.252841,99.045478 C215.252841,99.045478 217.022727,99.5997416 216.693182,103.152713 L218.019886,109.570801 L214.042614,110.565633 C214.042614,110.565633 211.721591,112.779845 213.602273,115.988889 C213.602273,115.988889 207.738636,120.857881 203.090909,119.860207 L203.423295,114.661499 C203.423295,114.661499 204.417614,111.782171 202.650568,109.12739 C200.883523,106.47261 202.539773,103.92584 204.198864,102.931008 C204.193182,102.919638 204.965909,98.7129199 204.303977,97.7180879 Z" id="Shape" fill="#FF748E" fill-rule="nonzero"></path>
                <path d="M203.971591,120.292248 C203.971591,120.292248 201.647727,120.735659 200.542614,122.50646 C200.222998,123.038647 199.833122,123.525288 199.383523,123.95323 C199.17882,124.139614 199.074325,124.411909 199.101754,124.687467 C199.129184,124.963025 199.285304,125.209352 199.522727,125.35168 C200.400568,125.880362 201.829545,126.204393 203.639205,124.717829 C206.75,122.173902 203.971591,120.292248 203.971591,120.292248 Z" id="Shape" fill="#DB8B8B" fill-rule="nonzero"></path>
                <path d="M207.400568,99.821447 C207.400568,99.821447 209.610795,99.5997416 210.164773,105.352713 C210.71875,111.105685 211.602273,112.435917 211.602273,112.435917 C211.602273,112.435917 212.15625,115.423256 210.826705,117.194057 C209.497159,118.964858 206.957386,122.728165 206.957386,122.728165 C206.957386,122.728165 204.193182,123.501292 203.639205,120.738501 L207.068182,114.320413 C207.068182,114.320413 207.619318,112.106202 206.292614,110.557106 C204.965909,109.00801 203.971591,98.7129199 207.400568,99.821447 Z" id="Shape" fill="#000000" fill-rule="nonzero" opacity="0.1"></path>
                <path d="M207.178977,99.4888889 C207.178977,99.4888889 209.389205,99.2671835 209.943182,105.022997 C210.497159,110.778811 211.380682,112.103359 211.380682,112.103359 C211.380682,112.103359 211.948864,115.090698 210.607955,116.861499 C209.267045,118.6323 206.75,122.395607 206.75,122.395607 C206.75,122.395607 203.985795,123.168734 203.431818,120.405943 L206.860795,113.987855 C206.860795,113.987855 207.414773,111.773643 206.085227,110.224548 C204.755682,108.675452 203.75,98.3832041 207.178977,99.4888889 Z" id="Shape" fill="#FF748E" fill-rule="nonzero"></path>
                <path d="M205.352273,103.63876 C205.352273,103.63876 205.133523,107.069509 206.127841,108.951163 C207.122159,110.832817 207.122159,113.265891 206.127841,114.593282" id="Shape" fill="#000000" fill-rule="nonzero" opacity="0.1"></path>
                <path d="M204.801136,99.4320413 C204.801136,99.4320413 205.684659,98.548062 208.230114,98.4372093 C210.775568,98.3263566 211.877841,97.55323 211.877841,97.55323" id="Shape" fill="#000000" fill-rule="nonzero" opacity="0.1"></path>
                <path d="M210.951705,84.5067183 C211.625,84.5891473 212.392045,84.8193798 212.633523,85.4503876 C212.700018,85.6905741 212.752193,85.9345007 212.789773,86.1808786 C213.039773,87.1472868 214.127841,87.6020672 214.798295,88.3354005 C215.389205,88.9891473 215.650568,89.8702842 215.84375,90.7315245 C216.394503,93.1979092 216.526078,95.7394959 216.232955,98.2496124 C216.017045,100.082946 215.573864,101.890698 215.451705,103.732558 C215.329545,105.574419 215.553977,107.515762 216.559659,109.064858 C216.994318,109.729974 217.565341,110.315504 217.872159,111.054522 C217.238636,111.568992 216.363636,111.642894 215.545455,111.671318 C214.598485,111.703531 213.64678,111.703531 212.690341,111.671318 C212.189686,111.691305 211.691886,111.586811 211.241477,111.367183 C210.922795,111.164091 210.660832,110.883411 210.480114,110.551421 C209.934659,109.627649 209.798295,108.516279 209.821023,107.444703 C209.84375,106.373127 210.014205,105.307235 210.034091,104.232817 C210.090545,103.646686 209.960281,103.057707 209.661932,102.550129 C209.38738,102.230857 209.076571,101.944688 208.735795,101.697416 C207.551136,100.645736 207.144886,98.9630491 207.105114,97.379845 C207.065341,95.7966408 207.326705,94.2134367 207.193182,92.6359173 C207.142045,92.0191214 206.909091,91.277261 206.303977,91.1578811 C206.112771,91.1501203 205.92263,91.1253892 205.735795,91.0839793 C205.25,90.8963824 205.298295,90.2113695 205.167614,89.7082687 C205.011364,89.1397933 204.528409,88.7049096 204.392045,88.1364341 C204.073864,86.7976744 205.778409,85.197416 206.894886,84.7255814 C208.011364,84.2537468 209.755682,84.3589147 210.951705,84.5067183 Z" id="Shape" fill="#000000" fill-rule="nonzero" opacity="0.1"></path>
                <path d="M211.0625,84.2850129 C211.735795,84.3674419 212.502841,84.5976744 212.744318,85.2315245 C212.811102,85.4706794 212.863281,85.7136778 212.900568,85.9591731 C213.150568,86.9255814 214.238636,87.3803618 214.909091,88.1136951 C215.5,88.7674419 215.761364,89.6485788 215.954545,90.5098191 C216.505311,92.9791209 216.63593,95.5236707 216.340909,98.0364341 C216.127841,99.8697674 215.684659,101.677519 215.5625,103.522222 C215.440341,105.366925 215.664773,107.302584 216.670455,108.85168 C217.105114,109.519638 217.676136,110.102326 217.982955,110.841344 C217.349432,111.358656 216.474432,111.429716 215.65625,111.45814 C214.70928,111.488458 213.757576,111.488458 212.801136,111.45814 C212.30071,111.479129 211.802894,111.375608 211.352273,111.156848 C211.033472,110.952676 210.771543,110.671053 210.590909,110.338243 C210.045455,109.41447 209.909091,108.303101 209.931818,107.231525 C209.954545,106.159948 210.125,105.094057 210.144886,104.022481 C210.144886,103.436951 210.110795,102.817313 209.772727,102.339793 C209.498819,102.019898 209.187933,101.733659 208.846591,101.48708 C207.661932,100.435401 207.255682,98.7527132 207.215909,97.169509 C207.176136,95.5863049 207.4375,94.0031008 207.303977,92.4255814 C207.252841,91.8087855 207.019886,91.0669251 206.414773,90.9475452 C206.223566,90.9397843 206.033426,90.9150533 205.846591,90.8736434 C205.360795,90.6860465 205.409091,90.0010336 205.278409,89.4979328 C205.122159,88.9294574 204.639205,88.497416 204.502841,87.9260982 C204.184659,86.5873385 205.889205,84.9870801 207.005682,84.5152455 C208.122159,84.0434109 209.875,84.1372093 211.0625,84.2850129 Z" id="Shape" fill="#464353" fill-rule="nonzero"></path>
                <path d="M36.375,162.802842 C36.375,162.802842 39.4204545,162.709044 40.3352273,162.055297 C41.25,161.40155 45.0170455,160.619897 45.2443182,161.668734 C45.4715909,162.717571 49.8181818,166.881654 46.3806818,166.910078 C42.9431818,166.938501 38.3977273,166.372868 37.4801136,165.815762 C36.5625,165.258656 36.375,162.802842 36.375,162.802842 Z" id="Shape" fill="#A8A8A8" fill-rule="nonzero"></path>
                <path d="M46.4431818,166.537726 C43.0085227,166.56615 38.4602273,166.003359 37.5454545,165.446253 C36.8494318,165.019897 36.5710227,163.496382 36.4772727,162.791473 L36.375,162.791473 C36.375,162.791473 36.5681818,165.247287 37.4829545,165.804393 C38.3977273,166.361499 42.9460227,166.924289 46.3835227,166.898708 C47.375,166.898708 47.7159091,166.537726 47.6988636,166.014729 C47.5596591,166.341602 47.1818182,166.537726 46.4431818,166.537726 Z" id="Shape" fill="#000000" fill-rule="nonzero" opacity="0.2"></path>
                <path d="M229.809659,122.824806 C229.809659,122.824806 231.897727,122.759432 232.528409,122.310336 C233.159091,121.86124 235.741477,121.326873 235.897727,122.045995 C236.053977,122.765116 239.039773,125.624548 236.678977,125.644444 C234.318182,125.664341 231.198864,125.274935 230.571023,124.894057 C229.943182,124.513178 229.809659,122.824806 229.809659,122.824806 Z" id="Shape" fill="#A8A8A8" fill-rule="nonzero"></path>
                <path d="M236.721591,125.394315 C234.363636,125.41137 231.241477,125.024806 230.613636,124.643928 C230.133523,124.35969 229.943182,123.305168 229.880682,122.821964 L229.809659,122.821964 C229.809659,122.821964 229.943182,124.507494 230.571023,124.891214 C231.198864,125.274935 234.321023,125.658656 236.678977,125.641602 C237.360795,125.641602 237.596591,125.394315 237.582386,125.033333 C237.488636,125.255039 237.230114,125.38863 236.721591,125.394315 Z" id="Shape" fill="#000000" fill-rule="nonzero" opacity="0.2"></path>
                <ellipse id="Oval" fill="#F13C31" fill-rule="nonzero" opacity="0.1" cx="8.88920455" cy="6.14806202" rx="6.14488636" ry="6.14806202"></ellipse>
                <ellipse id="Oval" fill="#F13C31" fill-rule="nonzero" opacity="0.1" cx="273.09375" cy="23.770801" rx="6.14488636" ry="6.14806202"></ellipse>
                <ellipse id="Oval" fill="#F13C31" fill-rule="nonzero" opacity="0.1" cx="4.54545455" cy="30.1803618" rx="4.54545455" ry="4.54780362"></ellipse>
                <ellipse id="Oval" fill="#F13C31" fill-rule="nonzero" opacity="0.1" cx="50.5681818" cy="4.59896641" rx="4.54545455" ry="4.54780362"></ellipse>
                <ellipse id="Oval" fill="#F13C31" fill-rule="nonzero" opacity="0.1" cx="236.931818" cy="5.16744186" rx="4.54545455" ry="4.54780362"></ellipse>
                <path d="M252.732955,183.731266 C252.732955,183.731266 253.869318,185.220672 252.207386,187.468992 C250.545455,189.717313 249.173295,191.613178 249.727273,193.01447 C249.727273,193.01447 252.235795,188.84186 254.272727,188.782171 C256.309659,188.722481 254.977273,186.243928 252.732955,183.731266 Z" id="Shape" fill="#FC6681" fill-rule="nonzero"></path>
                <path d="M252.732955,183.731266 C252.831746,183.875745 252.909244,184.033694 252.963068,184.200258 C254.951705,186.542377 256.019886,188.728165 254.099432,188.782171 C252.315341,188.833333 250.176136,192.025323 249.661932,192.832558 C249.678936,192.894446 249.699811,192.955203 249.724432,193.01447 C249.724432,193.01447 252.232955,188.84186 254.269886,188.782171 C256.306818,188.722481 254.977273,186.243928 252.732955,183.731266 Z" id="Shape" fill="#000000" fill-rule="nonzero" opacity="0.1"></path>
                <path d="M254.846591,185.629974 C254.846591,186.152972 254.786932,186.579328 254.715909,186.579328 C254.644886,186.579328 254.585227,186.152972 254.585227,185.629974 C254.585227,185.106977 254.659091,185.345736 254.730114,185.345736 C254.801136,185.345736 254.846591,185.104134 254.846591,185.629974 Z" id="Shape" fill="#FFD037" fill-rule="nonzero"></path>
                <path d="M255.573864,186.255297 C255.113636,186.505426 254.721591,186.656072 254.676136,186.59354 C254.630682,186.531008 254.988636,186.275194 255.446023,186.025065 C255.903409,185.774935 255.730114,185.956848 255.761364,186.025065 C255.792614,186.093282 256.034091,186.005168 255.573864,186.255297 Z" id="Shape" fill="#FFD037" fill-rule="nonzero"></path>
                <path d="M246.721591,183.731266 C246.721591,183.731266 245.585227,185.220672 247.247159,187.468992 C248.909091,189.717313 250.28125,191.613178 249.727273,193.01447 C249.727273,193.01447 247.215909,188.84186 245.181818,188.782171 C243.147727,188.722481 244.474432,186.243928 246.721591,183.731266 Z" id="Shape" fill="#FC6681" fill-rule="nonzero"></path>
                <path d="M246.721591,183.731266 C246.622436,183.875949 246.544023,184.033813 246.488636,184.200258 C244.5,186.542377 243.434659,188.728165 245.352273,188.782171 C247.136364,188.833333 249.278409,192.025323 249.789773,192.832558 C249.772727,192.892248 249.752841,192.95478 249.730114,193.01447 C249.730114,193.01447 247.21875,188.84186 245.184659,188.782171 C243.150568,188.722481 244.474432,186.243928 246.721591,183.731266 Z" id="Shape" fill="#000000" fill-rule="nonzero" opacity="0.1"></path>
                <path d="M244.605114,185.629974 C244.605114,186.152972 244.664773,186.579328 244.738636,186.579328 C244.8125,186.579328 244.869318,186.152972 244.869318,185.629974 C244.869318,185.106977 244.795455,185.345736 244.721591,185.345736 C244.647727,185.345736 244.605114,185.104134 244.605114,185.629974 Z" id="Shape" fill="#FFD037" fill-rule="nonzero"></path>
                <path d="M243.880682,186.255297 C244.340909,186.505426 244.732955,186.656072 244.775568,186.59354 C244.818182,186.531008 244.465909,186.275194 244.005682,186.025065 C243.545455,185.774935 243.721591,185.956848 243.693182,186.025065 C243.664773,186.093282 243.420455,186.005168 243.880682,186.255297 Z" id="Shape" fill="#FFD037" fill-rule="nonzero"></path>
                <path d="M244.96875,192.821189 C244.96875,192.821189 248.150568,192.721705 249.107955,192.039535 C250.065341,191.357364 254.002841,190.541602 254.241477,191.635917 C254.480114,192.730233 259.019886,197.084755 255.428977,197.113178 C251.838068,197.141602 247.082386,196.544703 246.127841,195.976227 C245.173295,195.407752 244.96875,192.821189 244.96875,192.821189 Z" id="Shape" fill="#A8A8A8" fill-rule="nonzero"></path>
                <path d="M255.494318,196.7323 C251.900568,196.760724 247.147727,196.163824 246.190341,195.595349 C245.463068,195.151938 245.170455,193.557364 245.073864,192.821189 L244.96875,192.821189 C244.96875,192.821189 245.170455,195.379328 246.127841,195.970543 C247.085227,196.561757 251.838068,197.141602 255.428977,197.107494 C256.465909,197.107494 256.823864,196.729457 256.803977,196.183721 C256.661932,196.519121 256.264205,196.726615 255.494318,196.7323 Z" id="Shape" fill="#000000" fill-rule="nonzero" opacity="0.2"></path>
                <path d="M89.9005682,35.8054264 C86.6056876,35.8054264 83.9346591,38.4778352 83.9346591,41.7744186 C83.9346591,45.071002 86.6056876,47.7434109 89.9005682,47.7434109 C93.1954488,47.7434109 95.8664773,45.071002 95.8664773,41.7744186 C95.8664773,38.4778352 93.1954488,35.8054264 89.9005682,35.8054264 L89.9005682,35.8054264 Z M89.9005682,36.9622739 C92.5678525,36.9622739 94.7301136,39.1256525 94.7301136,41.7943152 C94.7301136,44.462978 92.5678525,46.6263566 89.9005682,46.6263566 C87.2332839,46.6263566 85.0710227,44.462978 85.0710227,41.7943152 C85.0710227,39.1256525 87.2332839,36.9622739 89.9005682,36.9622739 L89.9005682,36.9622739 Z M93.2784091,40.1031008 L92.7357955,39.554522 C92.6822491,39.4989387 92.608409,39.4675378 92.53125,39.4675378 C92.454091,39.4675378 92.3802509,39.4989387 92.3267045,39.554522 L88.9176136,42.9341085 L87.4801136,41.4731266 C87.4265673,41.4175434 87.3527272,41.3861425 87.2755682,41.3861425 C87.1984091,41.3861425 87.1245691,41.4175434 87.0710227,41.4731266 L86.5255682,42.0160207 C86.4700137,42.0695947 86.438629,42.1434729 86.438629,42.2206718 C86.438629,42.2978708 86.4700137,42.371749 86.5255682,42.425323 L88.7130682,44.6310078 C88.7666146,44.686591 88.8404546,44.7179919 88.9176136,44.7179919 C88.9947727,44.7179919 89.0686127,44.686591 89.1221591,44.6310078 L93.2784091,40.503876 C93.3339636,40.4503019 93.3653483,40.3764237 93.3653483,40.2992248 C93.3653483,40.2220259 93.3339636,40.1481477 93.2784091,40.0945736 L93.2784091,40.1031008 Z" id="Shape" fill="#3ACC6C" fill-rule="nonzero" opacity="0.7"></path>
                <path d="M23.8551136,66.0255814 C20.6477666,66.7710118 18.6504905,69.9753459 19.3925948,73.1850326 C20.1346992,76.3947193 23.3355456,78.3959647 26.5442535,77.6564199 C29.7529613,76.9168751 31.7561069,73.7162107 31.0198864,70.505168 C30.6654757,68.9593978 29.7108002,67.6182865 28.3665776,66.7778464 C27.0223549,65.9374064 25.3991047,65.6667372 23.8551136,66.0255814 L23.8551136,66.0255814 Z M24.1164773,67.1625323 C26.0207662,66.7179167 28.0050968,67.4660798 29.1425111,69.0575255 C30.2799255,70.6489712 30.3459283,72.7695904 29.309687,74.4287595 C28.2734458,76.0879287 26.3394869,76.9581719 24.4112379,76.6329647 C22.4829888,76.3077575 20.9410345,74.8512872 20.5056818,72.9439276 C19.9138401,70.3509611 21.5276851,67.7669665 24.1164773,67.1625323 L24.1164773,67.1625323 Z M28.1136364,69.4648579 L27.4602273,69.044186 C27.3957618,69.0022697 27.3170688,68.9882848 27.2421189,69.0054251 C27.1671691,69.0225653 27.102363,69.069367 27.0625,69.1351421 L24.5056818,73.1940568 L22.7755682,72.0997416 C22.7111027,72.0578253 22.6324097,72.0438404 22.5574599,72.0609806 C22.48251,72.0781209 22.4177039,72.1249225 22.3778409,72.1906977 L21.9659091,72.8444444 C21.9240144,72.9089432 21.9100367,72.9876769 21.9271681,73.0626655 C21.9442995,73.137654 21.991077,73.2024937 22.0568182,73.2423773 L24.6818182,74.8994832 C24.7465003,74.9423339 24.8258833,74.956856 24.9015357,74.9396778 C24.977188,74.9224996 25.0425286,74.8751154 25.0823864,74.8085271 L28.2073864,69.8542636 C28.2495318,69.7901145 28.2639509,69.7116367 28.2473631,69.6366851 C28.2307752,69.5617336 28.1845911,69.496682 28.1193182,69.4563307 L28.1136364,69.4648579 Z" id="Shape" fill="#3ACC6C" fill-rule="nonzero" opacity="0.7"></path>
                <path d="M176.852273,36.669509 C173.557392,36.669509 170.886364,39.3419179 170.886364,42.6385013 C170.886364,45.9350847 173.557392,48.6074935 176.852273,48.6074935 C180.147153,48.6074935 182.818182,45.9350847 182.818182,42.6385013 C182.818182,39.3419179 180.147153,36.669509 176.852273,36.669509 Z M176.852273,37.8263566 C179.519557,37.8263566 181.681818,39.9897352 181.681818,42.6583979 C181.681818,45.3270607 179.519557,47.4904393 176.852273,47.4904393 C174.184988,47.4904393 172.022727,45.3270607 172.022727,42.6583979 C172.022727,39.9897352 174.184988,37.8263566 176.852273,37.8263566 L176.852273,37.8263566 Z M180.230114,40.9671835 L179.6875,40.4186047 C179.633954,40.3630214 179.560114,40.3316205 179.482955,40.3316205 C179.405796,40.3316205 179.331955,40.3630214 179.278409,40.4186047 L175.869318,43.7981912 L174.428977,42.3457364 C174.375431,42.2901532 174.301591,42.2587523 174.224432,42.2587523 C174.147273,42.2587523 174.073433,42.2901532 174.019886,42.3457364 L173.477273,42.8943152 C173.421718,42.9478893 173.390334,43.0217675 173.390334,43.0989664 C173.390334,43.1761653 173.421718,43.2500435 173.477273,43.3036176 L175.664773,45.5093023 C175.718319,45.5648855 175.792159,45.5962864 175.869318,45.5962864 C175.946477,45.5962864 176.020317,45.5648855 176.073864,45.5093023 L180.230114,41.3821705 C180.285668,41.3285965 180.317053,41.2547183 180.317053,41.1775194 C180.317053,41.1003205 180.285668,41.0264423 180.230114,40.9728682 L180.230114,40.9671835 Z" id="Shape" fill="#3ACC6C" fill-rule="nonzero" opacity="0.7"></path>
                <path d="M245.298295,66.1478036 C242.014332,65.8928159 239.1452,68.3488499 238.888875,71.6343962 C238.632549,74.9199425 241.08603,77.7916557 244.369764,78.0495843 C247.653498,78.3075129 250.524826,75.8540493 250.784091,72.5687339 C250.908743,70.9891861 250.400585,69.4248628 249.371587,68.2204568 C248.342588,67.0160508 246.877193,66.2703992 245.298295,66.1478036 L245.298295,66.1478036 Z M245.207386,67.2989664 C247.157289,67.4455664 248.82642,68.7540902 249.435098,70.6133029 C250.043776,72.4725157 249.471871,74.5154788 247.98653,75.7878879 C246.501189,77.0602971 244.395562,77.3110265 242.653226,76.4229561 C240.910889,75.5348857 239.875715,73.6832871 240.03125,71.7330749 C240.12917,70.4580145 240.72974,69.274216 241.700641,68.4424988 C242.671543,67.6107816 243.933109,67.199391 245.207386,67.2989664 L245.207386,67.2989664 Z M248.332386,70.6927649 L247.832386,70.1043928 C247.783683,70.0449718 247.713008,70.0078133 247.63647,70.0013873 C247.559933,69.9949612 247.484056,70.0198154 247.426136,70.0702842 L243.769886,73.1770026 L242.446023,71.6165375 C242.397267,71.5562454 242.326005,71.518504 242.248758,71.5120635 C242.171512,71.5056229 242.094989,71.5310425 242.036932,71.5824289 L241.448864,72.0826873 C241.389885,72.1318252 241.353287,72.2027479 241.347401,72.279311 C241.341514,72.3558741 241.36684,72.4315626 241.417614,72.4891473 L243.426136,74.8568475 C243.47484,74.9162685 243.545515,74.953427 243.622052,74.9598531 C243.69859,74.9662791 243.774466,74.941425 243.832386,74.8909561 L248.298295,71.0992248 C248.357686,71.0504963 248.394825,70.9797844 248.401248,70.9032075 C248.40767,70.8266307 248.382829,70.7507149 248.332386,70.6927649 L248.332386,70.6927649 Z" id="Shape" fill="#3ACC6C" fill-rule="nonzero" opacity="0.7"></path>
            </g>
        </g>
    </g>
</svg>