<?xml version="1.0" encoding="UTF-8"?>
<svg width="320px" height="171px" viewBox="0 0 320 171" version="1.1" xmlns="http://www.w3.org/2000/svg" xmlns:xlink="http://www.w3.org/1999/xlink">
    <!-- Generator: Sketch 61.2 (89653) - https://sketch.com -->
    <title>landing-page-graphics-feature-3</title>
    <desc>Created with Sketch.</desc>
    <defs>
        <linearGradient x1="49.9918241%" y1="100%" x2="49.9918241%" y2="-0.0776833077%" id="linearGradient-1">
            <stop stop-color="#808080" stop-opacity="0.25" offset="0%"></stop>
            <stop stop-color="#808080" stop-opacity="0.12" offset="54%"></stop>
            <stop stop-color="#808080" stop-opacity="0.1" offset="100%"></stop>
        </linearGradient>
    </defs>
    <g id="Page-1" stroke="none" stroke-width="1" fill="none" fill-rule="evenodd">
        <g id="Tech" transform="translate(-979.000000, -186.000000)">
            <g id="landing-page-graphics-feature-3" transform="translate(979.000000, 186.000000)">
                <path d="M295.272169,134.575048 C294.915931,135.342802 294.560717,136.10032 294.206526,136.847601 C293.653743,138.008445 293.108125,139.146769 292.569674,140.262572 C292.330134,140.757006 292.090595,141.242226 291.857198,141.727447 C289.216123,147.123225 286.750096,151.895585 284.655662,155.820345 C280.784657,163.063803 273.271999,167.62014 265.059501,167.705182 L218.487524,168.2119 L217.996161,168.2119 L214.003839,168.254894 L210.588868,168.291747 L200.116699,168.405374 L199.692898,168.405374 L194.361612,168.463724 L194.198848,168.463724 L161.338964,168.819962 L132.007678,169.127063 L128.595777,169.163916 L107.405758,169.394242 L107.38119,169.394242 L93.6383877,169.541651 L93.4909789,169.541651 L50.0360845,170.011516 L37.0364683,170.152783 C34.2623249,170.184125 31.4998737,169.788453 28.8460653,168.979655 C24.2278996,167.584637 20.0775137,164.956802 16.8414587,161.378887 C11.2583493,155.227639 7.18925144,148.050672 4.45604607,140.262572 C4.06090851,139.13858 3.69238644,138.000256 3.35047985,136.847601 C-6.11132438,104.862956 5.42341651,63.5976967 26.1834933,35.9831094 C27.0536148,34.8284069 27.9380678,33.7023672 28.8368522,32.6049904 L28.8583493,32.5804223 C35.2429942,24.7431862 42.4015355,18.1957774 50.0268714,13.5401152 C63.5393474,5.27600768 78.5105566,2.94817658 93.2360845,9.88560461 C105.695202,15.7573896 117.328215,18.5182342 128.60499,19.2675624 C129.744338,19.3412668 130.883685,19.3965451 132.016891,19.4303263 C157.884069,20.2441459 182.126679,10.9236084 210.59501,4.9074856 C211.728215,4.66794626 212.864491,4.43147793 214.009981,4.20729367 C234.318618,0.165834933 256.847601,-1.96545106 283.639155,2.51516315 C286.422597,2.96987714 289.169214,3.62676607 291.857198,4.4806142 C293.038516,4.86142035 294.176839,5.27088932 295.272169,5.70902111 C308.059885,10.9113244 315.034165,20.5236084 317.997697,32.5681382 C318.278183,33.6859885 318.520793,34.8232885 318.725528,35.9800384 C323.980038,64.9520154 308.591171,106.048369 295.272169,134.575048 Z" id="Path" fill="#F13C31" fill-rule="nonzero" opacity="0.1"></path>
                <g id="Group" opacity="0.1" transform="translate(3.071017, 3.992322)" fill="#F13C31" fill-rule="nonzero">
                    <path d="M46.9558541,9.54779271 L46.9558541,166.052975 L33.956238,166.194242 C31.1820946,166.225583 28.4196434,165.829912 25.7658349,165.021113 L25.7658349,28.5880998 L25.7873321,28.5880998 C32.171977,20.7416507 39.3305182,14.1942418 46.9558541,9.54779271 Z" id="Path"></path>
                    <path d="M315.669866,31.9907869 L23.112476,31.9907869 C23.9825976,30.8360845 24.8670505,29.7100448 25.7658349,28.6126679 L25.7658349,28.5880998 L314.942035,28.5880998 C315.222521,29.6998081 315.465131,30.8340371 315.669866,31.9907869 Z" id="Path"></path>
                    <path d="M292.201152,1.71976967 L292.201152,132.852207 L291.135509,132.852207 C290.582726,134.013052 290.037108,135.151376 289.498656,136.267179 C289.259117,136.761612 289.019578,137.246833 288.78618,137.732054 L288.78618,0.479078695 C289.967498,0.859884837 291.105822,1.2734485 292.201152,1.71976967 Z" id="Path"></path>
                    <path d="M210.938964,0.205758157 L210.938964,164.274856 L207.523992,164.311708 L207.523992,0.905950096 C208.657198,0.666410749 209.793474,0.429942418 210.938964,0.205758157 Z" id="Path"></path>
                    <path d="M128.945873,15.4287908 L128.945873,165.165451 L125.533973,165.202303 L125.533973,15.2660269 C126.673321,15.3397313 127.812668,15.3827255 128.945873,15.4287908 Z" id="Path"></path>
                    <path d="M291.135509,132.855278 C290.582726,134.016123 290.037108,135.154447 289.498656,136.27025 L1.38502879,136.27025 C0.989891235,135.146257 0.621369162,134.007933 0.279462572,132.855278 L291.135509,132.855278 Z" id="Path"></path>
                </g>
                <rect id="Rectangle" fill="#3F3D56" fill-rule="nonzero" x="64.9827255" y="81.6368522" width="5.83493282" height="17.7074856"></rect>
                <rect id="Rectangle" fill="#3F3D56" fill-rule="nonzero" x="222.013052" y="80.715547" width="5.83493282" height="18.7332054"></rect>
                <polygon id="Path" fill="#65617D" fill-rule="nonzero" points="265.059501 163.884837 265.059501 167.877159 218.404607 168.307102 217.907102 168.316315 200.175048 168.479079 199.751248 168.485221 194.361612 168.531286 194.201919 168.531286 161.348177 168.835317 107.418042 169.335893 107.371977 169.335893 93.6598848 169.464875 93.512476 169.467946 32.5834933 170.026871 32.5834933 165.420345 46.9097889 156.821497 75.6545106 156.581958 76.268714 156.578887 76.4714012 156.575816 77.0856046 156.566603 90.8867562 156.452975 91.5040307 156.449904 91.7005758 156.446833 92.3147793 156.443762 96.7401152 156.40691 96.8568138 156.403839 107.77428 156.311708 107.86334 156.311708 193.053359 155.59309 195.13858 155.577735 195.347409 155.577735 196.938196 155.56238 208.500576 155.467179 209.114779 155.457965 209.682917 155.451823 209.977735 155.451823 213.573896 155.424184 214.286372 155.414971 215.241459 155.408829 218.235701 155.38119 222.986564 155.341267 223.600768 155.335125 224.669482 155.328983 224.869098 155.328983 247.812668 155.132438"></polygon>
                <polygon id="Path" fill="#000000" fill-rule="nonzero" opacity="0.2" points="265.059501 163.884837 265.059501 167.877159 218.404607 168.307102 217.907102 168.316315 200.175048 168.479079 199.751248 168.485221 194.361612 168.531286 194.201919 168.531286 161.348177 168.835317 107.418042 169.335893 107.371977 169.335893 93.6598848 169.464875 93.512476 169.467946 32.5834933 170.026871 32.5834933 165.420345 46.9097889 156.821497 75.6545106 156.581958 76.268714 156.578887 76.4714012 156.575816 77.0856046 156.566603 90.8867562 156.452975 91.5040307 156.449904 91.7005758 156.446833 92.3147793 156.443762 96.7401152 156.40691 96.8568138 156.403839 107.77428 156.311708 107.86334 156.311708 193.053359 155.59309 195.13858 155.577735 195.347409 155.577735 196.938196 155.56238 208.500576 155.467179 209.114779 155.457965 209.682917 155.451823 209.977735 155.451823 213.573896 155.424184 214.286372 155.414971 215.241459 155.408829 218.235701 155.38119 222.986564 155.341267 223.600768 155.335125 224.669482 155.328983 224.869098 155.328983 247.812668 155.132438"></polygon>
                <path d="M90.9328217,148.532821 L90.9328217,156.053743 C90.9331598,156.780843 90.5147454,157.443133 89.8579655,157.755086 C89.6183674,157.87126 89.3564368,157.934123 89.0902111,157.939347 L78.3723608,158.166603 C78.086123,158.173468 77.8022236,158.113534 77.5431862,157.991555 C76.8744765,157.685053 76.4460451,157.016604 76.4468319,156.280998 L76.4468319,148.532821 L90.9328217,148.532821 Z" id="Path" fill="#3F3D56" fill-rule="nonzero"></path>
                <path d="M90.9328217,148.532821 L90.9328217,156.053743 C90.9331598,156.780843 90.5147454,157.443133 89.8579655,157.755086 C89.6183674,157.87126 89.3564368,157.934123 89.0902111,157.939347 L78.3723608,158.166603 C78.086123,158.173468 77.8022236,158.113534 77.5431862,157.991555 C76.8744765,157.685053 76.4460451,157.016604 76.4468319,156.280998 L76.4468319,148.532821 L90.9328217,148.532821 Z" id="Path" fill="#000000" fill-rule="nonzero" opacity="0.1"></path>
                <path d="M91.5470252,148.532821 L91.5470252,156.053743 C91.5473633,156.780843 91.1289488,157.443133 90.4721689,157.755086 C90.2325709,157.87126 89.9706403,157.934123 89.7044146,157.939347 L78.9865643,158.166603 C78.7003264,158.173468 78.4164271,158.113534 78.1573896,157.991555 C77.4886799,157.685053 77.0602486,157.016604 77.0610354,156.280998 L77.0610354,148.532821 L91.5470252,148.532821 Z" id="Path" fill="#3F3D56" fill-rule="nonzero"></path>
                <rect id="Rectangle" fill="#3F3D56" fill-rule="nonzero" x="209.114779" y="148.532821" width="14.4859885" height="9.67370441"></rect>
                <rect id="Rectangle" fill="#000000" fill-rule="nonzero" opacity="0.1" x="209.114779" y="148.532821" width="14.4859885" height="9.67370441"></rect>
                <rect id="Rectangle" fill="#3F3D56" fill-rule="nonzero" x="208.500576" y="148.532821" width="14.4859885" height="9.67370441"></rect>
                <polygon id="Path" fill="#000000" fill-rule="nonzero" opacity="0.1" points="70.8176583 81.6337812 70.8176583 83.3934741 64.9827255 83.2429942 64.9827255 81.6337812"></polygon>
                <path d="M109.2238,32.0614203 L102.212668,82.4261036 C102.120631,83.09217 101.542807,83.5827258 100.870633,83.5658934 L44.7324376,82.1097889 L43.6667946,82.0821497 C43.2915404,82.0732553 42.9378029,81.9050858 42.6940051,81.6196783 C42.4502073,81.3342707 42.3393891,80.9585973 42.3892514,80.5865643 L50.2602687,27.8633397 C50.3654525,27.1863231 50.9709422,26.702198 51.6545106,26.7485605 L107.995393,30.5627639 C108.362893,30.5840641 108.70472,30.758146 108.938079,31.0428442 C109.171439,31.3275423 109.275044,31.6968883 109.2238,32.0614203 L109.2238,32.0614203 Z" id="Path" fill="#65617D" fill-rule="nonzero"></path>
                <polygon id="Path" fill="#F13C31" fill-rule="nonzero" points="54.0284069 30.4522073 48.0921305 76.9259117 99.6852207 78.5627639 106.029942 33.7259117"></polygon>
                <rect id="Rectangle" fill="#65617D" fill-rule="nonzero" x="118.111324" y="29.7335893" width="62.8545106" height="53.2299424" rx="1.63685221"></rect>
                <rect id="Rectangle" fill="#F13C31" fill-rule="nonzero" x="121.077927" y="33.3174664" width="57.1209213" height="44.3239923"></rect>
                <polygon id="Path" fill="#000000" fill-rule="nonzero" opacity="0.1" points="227.847985 80.712476 227.847985 81.8763916 222.013052 81.9961612 222.013052 80.712476"></polygon>
                <path d="M254.175816,79.7297505 C254.19262,79.986858 254.103811,80.2396938 253.929917,80.4298184 C253.756022,80.619943 253.512093,80.7309003 253.254511,80.7370441 L195.765067,81.925733 C195.269702,81.9357624 194.850385,81.5619942 194.803839,81.068714 L189.862572,29.696737 C189.837919,29.4391757 189.919852,29.1827588 190.089286,28.9872139 C190.25872,28.7916689 190.500861,28.6740681 190.759309,28.6618042 L247.812668,25.8241843 L248.426871,25.7934741 C248.934376,25.7667354 249.371747,26.1470582 249.415739,26.6533589 L254.175816,79.7297505 Z" id="Path" fill="#65617D" fill-rule="nonzero"></path>
                <polygon id="Path" fill="#F13C31" fill-rule="nonzero" points="193.145489 31.6806142 245.25144 29.1193858 249.652207 75.7988484 197.957774 77.0272553"></polygon>
                <path d="M254.175816,79.7297505 C254.19262,79.986858 254.103811,80.2396938 253.929917,80.4298184 C253.756022,80.619943 253.512093,80.7309003 253.254511,80.7370441 L247.812668,25.8241843 L248.426871,25.7934741 C248.934376,25.7667354 249.371747,26.1470582 249.415739,26.6533589 L254.175816,79.7297505 Z" id="Path" fill="#000000" fill-rule="nonzero" opacity="0.1"></path>
                <path d="M51.6637236,26.7454894 L44.7324376,82.1097889 L43.6667946,82.0821497 C43.2915404,82.0732553 42.9378029,81.9050858 42.6940051,81.6196783 C42.4502073,81.3342707 42.3393891,80.9585973 42.3892514,80.5865643 L50.2602687,27.8633397 C50.3642579,27.1813208 50.975725,26.6942879 51.6637236,26.7454894 L51.6637236,26.7454894 Z" id="Path" fill="#000000" fill-rule="nonzero" opacity="0.1"></path>
                <rect id="Rectangle" fill="#000000" fill-rule="nonzero" opacity="0.1" x="64.9827255" y="94.0990403" width="5.83493282" height="5.2452975"></rect>
                <polygon id="Path" fill="#000000" fill-rule="nonzero" opacity="0.1" points="91.547025 148.52975 91.547025 150.056046 77.0610365 150.442994 77.0610365 148.52975"></polygon>
                <path d="M117.113244,95.9262956 L117.113244,147.580806 C117.105516,148.235689 116.585371,148.769344 115.930902,148.793858 L57.074856,150.360077 L57.059501,150.360077 C56.3930109,150.351796 55.8547295,149.813515 55.8464491,149.147025 L55.8464491,95.9262956 C55.8547295,95.2598055 56.3930109,94.7215241 57.059501,94.7132438 L115.900192,94.7132438 C116.566682,94.7215241 117.104963,95.2598055 117.113244,95.9262956 Z" id="Path" fill="#65617D" fill-rule="nonzero"></path>
                <path d="M57.074856,94.7132438 L57.074856,150.360077 L57.059501,150.360077 C56.3930109,150.351796 55.8547295,149.813515 55.8464491,149.147025 L55.8464491,95.9262956 C55.8547295,95.2598055 56.3930109,94.7215241 57.059501,94.7132438 L57.074856,94.7132438 Z" id="Path" fill="#000000" fill-rule="nonzero" opacity="0.1"></path>
                <polygon id="Path" fill="#F2C1BE" fill-rule="nonzero" points="59.7619962 98.0115163 114.272553 98.0115163 114.272553 143.539347 59.7619962 144.767754"></polygon>
                <rect id="Rectangle" fill="#000000" fill-rule="nonzero" opacity="0.1" x="222.013052" y="94.0990403" width="5.83493282" height="5.34971209"></rect>
                <polygon id="Path" fill="#000000" fill-rule="nonzero" opacity="0.1" points="222.986564 148.52975 222.986564 150.498273 208.500576 150.111324 208.500576 148.52975"></polygon>
                <path d="M242.103647,95.9262956 L242.103647,149.147025 C242.095241,149.819451 241.547719,150.360077 240.87524,150.360077 L240.87524,150.360077 L182.00691,148.793858 C181.352441,148.769344 180.832296,148.235689 180.824568,147.580806 L180.824568,95.9262956 C180.832848,95.2598055 181.37113,94.7215241 182.03762,94.7132438 L240.878311,94.7132438 C241.549593,94.7148696 242.095258,95.2550637 242.103647,95.9262956 Z" id="Path" fill="#65617D" fill-rule="nonzero"></path>
                <path d="M242.103647,95.9262956 L242.103647,149.147025 C242.095241,149.819451 241.547719,150.360077 240.87524,150.360077 L240.87524,150.360077 L240.87524,94.7132438 L240.87524,94.7132438 C241.547719,94.7132438 242.095241,95.2538693 242.103647,95.9262956 Z" id="Path" fill="#000000" fill-rule="nonzero" opacity="0.1"></path>
                <polygon id="Path" fill="#F2C1BE" fill-rule="nonzero" points="238.1881 98.0115163 183.677543 98.0115163 183.677543 143.539347 238.1881 144.767754"></polygon>
                <path d="M179.301344,95.9262956 L179.301344,147.580806 C179.293616,148.235689 178.773471,148.769344 178.119002,148.793858 L119.262956,150.360077 L119.262956,150.360077 C118.590477,150.360077 118.042955,149.819451 118.034549,149.147025 L118.034549,95.9262956 C118.042829,95.2598055 118.581111,94.7215241 119.247601,94.7132438 L178.088292,94.7132438 C178.754782,94.7215241 179.293063,95.2598055 179.301344,95.9262956 Z" id="Path" fill="#65617D" fill-rule="nonzero"></path>
                <polygon id="Path" fill="#F2C1BE" fill-rule="nonzero" points="121.950096 98.0115163 176.460653 98.0115163 176.460653 143.539347 121.950096 144.767754"></polygon>
                <polygon id="Path" fill="#000000" fill-rule="nonzero" opacity="0.1" points="265.059501 163.884837 265.059501 167.877159 218.404607 168.307102 217.907102 168.316315 200.175048 168.479079 199.751248 168.485221 194.361612 168.531286 194.201919 168.531286 161.348177 168.835317 107.418042 169.335893 107.371977 169.335893 93.6598848 169.464875 93.512476 169.467946 32.5834933 170.026871 32.5834933 165.420345 94.7746641 165.0119 94.9220729 165.0119 107.510173 164.925912 107.568522 164.925912 194.502879 164.351631 194.591939 164.351631 194.644146 164.34856 194.788484 164.34856 196.259501 164.339347 196.707869 164.339347 219.583877 164.185797 220.935125 164.179655 221.236084 164.176583"></polygon>
                <circle id="Oval" fill="#FBBEBE" fill-rule="nonzero" cx="149.638388" cy="83.5808061" r="15.7635317"></circle>
                <path d="M93.4817658,169.575432 C93.4817658,169.541651 93.5001919,169.504798 93.512476,169.467946 C93.8195777,168.365451 94.3662188,166.501344 94.7746641,165.0119 C94.8268714,164.827639 94.8760077,164.646449 94.9220729,164.474472 C95.3735125,162.794626 96.2518234,158.860653 96.7401152,156.40691 C96.9120921,155.543954 97.0472169,154.871401 97.074856,154.533589 C97.1362764,154.014587 98.0606526,151.794242 99.1078695,149.242226 C99.8418426,147.448752 100.643378,145.489443 101.229942,143.837236 C101.613908,142.855844 101.914899,141.843981 102.12975,140.812284 C102.17579,140.596672 102.17579,140.373769 102.12975,140.158157 C102.037555,139.807106 101.988061,139.446212 101.982342,139.083301 L101.982342,139.083301 C101.911708,137.179271 102.479846,134.169674 103.358157,132.907486 C104.433013,131.371977 105.200768,125.641459 105.200768,125.641459 C105.200768,125.641459 106.791555,125.871785 107.043378,124.55739 C107.069989,124.415717 107.080292,124.271464 107.074088,124.127447 C107.073439,124.013287 107.0642,123.899338 107.046449,123.786564 C106.773129,121.87025 111.566987,119.831094 114.26334,119.391939 C114.567791,119.339762 114.875796,119.311015 115.184645,119.30595 C115.839622,119.234639 116.483882,119.086202 117.104031,118.863724 C117.390659,118.775688 117.697761,118.673321 118.025336,118.556622 C119.15547,118.175816 120.506718,117.672169 121.940883,117.119386 C127.333589,115.028023 133.862572,112.205758 133.862572,112.205758 C133.908637,111.987716 133.960845,111.778887 134.019194,111.573129 C134.673319,108.947167 136.537445,106.788885 139.040307,105.759693 L139.040307,105.759693 C139.040307,105.557006 139.040307,105.351248 139.040307,105.145489 C139.040307,104.085988 138.994242,102.995777 138.948177,101.908637 C138.948177,101.696737 138.92975,101.484837 138.917466,101.272937 C138.917466,101.211516 138.917466,101.147025 138.917466,101.085605 C138.917466,101.024184 138.917466,100.978119 138.917466,100.925912 C138.917466,100.71094 138.895969,100.495969 138.883685,100.284069 L138.828407,100.241075 C138.356602,99.8847208 137.951187,99.4481205 137.63071,98.9512476 C137.452305,98.660903 137.30608,98.3519768 137.194626,98.0299424 C136.810749,96.9888676 136.721689,95.828023 136.463724,94.7285988 L136.408445,94.5013436 C136.072442,93.3919287 135.662043,92.3064231 135.180038,91.2522073 C134.501344,89.5877159 133.979271,87.8740883 133.460269,86.1389635 C133.144978,85.0886756 132.826615,84.0363404 132.505182,82.9819578 L132.019962,81.3727447 C131.927831,81.065643 131.835701,80.7585413 131.765067,80.4514395 L131.765067,80.4514395 C131.730776,80.3096577 131.704122,80.166137 131.685221,80.0214971 C131.599039,79.5502943 131.624279,79.0654645 131.758925,78.6057582 C131.878268,78.2919518 132.013569,77.9844491 132.164299,77.684453 C132.228573,77.548278 132.279981,77.4063943 132.31785,77.2606526 L132.31785,77.2606526 C132.327836,77.2283704 132.336037,77.1955633 132.342418,77.16238 C132.364298,77.053164 132.375611,76.9420948 132.3762,76.8307102 C132.36557,76.4279584 132.312036,76.0274872 132.216507,75.6360845 C132.214616,75.6311406 132.214616,75.6256732 132.216507,75.6207294 C132.212875,75.5928354 132.20775,75.5651565 132.201152,75.5378119 C132.146107,75.2331675 132.10919,74.925525 132.090595,74.6165067 C131.982558,72.9536391 132.352309,71.2945556 133.156238,69.8349328 L133.214587,69.7243762 C133.383907,69.427644 133.572675,69.1424401 133.779655,68.8706334 L133.779655,68.8706334 C133.874856,68.7416507 133.973129,68.61881 134.086756,68.4959693 C133.656814,68.9074856 132.95048,68.7262956 132.551248,68.2840691 C132.48525,68.2148978 132.428477,68.13748 132.382342,68.0537428 C132.355765,68.0092915 132.332168,67.9631247 132.311708,67.915547 C132.296353,67.8786948 132.284069,67.8387716 132.271785,67.7988484 C132.056814,67.0464491 132.431478,66.2449136 132.922841,65.6337812 C133.406882,65.0385066 134.006539,64.547499 134.685605,64.1904031 L134.685605,64.1904031 C134.72525,64.1665138 134.766268,64.1449794 134.808445,64.1259117 C135.069196,63.9950976 135.340381,63.8862125 135.619194,63.8003839 L135.619194,63.8003839 C135.783394,63.7460173 135.950516,63.7009048 136.11977,63.6652591 L134.980422,63.5608445 L134.51977,63.5178503 C134.988858,61.6569975 136.598075,60.3064933 138.512092,60.1673704 L138.843762,60.1673704 C139.005192,60.1698586 139.166271,60.1831964 139.325912,60.2072937 C138.803002,59.9781307 138.478226,59.4474582 138.512092,58.8775432 C139.316235,59.5070513 140.313352,59.8390621 141.334357,59.8172745 L141.451056,59.8172745 C141.397921,59.4846937 141.363064,59.1494496 141.346641,58.8130518 L141.346641,58.8130518 C141.315931,58.3570104 141.315931,57.8994196 141.346641,57.4433781 C141.903659,57.9716629 142.666206,58.2258451 143.428791,58.137428 L142.790019,57.246833 C143.359302,57.7010236 144.078005,57.9256183 144.804607,57.8763916 L144.952015,57.8610365 C145.075645,57.8481022 145.197921,57.8244692 145.317466,57.7904031 L145.345106,57.7904031 C145.286756,57.7166987 145.234549,57.6399232 145.182342,57.5600768 L145.163916,57.5232246 C145.036195,57.3223581 144.933088,57.1068641 144.856814,56.881382 C144.826169,56.7941114 144.801543,56.7048426 144.783109,56.6142035 L144.783109,56.6142035 C144.649176,56.0558656 144.697608,55.4693078 144.921305,54.940499 C145.913244,55.7696737 147.000384,56.9028791 148.299424,56.0460653 C149.598464,55.1892514 149.641459,53.6168906 151.677543,53.7765835 C152.817195,53.884097 153.807444,54.6047067 154.260269,55.6560461 C154.84909,54.9905794 155.796548,54.7744059 156.615739,55.118618 C157.421015,55.5003396 157.89839,56.3480488 157.807294,57.2345489 C158.651823,57.0226488 159.560845,56.8138196 160.371593,57.1332054 C161.182342,57.4525912 161.704415,58.487524 161.243762,59.1785029 C161.231208,59.2001645 161.216824,59.2207128 161.200768,59.2399232 C160.823033,59.728215 159.987716,59.9953935 160.076775,60.6095969 L160.205758,60.7017274 L160.60499,60.9904031 C162.171209,62.1205374 163.696481,63.3079974 165.180806,64.5527831 C165.942418,65.1915547 166.753167,65.959309 166.805374,66.9573896 C166.814529,67.2022394 166.789725,67.4471771 166.73167,67.6852207 L166.73167,67.6852207 C166.682534,67.9247601 166.614971,68.1642994 166.562764,68.4038388 C166.431408,69.013943 166.396178,69.6408241 166.458349,70.2618042 L166.458349,70.2618042 C166.479846,70.4429942 166.507486,70.6211132 166.541267,70.8023033 C167.011132,73.1761996 168.909021,75.1355086 169.096353,77.5585413 L169.096353,77.7305182 C169.107653,77.9896892 169.10047,78.249336 169.074856,78.5074856 C168.933589,79.9815739 168.251823,81.3973129 167.69904,82.8069098 C167.665259,82.8928983 167.631478,82.9788868 167.600768,83.0648752 C166.535125,85.8287908 165.920921,88.7738964 165.451056,91.7128599 C165.299476,92.7555744 165.094472,93.7898207 164.836852,94.8115163 C164.556675,95.9808021 164.02305,97.0742629 163.273704,98.0145873 C162.974274,98.3681859 162.626972,98.678277 162.241843,98.9358925 C161.982631,99.1018394 161.710479,99.2466451 161.428023,99.368906 C161.428023,99.368906 161.428023,99.368906 161.428023,99.3873321 C161.461804,99.5746641 161.489443,99.7619962 161.523225,99.9493282 C161.541651,100.047601 161.557006,100.145873 161.575432,100.25643 L161.575432,100.25643 C161.5741,100.2625 161.5741,100.268786 161.575432,100.274856 C161.833397,101.727447 162.128215,103.149328 162.438388,104.500576 L162.59501,105.173129 C166.464491,106.570441 166.922073,109.43263 166.949712,110.528983 C166.960584,110.675166 166.960584,110.821955 166.949712,110.968138 C166.949712,110.968138 172.784645,111.121689 175.087908,112.810749 C175.518367,113.102954 175.983647,113.340236 176.472937,113.517083 C177.40174,113.867998 178.350253,114.164344 179.313628,114.404607 C179.808061,114.533589 180.323992,114.659501 180.849136,114.782342 C181.770441,114.994242 182.747025,115.2 183.689827,115.396545 C186.20499,115.903263 188.572745,116.31785 189.773512,116.624952 C192.638772,117.349712 199.192322,123.633013 199.192322,123.633013 C199.192322,123.633013 199.960077,129.971593 200.727831,130.895969 C201.495585,131.820345 202.877543,135.069482 202.877543,135.069482 L207.957006,144.101344 L210.106718,147.900192 L211.488676,147.900192 C211.679079,147.900192 212.053743,148.170441 212.474472,148.545106 C212.839923,148.870633 213.245298,149.276008 213.601536,149.64453 L214.191171,150.274088 L214.559693,150.682534 C214.559693,150.682534 216.792322,150.737812 217.397313,152.503647 C219.215355,152.45144 221.447985,152.571209 223.011132,153.271401 C223.224435,153.365297 223.429833,153.476212 223.625336,153.603071 C224.273569,153.978515 224.733908,154.609391 224.893666,155.341267 C224.924906,155.486789 224.943403,155.634758 224.948944,155.783493 C224.948944,155.958541 224.948944,156.133589 224.948944,156.305566 C224.838388,158.630326 223.324376,160.565067 221.933205,161.867179 L222.031478,162.042226 C222.031478,162.042226 221.985413,162.152783 221.896353,162.349328 C221.871785,162.407678 221.841075,162.472169 221.807294,162.545873 L221.807294,162.545873 C221.626104,162.932821 221.337428,163.513244 220.959693,164.191939 C220.158182,165.660979 219.170362,167.020392 218.020729,168.236468 L217.93167,168.328599 L200.199616,168.491363 L200.147409,168.429942 L196.707869,164.327063 L194.997313,162.287908 L194.945106,162.223417 L194.895969,162.711708 L194.730134,164.339347 L194.330902,168.273321 L194.309405,168.469866 L194.309405,168.522073 L194.26334,168.976583 L194.297121,168.522073 L194.208061,168.522073 L161.348177,168.829175 L107.414971,169.424952 L107.414971,169.682917 L107.371977,169.682917 L107.371977,169.424952 L93.6291747,169.572361 L93.4817658,169.575432 Z" id="Path" fill="url(#linearGradient-1)" fill-rule="nonzero"></path>
                <path d="M165.40499,115.826488 C165.40499,115.826488 134.848369,119.511708 137.765835,115.826488 C138.822265,114.493666 139.114012,110.544338 139.055662,106.045298 C139.037236,104.678695 138.9881,103.262956 138.917466,101.853359 C138.579655,95.0971209 137.765835,88.4944338 137.765835,88.4944338 C137.765835,88.4944338 164.483685,75.903263 161.412668,85.8840691 C160.184261,89.9163148 160.586564,95.5792706 161.520154,100.895202 C161.793474,102.446065 162.109789,103.966219 162.441459,105.409597 C163.2509,108.930189 164.240038,112.407036 165.40499,115.826488 L165.40499,115.826488 Z" id="Path" fill="#FBBEBE" fill-rule="nonzero"></path>
                <path d="M165.40499,115.826488 C165.40499,115.826488 134.848369,119.511708 137.765835,115.826488 C138.822265,114.493666 139.114012,110.544338 139.055662,106.045298 C143.714395,104.055278 149.641459,105.53858 149.641459,105.53858 C155.881766,104.294818 159.883301,104.537428 162.441459,105.409597 C163.2509,108.930189 164.240038,112.407036 165.40499,115.826488 L165.40499,115.826488 Z" id="Path" fill="#000000" fill-rule="nonzero" opacity="0.1"></path>
                <path d="M107.405758,169.682917 L107.405758,169.424952 L161.338964,168.838388 L194.198848,168.531286 L194.290979,168.531286 L194.257198,168.985797 L194.303263,168.531286 L194.361612,168.531286 L194.361612,168.479079 L194.782342,164.34856 L194.942035,162.785413 L194.991171,162.297121 L195.034165,161.888676 L196.932054,155.559309 L198.829942,149.239155 L200.426871,143.917083 L202.865259,135.785029 C202.865259,135.785029 201.483301,132.560461 200.715547,131.639155 C199.947793,130.71785 199.180038,124.422265 199.180038,124.422265 C199.180038,124.422265 192.626488,118.178887 189.761228,117.460269 C188.560461,117.153167 186.189635,116.744722 183.671401,116.231862 C182.728599,116.041459 181.761228,115.838772 180.83071,115.617658 C180.305566,115.497889 179.789635,115.371977 179.295202,115.246065 C178.332889,115.005701 177.384554,114.712486 176.454511,114.367754 C175.966887,114.190604 175.502782,113.954426 175.072553,113.664491 C172.815355,112.009213 167.158541,111.821881 166.940499,111.821881 L166.940499,111.821881 C166.939901,111.814728 166.939901,111.807537 166.940499,111.800384 L166.940499,111.772745 C166.948427,111.643884 166.948427,111.514657 166.940499,111.385797 C166.940499,111.262956 166.940499,111.118618 166.91286,110.955854 C166.91286,110.906718 166.91286,110.854511 166.891363,110.802303 C166.876008,110.691747 166.857582,110.575048 166.829942,110.452207 C166.820618,110.397325 166.808316,110.34299 166.79309,110.289443 C166.704094,109.919402 166.575389,109.560056 166.409213,109.217658 C166.387716,109.168522 166.360077,109.116315 166.335509,109.067179 C166.184947,108.783492 166.01028,108.513271 165.813436,108.259501 C165.773512,108.207294 165.730518,108.152015 165.684453,108.099808 C165.43289,107.803179 165.15314,107.531658 164.849136,107.28906 C164.766219,107.224568 164.68023,107.157006 164.591171,107.095585 C164.541488,107.055281 164.489164,107.018346 164.434549,106.985029 L164.161228,106.80691 L163.906334,106.659501 C163.68215,106.53666 163.445681,106.416891 163.187716,106.303263 C163.107869,106.266411 163.021881,106.23263 162.935893,106.198848 C162.849904,106.165067 162.714779,106.11286 162.601152,106.069866 L162.582726,106.069866 L162.352399,105.977735 C162.177351,105.919386 161.999232,105.867179 161.8119,105.814971 L161.526296,105.741267 L161.219194,105.670633 L160.912092,105.606142 C160.60499,105.544722 160.276392,105.489443 159.932438,105.446449 L159.582342,105.403455 L159.223033,105.366603 L158.85144,105.335893 L158.323225,105.305182 L157.709021,105.283685 C155.000159,105.283685 152.298917,105.570647 149.650672,106.140499 C147.810935,105.731118 145.926544,105.557746 144.042994,105.624568 L143.775816,105.624568 L143.468714,105.642994 L143.272169,105.642994 L142.876008,105.679846 C142.743954,105.679846 142.608829,105.707486 142.476775,105.725912 C142.344722,105.744338 142.206526,105.759693 142.074472,105.78119 L141.871785,105.814971 C141.672169,105.848752 141.469482,105.885605 141.257582,105.928599 C141.190019,105.940883 141.122457,105.956238 141.054894,105.974664 C140.787716,106.033013 140.520537,106.103647 140.25643,106.183493 C140.124376,106.220345 139.992322,106.26334 139.860269,106.309405 C139.792706,106.327831 139.728215,106.352399 139.663724,106.376967 L139.467179,106.447601 L139.273704,106.524376 L139.043378,106.616507 C138.926679,106.665643 138.813052,106.71785 138.699424,106.773129 C138.634933,106.800768 138.570441,106.831478 138.509021,106.865259 C138.447601,106.89904 138.383109,106.926679 138.32476,106.960461 C137.630385,107.319254 136.988669,107.771865 136.417658,108.305566 L136.261036,108.456046 L136.107486,108.612668 C136.055278,108.664875 136.006142,108.720154 135.957006,108.775432 C135.756865,108.994217 135.570212,109.224969 135.398081,109.466411 C135.348944,109.530902 135.302879,109.595393 135.256814,109.662956 C135.061924,109.950377 134.885497,110.249893 134.728599,110.559693 C134.688676,110.633397 134.651823,110.710173 134.614971,110.783877 C134.364364,111.30269 134.158871,111.842108 134.000768,112.396161 C133.943442,112.600896 133.891235,112.80563 133.844146,113.010365 C133.844146,113.010365 127.342802,115.878695 121.950096,117.954702 C120.515931,118.507486 119.164683,119.008061 118.034549,119.385797 C117.70595,119.496353 117.398848,119.597697 117.113244,119.692898 C116.493542,119.916895 115.849098,120.065375 115.193858,120.135125 C114.885009,120.14019 114.577004,120.168937 114.272553,120.221113 C111.794242,120.623417 107.547025,122.370825 107.083301,124.124376 C107.045652,124.264406 107.035226,124.41036 107.052591,124.554319 C107.052591,124.554319 107.052591,124.575816 107.052591,124.5881 C107.359693,126.737812 105.209981,126.43071 105.209981,126.43071 C105.209981,126.43071 104.442226,132.112092 103.36737,133.647601 C102.590403,134.753167 102.059117,137.219194 101.991555,139.08023 L101.991555,139.08023 C101.952942,139.660059 101.998456,140.242423 102.126679,140.809213 C102.126679,140.824568 102.126679,140.839923 102.126679,140.852207 C102.24952,141.263724 101.954702,142.387716 101.454127,143.828023 C100.910557,145.409597 100.118234,147.375048 99.3566219,149.229942 C98.2080614,152.03071 97.1270633,154.573512 97.059501,155.132438 C97.0318618,155.38119 96.9520154,155.826488 96.8414587,156.400768 C96.3930902,158.740883 95.3980806,163.196929 94.9067179,164.999616 C94.5412668,166.344722 94.0099808,168.187332 93.6445298,169.452591 C93.6445298,169.489443 93.6230326,169.526296 93.6138196,169.560077 L107.38119,169.424952 L107.38119,169.682917 L107.424184,169.682917 L107.405758,169.682917 Z" id="Path" fill="#F13C31" fill-rule="nonzero"></path>
                <path d="M112.429942,133.484837 C112.429942,133.484837 129.934741,142.544338 136.230326,141.469482 L112.429942,133.484837 Z" id="Path" fill="#000000" fill-rule="nonzero" opacity="0.1"></path>
                <path d="M148.053743,129.799616 C148.053743,129.799616 165.097889,135.327447 170.779271,136.095202 C176.460653,136.862956 148.053743,129.799616 148.053743,129.799616 Z" id="Path" fill="#000000" fill-rule="nonzero" opacity="0.1"></path>
                <path d="M166.958925,112.012284 C158.052975,113.652207 141.285221,113.29904 134.03762,113.050288 C136.69405,103.530134 149.647601,106.766987 149.647601,106.766987 C165.681382,103.566987 166.909789,110.206526 166.958925,112.012284 Z" id="Path" fill="#000000" fill-rule="nonzero" opacity="0.1"></path>
                <path d="M166.958925,111.398081 C158.052975,113.038004 141.285221,112.684837 134.03762,112.436084 C136.69405,102.915931 149.647601,106.152783 149.647601,106.152783 C165.681382,102.952783 166.909789,109.592322 166.958925,111.398081 Z" id="Path" fill="#F13C31" fill-rule="nonzero"></path>
                <path d="M214.234165,153.369674 C214.234165,153.369674 224.72476,151.75739 224.930518,156.363916 C225.136276,160.970441 219.580806,164.188868 219.580806,164.188868 L214.234165,153.369674 Z" id="Path" fill="#FBBEBE" fill-rule="nonzero"></path>
                <path d="M161.520154,100.895202 C161.068953,101.096862 160.607693,101.275216 160.138196,101.429559 C156.827639,102.571977 153.489443,103.723608 150.003839,104.141267 C146.518234,104.558925 142.860653,104.190403 139.820345,102.452207 C139.501116,102.2719 139.19342,102.071897 138.89904,101.853359 C138.561228,95.0971209 137.747409,88.4944338 137.747409,88.4944338 C137.747409,88.4944338 164.465259,75.903263 161.394242,85.8840691 C160.171977,89.9163148 160.586564,95.5792706 161.520154,100.895202 Z" id="Path" fill="#000000" fill-rule="nonzero" opacity="0.1"></path>
                <path d="M145.314395,58.9420345 C144.425628,59.1767658 143.478206,58.9774883 142.759309,58.4046065 L143.398081,59.2921305 C142.636099,59.3800667 141.874153,59.1272084 141.315931,58.6011516 C141.258005,59.3956524 141.290976,60.1941692 141.414203,60.98119 C140.357257,61.0321688 139.316626,60.7056111 138.478311,60.0598848 C138.444761,60.6273233 138.768327,61.1555693 139.28906,61.3834933 C137.092741,61.1211222 135.042581,62.5286359 134.498273,64.6725528 L136.101344,64.8199616 C134.841488,65.0890295 133.710755,65.7789502 132.895202,66.7761996 C132.403839,67.3904031 132.029175,68.1765835 132.244146,68.9259117 C132.459117,69.6752399 133.497121,70.1543186 134.062188,69.6199616 C132.435109,71.5619393 131.749424,74.1237041 132.188868,76.61881 C132.334629,77.1440405 132.382515,77.6916064 132.330134,78.2341651 C132.228791,78.7408829 131.909405,79.1800384 131.749712,79.6744722 C131.44261,80.5712092 131.734357,81.5447217 132.007678,82.4383877 L133.447985,87.1738964 C133.970058,88.884453 134.48906,90.5980806 135.170825,92.2533589 C135.6536,93.2998907 136.064032,94.3783007 136.399232,95.4809981 C136.78618,96.9673704 136.801536,98.5950096 137.627639,99.8940499 C138.193807,100.711535 138.95063,101.378762 139.83263,101.838004 C142.869866,103.5762 146.539731,103.944722 150.016123,103.527063 C153.492514,103.109405 156.827639,101.957774 160.135125,100.815355 C160.869889,100.594034 161.575199,100.284688 162.235701,99.8940499 C164.523608,98.3953935 165.033397,95.3305182 165.460269,92.631094 C165.936276,89.6214971 166.571977,86.6180422 167.69904,83.7865643 C168.368522,82.1005758 169.234549,80.3900192 169.08714,78.584261 C168.899808,76.1857965 167.001919,74.2418426 166.532054,71.8833013 C166.374763,71.0949199 166.382081,70.2825406 166.553551,69.4971209 C166.699269,69.0291675 166.780882,68.543621 166.796161,68.0537428 C166.743954,67.0648752 165.933205,66.303263 165.171593,65.6675624 C163.519386,64.287652 161.813948,62.9834933 160.055278,61.7550864 C159.966219,61.1408829 160.801536,60.8767754 161.179271,60.3915547 C161.713628,59.7067179 161.160845,58.6195777 160.350096,58.3001919 C159.539347,57.9808061 158.630326,58.1896353 157.785797,58.4015355 C157.898788,57.5138294 157.415367,56.657301 156.597014,56.2952417 C155.77866,55.9331824 154.819677,56.1515561 154.238772,56.8322457 C153.781947,55.7847836 152.790965,55.0692048 151.652975,54.9650672 C149.616891,54.8053743 149.576967,56.36238 148.274856,57.2191939 C146.972745,58.0760077 145.897889,56.9458733 144.896737,56.1228407 C144.522348,57.0697083 144.681559,58.1443855 145.314395,58.9420345 L145.314395,58.9420345 Z" id="Path" fill="#3F3D56" fill-rule="nonzero"></path>
                <path d="M222.013052,162.582726 C222.013052,162.582726 221.739731,163.233781 221.236084,164.176583 C220.474238,165.627078 219.546736,166.984322 218.472169,168.221113 L218.389251,168.310173 L217.891747,168.310173 L200.159693,168.472937 L199.735893,168.472937 L199.683685,168.411516 L196.244146,164.330134 L194.948177,162.791555 L194.895969,162.727063 L194.785413,162.598081 L194.723992,162.524376 L194.644146,162.429175 L192.122841,159.438004 L193.044146,155.599232 L194.613436,149.13167 L194.653359,148.975048 L194.960461,147.746641 L195.178503,146.825336 L195.909405,143.821881 L198.415355,133.487908 L202.86833,135.791171 L207.563916,144.082917 L210.085221,148.535893 L211.467179,148.535893 C211.728215,148.535893 212.327063,149.039539 212.928983,149.619962 C213.143954,149.82572 213.358925,150.043762 213.543186,150.234165 C214.089827,150.799232 214.522841,151.284453 214.522841,151.284453 C214.522841,151.284453 216.761612,151.333589 217.363532,153.096353 C217.39461,153.181657 217.420253,153.268844 217.440307,153.35739 C217.64011,154.050272 217.900089,154.724366 218.217274,155.371977 C218.613436,156.234933 219.11094,157.214587 219.614587,158.194242 C220.551248,159.990787 221.503263,161.701344 221.853359,162.321689 L221.896353,162.398464 L222.013052,162.582726 Z" id="Path" fill="#F13C31" fill-rule="nonzero"></path>
                <path d="M195.633013,148.717083 L195.602303,149.156238 L195.602303,149.186948 L195.550096,149.893282 L195.141651,155.577735 L194.647217,162.426104 L194.50595,164.354702 L194.198848,168.48215 L194.198848,168.534357 L161.338964,168.841459 L107.414971,169.424952 L107.414971,169.682917 L107.371977,169.682917 L107.371977,169.424952 L107.371977,169.338964 L107.510173,164.928983 L107.77428,156.311708 L108.001536,149.005758 L108.023033,148.277927 C108.050186,147.390104 108.441332,146.552536 109.104665,145.96181 C109.767997,145.371084 110.64511,145.079213 111.530134,145.154702 C112.979655,145.277543 114.862188,145.428023 117.113244,145.587716 L118.034549,145.655278 C131.034165,146.558157 155.058733,147.725144 179.301344,146.269482 C179.811132,146.241843 180.323992,146.211132 180.836852,146.17428 C184.595777,145.937812 188.351631,145.633781 192.070633,145.252975 C193.022349,145.15326 193.969357,145.480174 194.656881,146.145769 C195.344405,146.811364 195.701836,147.74728 195.633013,148.701727 L195.633013,148.717083 Z" id="Path" fill="#000000" fill-rule="nonzero" opacity="0.1"></path>
                <path d="M107.405758,169.682917 L107.405758,169.424952 L161.338964,168.838388 L194.198848,168.531286 L194.290979,168.531286 L194.290979,168.479079 L194.598081,164.351631 L194.730134,162.509021 L195.233781,155.565451 L195.629942,150.06833 L195.629942,149.933205 C195.648254,149.679905 195.636916,149.425334 195.596161,149.174664 C195.597879,149.164499 195.597879,149.154119 195.596161,149.143954 C195.511798,148.625666 195.300826,148.13621 194.981958,147.719002 C194.294491,146.83744 193.200788,146.373022 192.08906,146.490595 C188.370058,146.871401 184.614203,147.175432 180.855278,147.4119 C180.342418,147.448752 179.829559,147.479463 179.31977,147.507102 C155.077159,148.947409 131.052591,147.780422 118.052975,146.892898 L117.13167,146.825336 C114.880614,146.665643 112.998081,146.518234 111.54856,146.392322 C109.896966,146.252956 108.406949,147.383724 108.096737,149.0119 C108.065729,149.178162 108.047251,149.346518 108.041459,149.515547 L107.83263,156.320921 L107.547025,164.941267 L107.4119,169.351248 L107.4119,169.437236 L107.4119,169.695202 L107.405758,169.682917 Z" id="Path" fill="#3F3D56" fill-rule="nonzero"></path>
                <path d="M195.725144,150.869866 L195.347409,155.577735 L194.785413,162.59501 L194.644146,164.351631 L194.337044,168.285605 L194.318618,168.48215 L194.318618,168.534357 L194.318618,168.534357 L194.272553,168.988868 L194.306334,168.534357 L194.217274,168.534357 L161.35739,168.841459 L107.414971,169.424952 L107.414971,169.338964 L107.565451,164.928983 L107.872553,156.311708 L108.069098,150.584261 C108.088734,149.922268 108.442496,149.315324 109.008829,148.971977 C109.356582,148.758847 109.763188,148.662036 110.169674,148.695585 C110.814587,148.747793 111.60691,148.809213 112.531286,148.876775 C114.033013,148.987332 115.884837,149.116315 118.040691,149.25144 C122.033013,149.503263 127.041843,149.773512 132.781574,149.994626 C148.750864,150.608829 170.309405,150.814587 190.786948,149.021113 C191.708253,148.941267 192.660269,148.852207 193.590787,148.763148 C193.959109,148.726416 194.330204,148.796797 194.659501,148.965835 C194.752775,149.012295 194.841239,149.067842 194.923608,149.13167 C195.190949,149.325382 195.402744,149.58589 195.537812,149.88714 C195.569143,149.947075 195.594845,150.009788 195.614587,150.074472 C195.706841,150.328909 195.74451,150.599914 195.725144,150.869866 Z" id="Path" fill="#000000" fill-rule="nonzero" opacity="0.1"></path>
                <path d="M91.5470252,155.074088 L91.5470252,156.053743 C91.5473633,156.780843 91.1289488,157.443133 90.4721689,157.755086 L78.1573896,157.991555 C77.4886799,157.685053 77.0602486,157.016604 77.0610354,156.280998 L77.0610354,155.359693 L91.5470252,155.074088 Z" id="Path" fill="#000000" fill-rule="nonzero" opacity="0.1"></path>
                <polygon id="Path" fill="#3F3D56" fill-rule="nonzero" points="91.7005758 158.332438 75.6545106 158.639539 75.6545106 155.976967 91.7005758 155.669866"></polygon>
                <polygon id="Path" fill="#000000" fill-rule="nonzero" opacity="0.1" points="91.7005758 158.332438 75.6545106 158.639539 75.6545106 155.976967 91.7005758 155.669866"></polygon>
                <polygon id="Path" fill="#3F3D56" fill-rule="nonzero" points="92.3147793 158.332438 76.268714 158.639539 76.268714 155.976967 92.3147793 155.669866"></polygon>
                <g id="Group" opacity="0.1" transform="translate(131.439539, 56.506718)" fill="#000000" fill-rule="nonzero">
                    <path d="M14.0007678,1.42802303 C13.7007451,1.03817404 13.5013959,0.580409414 13.4203455,0.0952015355 C13.3463348,0.569527049 13.3906415,1.05479025 13.5493282,1.50786948 C13.7017596,1.49380139 13.8527587,1.46709406 14.0007678,1.42802303 Z" id="Path"></path>
                    <path d="M10.1005758,3.4671785 C10.0426612,3.09069198 10.0047322,2.71140169 9.98694818,2.33090211 C9.98694818,2.70863724 9.98694818,3.08944338 9.98694818,3.47024952 L10.1005758,3.4671785 Z" id="Path"></path>
                    <path d="M35.1293666,13.7151631 C35.1463648,13.441561 35.1833152,13.1695648 35.2399232,12.9013436 C35.3851858,12.4342268 35.4678011,11.9498947 35.4856046,11.4610365 C35.4787167,11.3513055 35.4622757,11.2423839 35.4364683,11.1355086 C35.384261,11.4180422 35.3013436,11.7005758 35.2399232,11.9800384 C35.1172625,12.5497351 35.0800028,13.1345056 35.1293666,13.7151631 Z" id="Path"></path>
                    <path d="M28.7416507,4.22571977 L29.0763916,4.46833013 C29.3586001,4.26420524 29.6226639,4.03610347 29.865643,3.7865643 C30.1008108,3.46130781 30.1452602,3.03552896 29.9823417,2.66871401 C29.9517517,2.73881931 29.9125505,2.80484237 29.865643,2.86525912 C29.4879079,3.35047985 28.6525912,3.61765835 28.7416507,4.22571977 Z" id="Path"></path>
                    <path d="M3.50710173,7.18003839 C3.39508904,7.40401833 3.30559059,7.63856598 3.23992322,7.88023033 C3.72032762,7.61207504 4.23776777,7.41648267 4.77543186,7.29980806 L3.50710173,7.18003839 Z" id="Path"></path>
                    <path d="M7.74203455,3.83877159 C7.54030997,3.72763928 7.34730588,3.60136533 7.1646833,3.46103647 C7.15695131,3.58252768 7.16625453,3.70450325 7.19232246,3.82341651 C7.37568495,3.81467462 7.55944596,3.81980761 7.74203455,3.83877159 Z" id="Path"></path>
                    <path d="M37.7673704,21.9332054 C37.6414587,23.4226488 36.9474088,24.8568138 36.3854127,26.2694818 C35.2583493,29.1009597 34.6226488,32.1044146 34.1466411,35.1170825 C33.7197697,37.8165067 33.2253359,40.881382 30.9220729,42.3769674 C30.2639585,42.7701394 29.5593441,43.0796333 28.8245681,43.2982726 C25.5140115,44.443762 22.1758157,45.5923225 18.6902111,46.0099808 C15.2046065,46.4276392 11.547025,46.0621881 8.50671785,44.3239923 C7.62520875,43.8640352 6.86854277,43.1969467 6.30172745,42.3800384 C5.48176583,41.0809981 5.46641075,39.4533589 5.07332054,37.9669866 C4.73813455,36.863286 4.32770402,35.7838537 3.84491363,34.7362764 C3.16621881,33.0840691 2.64414587,31.3581574 2.12514395,29.6598848 C1.64401791,28.081382 1.16391555,26.5018554 0.684836852,24.9213052 C0.527051672,24.4458489 0.409932131,23.9578508 0.334740883,23.462572 C0.214971209,24.2487524 0.448368522,25.071785 0.684836852,25.8426104 C1.16391555,27.4252079 1.64401791,29.0047345 2.12514395,30.58119 C2.64414587,32.2917466 3.16621881,34.0053743 3.84491363,35.6575816 C4.32770402,36.7051588 4.73813455,37.7845911 5.07332054,38.8882917 C5.46026871,40.3746641 5.4756238,42.0023033 6.30172745,43.3013436 C6.86854277,44.1182519 7.62520875,44.7853404 8.50671785,45.2452975 C11.547025,46.9834933 15.2138196,47.3489443 18.6902111,46.931286 C22.1666027,46.5136276 25.5017274,45.3650672 28.8245681,44.2195777 C29.5593441,44.0009384 30.2639585,43.6914446 30.9220729,43.2982726 C33.2099808,41.8026871 33.7197697,38.7378119 34.1466411,36.0383877 C34.6226488,33.0257198 35.2583493,30.0222649 36.3854127,27.1907869 C37.0548944,25.5078695 37.9209213,23.7973129 37.7735125,21.9884837 C37.7735125,21.9700576 37.7673704,21.9516315 37.7673704,21.9332054 Z" id="Path"></path>
                    <path d="M1.01036468,20.7447217 C1.01036468,20.7447217 1.01036468,20.7232246 1.01036468,20.7109405 C1.06576627,20.1694155 1.01782814,19.6222956 0.869097889,19.0986564 C0.807829908,18.7616456 0.767827654,18.4211136 0.749328215,18.0790787 C0.713972598,18.7284947 0.754165119,19.3798197 0.869097889,20.0199616 C0.918234165,20.259501 0.973512476,20.5021113 1.01036468,20.7447217 Z" id="Path"></path>
                    <path d="M1.94702495,13.2330134 C2.18321603,12.8362232 2.45127765,12.4592936 2.74856046,12.1059501 C2.1865643,12.6433781 1.14856046,12.1642994 0.930518234,11.4180422 C0.850151261,11.719886 0.850151261,12.0375036 0.930518234,12.3393474 C1.08443979,12.7980615 1.47237392,13.1391154 1.94702495,13.2330134 L1.94702495,13.2330134 Z" id="Path"></path>
                </g>
                <path d="M210.088292,148.532821 C210.088292,148.532821 211.061804,152.064491 210.088292,155.135509 C209.114779,158.206526 210.088292,148.532821 210.088292,148.532821 Z" id="Path" fill="#000000" fill-rule="nonzero" opacity="0.1"></path>
                <path d="M214.234165,152.135125 C214.234165,152.135125 214.64261,156.61881 213.721305,157.414203 C212.8,158.209597 214.234165,152.135125 214.234165,152.135125 Z" id="Path" fill="#000000" fill-rule="nonzero" opacity="0.1"></path>
                <line x1="61.1101727" y1="105.292898" x2="92.3147793" y2="104.985797" id="Path" stroke="#F13C31" stroke-width="0.614203455"></line>
                <line x1="61.1101727" y1="109.122457" x2="92.3147793" y2="108.818426" id="Path" stroke="#F13C31" stroke-width="0.614203455"></line>
                <line x1="61.1101727" y1="112.955086" x2="92.3147793" y2="112.647985" id="Path" stroke="#F13C31" stroke-width="0.614203455"></line>
            </g>
        </g>
    </g>
</svg>